  0
SECTION
  2
HEADER
  9
$ACADVER
  1
AC1024
  9
$ACADMAINTVER
 70
     6
  9
$DWGCODEPAGE
  3
ANSI_1252
  9
$LASTSAVEDBY
  1
mehme
  9
$INSBASE
 10
0.0
 20
0.0
 30
0.0
  9
$EXTMIN
 10
580293.7056593994
 20
4179099.98
 30
-49.88999938964844
  9
$EXTMAX
 10
581850.7570308154
 20
4180186.545708521
 30
0.0
  9
$LIMMIN
 10
581025.0477221323
 20
4179557.793613671
  9
$LIMMAX
 10
582566.4663394984
 20
4180671.960181925
  9
$ORTHOMODE
 70
     0
  9
$REGENMODE
 70
     1
  9
$FILLMODE
 70
     1
  9
$QTEXTMODE
 70
     0
  9
$MIRRTEXT
 70
     1
  9
$LTSCALE
 40
1.0
  9
$ATTMODE
 70
     1
  9
$TEXTSIZE
 40
2.5
  9
$TRACEWID
 40
1.0
  9
$TEXTSTYLE
  7
Standard
  9
$CLAYER
  8
GEOFENCE
  9
$CELTYPE
  6
ByLayer
  9
$CECOLOR
 62
   256
  9
$CELTSCALE
 40
1.0
  9
$DISPSILH
 70
     0
  9
$DIMSCALE
 40
1.0
  9
$DIMASZ
 40
2.5
  9
$DIMEXO
 40
0.625
  9
$DIMDLI
 40
3.75
  9
$DIMRND
 40
0.0
  9
$DIMDLE
 40
0.0
  9
$DIMEXE
 40
1.25
  9
$DIMTP
 40
0.0
  9
$DIMTM
 40
0.0
  9
$DIMTXT
 40
2.5
  9
$DIMCEN
 40
0.0
  9
$DIMTSZ
 40
0.0
  9
$DIMTOL
 70
     0
  9
$DIMLIM
 70
     0
  9
$DIMTIH
 70
     0
  9
$DIMTOH
 70
     0
  9
$DIMSE1
 70
     0
  9
$DIMSE2
 70
     0
  9
$DIMTAD
 70
     1
  9
$DIMZIN
 70
     8
  9
$DIMBLK
  1

  9
$DIMASO
 70
     1
  9
$DIMSHO
 70
     1
  9
$DIMPOST
  1

  9
$DIMAPOST
  1
^B2147483648l^B
  9
$DIMALT
 70
     0
  9
$DIMALTD
 70
     3
  9
$DIMALTF
 40
0.03937007874016
  9
$DIMLFAC
 40
1.0
  9
$DIMTOFL
 70
     1
  9
$DIMTVP
 40
0.0
  9
$DIMTIX
 70
     0
  9
$DIMSOXD
 70
     0
  9
$DIMSAH
 70
     0
  9
$DIMBLK1
  1

  9
$DIMBLK2
  1

  9
$DIMSTYLE
  2
Standard
  9
$DIMCLRD
 70
     0
  9
$DIMCLRE
 70
     0
  9
$DIMCLRT
 70
     0
  9
$DIMTFAC
 40
1.0
  9
$DIMGAP
 40
0.625
  9
$DIMJUST
 70
     0
  9
$DIMSD1
 70
     0
  9
$DIMSD2
 70
     0
  9
$DIMTOLJ
 70
     0
  9
$DIMTZIN
 70
     8
  9
$DIMALTZ
 70
     0
  9
$DIMALTTZ
 70
     0
  9
$DIMUPT
 70
     0
  9
$DIMDEC
 70
     2
  9
$DIMTDEC
 70
     2
  9
$DIMALTU
 70
     2
  9
$DIMALTTD
 70
     3
  9
$DIMTXSTY
  7
Standard
  9
$DIMAUNIT
 70
     0
  9
$DIMADEC
 70
     0
  9
$DIMALTRND
 40
0.0
  9
$DIMAZIN
 70
     0
  9
$DIMDSEP
 70
    44
  9
$DIMATFIT
 70
     3
  9
$DIMFRAC
 70
     0
  9
$DIMLDRBLK
  1

  9
$DIMLUNIT
 70
     2
  9
$DIMLWD
 70
    -2
  9
$DIMLWE
 70
    -2
  9
$DIMTMOVE
 70
     0
  9
$DIMFXL
 40
1.0
  9
$DIMFXLON
 70
     0
  9
$DIMJOGANG
 40
0.7853981633974483
  9
$DIMTFILL
 70
     0
  9
$DIMTFILLCLR
 70
     0
  9
$DIMARCSYM
 70
     0
  9
$DIMLTYPE
  6
ByBlock
  9
$DIMLTEX1
  6
ByBlock
  9
$DIMLTEX2
  6
ByBlock
  9
$DIMTXTDIRECTION
 70
     0
  9
$LUNITS
 70
     2
  9
$LUPREC
 70
     4
  9
$SKETCHINC
 40
1.0
  9
$FILLETRAD
 40
10.0
  9
$AUNITS
 70
     0
  9
$AUPREC
 70
     0
  9
$MENU
  1
.
  9
$ELEVATION
 40
0.0
  9
$PELEVATION
 40
0.0
  9
$THICKNESS
 40
0.0
  9
$LIMCHECK
 70
     0
  9
$CHAMFERA
 40
0.5
  9
$CHAMFERB
 40
0.5
  9
$CHAMFERC
 40
1.0
  9
$CHAMFERD
 40
0.0
  9
$SKPOLY
 70
     0
  9
$TDCREATE
 40
2457878.785528183
  9
$TDUCREATE
 40
2457878.660528183
  9
$TDUPDATE
 40
2457953.662382211
  9
$TDUUPDATE
 40
2457953.537382211
  9
$TDINDWG
 40
0.0093032639
  9
$TDUSRTIMER
 40
2457953.534905856
  9
$USRTIMER
 70
     1
  9
$ANGBASE
 50
0.0
  9
$ANGDIR
 70
     0
  9
$PDMODE
 70
     0
  9
$PDSIZE
 40
0.0
  9
$PLINEWID
 40
0.0
  9
$SPLFRAME
 70
     0
  9
$SPLINETYPE
 70
     6
  9
$SPLINESEGS
 70
     8
  9
$HANDSEED
  5
447
  9
$SURFTAB1
 70
     6
  9
$SURFTAB2
 70
     6
  9
$SURFTYPE
 70
     6
  9
$SURFU
 70
     6
  9
$SURFV
 70
     6
  9
$UCSBASE
  2

  9
$UCSNAME
  2

  9
$UCSORG
 10
0.0
 20
0.0
 30
0.0
  9
$UCSXDIR
 10
1.0
 20
0.0
 30
0.0
  9
$UCSYDIR
 10
0.0
 20
1.0
 30
0.0
  9
$UCSORTHOREF
  2

  9
$UCSORTHOVIEW
 70
     1
  9
$UCSORGTOP
 10
0.0
 20
0.0
 30
0.0
  9
$UCSORGBOTTOM
 10
0.0
 20
0.0
 30
0.0
  9
$UCSORGLEFT
 10
0.0
 20
0.0
 30
0.0
  9
$UCSORGRIGHT
 10
0.0
 20
0.0
 30
0.0
  9
$UCSORGFRONT
 10
0.0
 20
0.0
 30
0.0
  9
$UCSORGBACK
 10
0.0
 20
0.0
 30
0.0
  9
$PUCSBASE
  2

  9
$PUCSNAME
  2

  9
$PUCSORG
 10
0.0
 20
0.0
 30
0.0
  9
$PUCSXDIR
 10
1.0
 20
0.0
 30
0.0
  9
$PUCSYDIR
 10
0.0
 20
1.0
 30
0.0
  9
$PUCSORTHOREF
  2

  9
$PUCSORTHOVIEW
 70
     0
  9
$PUCSORGTOP
 10
0.0
 20
0.0
 30
0.0
  9
$PUCSORGBOTTOM
 10
0.0
 20
0.0
 30
0.0
  9
$PUCSORGLEFT
 10
0.0
 20
0.0
 30
0.0
  9
$PUCSORGRIGHT
 10
0.0
 20
0.0
 30
0.0
  9
$PUCSORGFRONT
 10
0.0
 20
0.0
 30
0.0
  9
$PUCSORGBACK
 10
0.0
 20
0.0
 30
0.0
  9
$USERI1
 70
     0
  9
$USERI2
 70
     0
  9
$USERI3
 70
     0
  9
$USERI4
 70
     0
  9
$USERI5
 70
     0
  9
$USERR1
 40
0.0
  9
$USERR2
 40
0.0
  9
$USERR3
 40
0.0
  9
$USERR4
 40
0.0
  9
$USERR5
 40
0.0
  9
$WORLDVIEW
 70
     1
  9
$SHADEDGE
 70
     3
  9
$SHADEDIF
 70
    70
  9
$TILEMODE
 70
     1
  9
$MAXACTVP
 70
    64
  9
$PINSBASE
 10
0.0
 20
0.0
 30
0.0
  9
$PLIMCHECK
 70
     0
  9
$PEXTMIN
 10
0.0
 20
0.0
 30
0.0
  9
$PEXTMAX
 10
0.0
 20
0.0
 30
0.0
  9
$PLIMMIN
 10
0.0
 20
0.0
  9
$PLIMMAX
 10
420.0
 20
297.0
  9
$UNITMODE
 70
     0
  9
$VISRETAIN
 70
     1
  9
$PLINEGEN
 70
     0
  9
$PSLTSCALE
 70
     1
  9
$TREEDEPTH
 70
  3020
  9
$CMLSTYLE
  2
Standard
  9
$CMLJUST
 70
     0
  9
$CMLSCALE
 40
1.0
  9
$PROXYGRAPHICS
 70
     1
  9
$MEASUREMENT
 70
     0
  9
$CELWEIGHT
370
    -1
  9
$ENDCAPS
280
     0
  9
$JOINSTYLE
280
     0
  9
$LWDISPLAY
290
     0
  9
$INSUNITS
 70
     4
  9
$HYPERLINKBASE
  1

  9
$STYLESHEET
  1

  9
$XEDIT
290
     1
  9
$CEPSNTYPE
380
     0
  9
$PSTYLEMODE
290
     1
  9
$FINGERPRINTGUID
  2
{4B189C98-DF64-440C-B0D7-918F305439E4}
  9
$VERSIONGUID
  2
{FAEB1C32-E019-11D5-929B-00C0DF256EC4}
  9
$EXTNAMES
290
     1
  9
$PSVPSCALE
 40
0.0
  9
$OLESTARTUP
290
     0
  9
$SORTENTS
280
   127
  9
$INDEXCTL
280
     0
  9
$HIDETEXT
280
     1
  9
$XCLIPFRAME
280
     2
  9
$HALOGAP
280
     0
  9
$OBSCOLOR
 70
   257
  9
$OBSLTYPE
280
     0
  9
$INTERSECTIONDISPLAY
280
     0
  9
$INTERSECTIONCOLOR
 70
   257
  9
$DIMASSOC
280
     2
  9
$PROJECTNAME
  1

  9
$CAMERADISPLAY
290
     0
  9
$LENSLENGTH
 40
50.0
  9
$CAMERAHEIGHT
 40
0.0
  9
$STEPSPERSEC
 40
2.0
  9
$STEPSIZE
 40
6.0
  9
$3DDWFPREC
 40
2.0
  9
$PSOLWIDTH
 40
0.25
  9
$PSOLHEIGHT
 40
4.0
  9
$LOFTANG1
 40
1.570796326794897
  9
$LOFTANG2
 40
1.570796326794897
  9
$LOFTMAG1
 40
0.0
  9
$LOFTMAG2
 40
0.0
  9
$LOFTPARAM
 70
     7
  9
$LOFTNORMALS
280
     1
  9
$LATITUDE
 40
37.795
  9
$LONGITUDE
 40
-122.394
  9
$NORTHDIRECTION
 40
0.0
  9
$TIMEZONE
 70
 -8000
  9
$LIGHTGLYPHDISPLAY
280
     1
  9
$TILEMODELIGHTSYNCH
280
     1
  9
$CMATERIAL
347
3C
  9
$SOLIDHIST
280
     1
  9
$SHOWHIST
280
     1
  9
$DWFFRAME
280
     2
  9
$DGNFRAME
280
     2
  9
$REALWORLDSCALE
290
     1
  9
$INTERFERECOLOR
 62
   256
  9
$CSHADOW
280
     0
  9
$SHADOWPLANELOCATION
 40
0.0
  0
ENDSEC
  0
SECTION
  2
CLASSES
  0
CLASS
  1
ACDBDICTIONARYWDFLT
  2
AcDbDictionaryWithDefault
  3
ObjectDBX Classes
 90
        0
 91
        4
280
     0
281
     0
  0
CLASS
  1
VISUALSTYLE
  2
AcDbVisualStyle
  3
ObjectDBX Classes
 90
     4095
 91
        4
280
     0
281
     0
  0
CLASS
  1
MATERIAL
  2
AcDbMaterial
  3
ObjectDBX Classes
 90
     1153
 91
        4
280
     0
281
     0
  0
CLASS
  1
SUN
  2
AcDbSun
  3
SCENEOE
 90
     1153
 91
        4
280
     0
281
     0
  0
CLASS
  1
AEC_VARS_DWG_SETUP
  2
AecDbVarsDwgSetup
  3
AecBase60
 90
      129
 91
        3
280
     0
281
     0
  0
CLASS
  1
AEC_DISP_REP_2D_SECTION
  2
AecDbDispRep2dSection
  3
AecBase60
 90
      129
 91
        4
280
     0
281
     0
  0
CLASS
  1
AEC_DISP_PROPS_2D_SECTION
  2
AecDbDispProps2dSection
  3
AecBase60
 90
      129
 91
        4
280
     0
281
     0
  0
CLASS
  1
AEC_DISP_REP_CLIP_VOLUME_MODEL
  2
AecDbDispRepClipVolModel
  3
AecBase60
 90
      129
 91
        6
280
     0
281
     0
  0
CLASS
  1
AEC_DISP_PROPS_CLIP_VOLUME
  2
AecDbDispPropsClipVol
  3
AecBase60
 90
      129
 91
        4
280
     0
281
     0
  0
CLASS
  1
AEC_DISP_REP_CLIP_VOLUME_PLAN
  2
AecDbDispRepClipVolPlan
  3
AecBase60
 90
      129
 91
        4
280
     0
281
     0
  0
CLASS
  1
AEC_DISP_REP_CLIP_VOLUME_RESULT
  2
AecDbDispRepClipVolResult
  3
AecBase60
 90
      129
 91
        6
280
     0
281
     0
  0
CLASS
  1
AEC_DISP_REP_CLIP_VOLUME_RESULT_SUBDIV
  2
AecDbDispRepClipVolResSubDiv
  3
AecBase60
 90
      129
 91
        5
280
     0
281
     0
  0
CLASS
  1
AEC_DISP_PROPS_CLIP_VOLUME_RESULT
  2
AecDbDispPropsClipVolResSubDiv
  3
AecBase60
 90
      129
 91
        4
280
     0
281
     0
  0
CLASS
  1
AEC_DISP_REP_DISPLAYTHEME
  2
AecDbDispRepDisplayTheme
  3
AecBase60
 90
      129
 91
        4
280
     0
281
     0
  0
CLASS
  1
AEC_DISP_PROPS_DISPLAYTHEME
  2
AecDbDispPropsDisplayTheme
  3
AecBase60
 90
      129
 91
        4
280
     0
281
     0
  0
CLASS
  1
AEC_DISP_REP_ENT_REF
  2
AecDbDispRepEntRef
  3
AecBase60
 90
      129
 91
        4
280
     0
281
     0
  0
CLASS
  1
AEC_DISP_PROPS_ENT_REF
  2
AecDbDispPropsEntRef
  3
AecBase60
 90
      129
 91
        4
280
     0
281
     0
  0
CLASS
  1
AEC_DISP_REP_LAYOUT_CURVE
  2
AecDbDispRepLayoutCurve
  3
AecBase60
 90
      129
 91
        4
280
     0
281
     0
  0
CLASS
  1
AEC_DISP_PROPS_LAYOUT_CURVE
  2
AecDbDispPropsLayoutCurve
  3
AecBase60
 90
      129
 91
        4
280
     0
281
     0
  0
CLASS
  1
AEC_DISP_REP_LAYOUT_GRID2D
  2
AecDbDispRepLayoutGrid2d
  3
AecBase60
 90
      129
 91
        6
280
     0
281
     0
  0
CLASS
  1
AEC_DISP_PROPS_LAYOUT_GRID2D
  2
AecDbDispPropsLayoutGrid2d
  3
AecBase60
 90
      129
 91
        5
280
     0
281
     0
  0
CLASS
  1
AEC_DISP_REP_LAYOUT_GRID3D
  2
AecDbDispRepLayoutGrid3d
  3
AecBase60
 90
      129
 91
        4
280
     0
281
     0
  0
CLASS
  1
AEC_DISP_PROPS_LAYOUT_GRID3D
  2
AecDbDispPropsLayoutGrid3d
  3
AecBase60
 90
      129
 91
        4
280
     0
281
     0
  0
CLASS
  1
AEC_DISP_REP_MASKBLOCK_REF
  2
AecDbDispRepMaskBlockRef
  3
AecBase60
 90
      129
 91
        5
280
     0
281
     0
  0
CLASS
  1
AEC_DISP_PROPS_MASKBLOCK
  2
AecDbDispPropsMaskBlock
  3
AecBase60
 90
      129
 91
        4
280
     0
281
     0
  0
CLASS
  1
AEC_DISP_REP_MASKBLOCK_REF_RCP
  2
AecDbDispRepMaskBlockRefRcp
  3
AecArchBase60
 90
      129
 91
        4
280
     0
281
     0
  0
CLASS
  1
AEC_DISP_REP_MASS_ELEM_MODEL
  2
AecDbDispRepMassElemModel
  3
AecBase60
 90
      129
 91
        4
280
     0
281
     0
  0
CLASS
  1
AEC_DISP_PROPS_MASS_ELEM_MODEL
  2
AecDbDispPropsMassElem
  3
AecBase60
 90
      129
 91
        5
280
     0
281
     0
  0
CLASS
  1
AEC_DISP_REP_MASS_ELEM_SCHEM
  2
AecDbDispRepMassElemSchem
  3
AecBase60
 90
      129
 91
        5
280
     0
281
     0
  0
CLASS
  1
AEC_DISPREPAECDBDISPREPMASSELEMPLAN50
  2
AecDbDispRepMassElemPlan50
  3
AecArchDACHBase60
 90
      129
 91
        4
280
     0
281
     0
  0
CLASS
  1
AEC_DISPROPSMASSELEMPLANCOMMON
  2
AecDbDispPropsMassElemPlanCommon
  3
AecArchDACHBase60
 90
      129
 91
        4
280
     0
281
     0
  0
CLASS
  1
AEC_DISPREPAECDBDISPREPMASSELEMPLAN100
  2
AecDbDispRepMassElemPlan100
  3
AecArchDACHBase60
 90
      129
 91
        4
280
     0
281
     0
  0
CLASS
  1
AEC_DISP_REP_MASS_ELEM_RCP
  2
AecDbDispRepMassElemRcp
  3
AecArchBase60
 90
      129
 91
        4
280
     0
281
     0
  0
CLASS
  1
AEC_DISP_REP_MASS_GROUP_MODEL
  2
AecDbDispRepMassGroupModel
  3
AecBase60
 90
      129
 91
        4
280
     0
281
     0
  0
CLASS
  1
AEC_DISP_PROPS_MASS_GROUP
  2
AecDbDispPropsMassGroup
  3
AecBase60
 90
      129
 91
        5
280
     0
281
     0
  0
CLASS
  1
AEC_DISP_REP_MASS_GROUP_PLAN
  2
AecDbDispRepMassGroupPlan
  3
AecBase60
 90
      129
 91
        8
280
     0
281
     0
  0
CLASS
  1
AEC_DISPREPAECDBDISPREPMASSGROUPPLAN50
  2
AecDbDispRepMassGroupPlan50
  3
AecArchDACHBase60
 90
      129
 91
        4
280
     0
281
     0
  0
CLASS
  1
AEC_DISPROPSMASSGROUPPLANCOMMON
  2
AecDbDispPropsMassGroupPlanCommon
  3
AecArchDACHBase60
 90
      129
 91
        4
280
     0
281
     0
  0
CLASS
  1
AEC_DISPREPAECDBDISPREPMASSGROUPPLAN100
  2
AecDbDispRepMassGroupPlan100
  3
AecArchDACHBase60
 90
      129
 91
        4
280
     0
281
     0
  0
CLASS
  1
AEC_DISP_REP_MASS_GROUP_RCP
  2
AecDbDispRepMassGroupRcp
  3
AecArchBase60
 90
      129
 91
        4
280
     0
281
     0
  0
CLASS
  1
AEC_DISP_REP_MVBLOCK_REF
  2
AecDbDispRepMvBlockRef
  3
AecBase60
 90
      129
 91
        8
280
     0
281
     0
  0
CLASS
  1
AEC_DISP_REP_MVBLOCK_REF_MODEL
  2
AecDbDispRepMvBlockRefModel
  3
AecBase60
 90
      129
 91
        4
280
     0
281
     0
  0
CLASS
  1
AEC_AECDBDISPREPMVBLOCKREFPLAN100
  2
AecDbDispRepMvBlockRefPlan100
  3
AecBase60
 90
      129
 91
        4
280
     0
281
     0
  0
CLASS
  1
AEC_AECDBDISPREPMVBLOCKREFPLAN50
  2
AecDbDispRepMvBlockRefPlan50
  3
AecBase60
 90
      129
 91
        4
280
     0
281
     0
  0
CLASS
  1
AEC_DISP_REP_POLYGON_MODEL
  2
AecDbDispRepPolygonModel
  3
AecBase60
 90
      129
 91
        4
280
     0
281
     0
  0
CLASS
  1
AEC_DISP_PROPS_POLYGON_MODEL
  2
AecDbDispPropsPolygonModel
  3
AecBase60
 90
      129
 91
        4
280
     0
281
     0
  0
CLASS
  1
AEC_DISP_REP_POLYGON_TRUECOLOUR
  2
AecDbDispRepPolygonTrueColour
  3
AecBase60
 90
      129
 91
        4
280
     0
281
     0
  0
CLASS
  1
AEC_DISP_PROPS_POLYGON_TRUECOLOUR
  2
AecDbDispPropsPolygonTrueColour
  3
AecBase60
 90
      129
 91
        4
280
     0
281
     0
  0
CLASS
  1
AEC_DISP_REP_SLICE
  2
AecDbDispRepSlice
  3
AecBase60
 90
      129
 91
        4
280
     0
281
     0
  0
CLASS
  1
AEC_DISP_PROPS_SLICE
  2
AecDbDispPropsSlice
  3
AecBase60
 90
      129
 91
        4
280
     0
281
     0
  0
CLASS
  1
AEC_DISP_REP_ANCHOR
  2
AecDbDispRepAnchor
  3
AecBase60
 90
      129
 91
        4
280
     0
281
     0
  0
CLASS
  1
AEC_DISP_REP_ANCHOR_ENT_TO_NODE
  2
AecDbDispRepAnchorEntToNode
  3
AecBase60
 90
      129
 91
        5
280
     0
281
     0
  0
CLASS
  1
AEC_DISP_PROPS_ENT
  2
AecDbDispPropsEnt
  3
AecBase60
 90
      129
 91
        4
280
     0
281
     0
  0
CLASS
  1
AEC_DISP_REP_MATERIAL
  2
AecDbDispRepMaterial
  3
AecBase60
 90
      129
 91
        4
280
     0
281
     0
  0
CLASS
  1
AEC_DISP_PROPS_MATERIAL
  2
AecDbDispPropsMaterial
  3
AecBase60
 90
      129
 91
        4
280
     0
281
     0
  0
CLASS
  1
AEC_DISP_REP_EDITINPLACEPROFILE
  2
AecDbDispRepEditInPlaceProfile
  3
AecBase60
 90
      129
 91
        4
280
     0
281
     0
  0
CLASS
  1
AEC_DISP_PROPS_EDITINPLACEPROFILE_MODEL
  2
AecDbDispPropsEditInPlaceProfile
  3
AecBase60
 90
      129
 91
        4
280
     0
281
     0
  0
CLASS
  1
AEC_VARS_ARCHBASE
  2
AecDbVarsArchBase
  3
AecArchBase60
 90
      129
 91
        3
280
     0
281
     0
  0
CLASS
  1
AEC_DISP_REP_BDG_ELEVLINE_PLAN
  2
AecDbDispRepBdgElevLinePlan
  3
AecArchBase60
 90
      129
 91
        7
280
     0
281
     0
  0
CLASS
  1
AEC_DISP_REP_BDG_ELEVLINE_MODEL
  2
AecDbDispRepBdgElevLineModel
  3
AecArchBase60
 90
      129
 91
        4
280
     0
281
     0
  0
CLASS
  1
AEC_DISP_REP_BDG_ELEVLINE_RCP
  2
AecDbDispRepBdgElevLineRcp
  3
AecArchBase60
 90
      129
 91
        4
280
     0
281
     0
  0
CLASS
  1
AEC_AECDBDISPREPBDGELEVLINEPLAN100
  2
AecDbDispRepBdgElevLinePlan100
  3
AecBase60
 90
      129
 91
        4
280
     0
281
     0
  0
CLASS
  1
AEC_AECDBDISPREPBDGELEVLINEPLAN50
  2
AecDbDispRepBdgElevLinePlan50
  3
AecBase60
 90
      129
 91
        4
280
     0
281
     0
  0
CLASS
  1
AEC_DISP_REP_BDG_SECTIONLINE_MODEL
  2
AecDbDispRepBdgSectionLineModel
  3
AecArchBase60
 90
      129
 91
        4
280
     0
281
     0
  0
CLASS
  1
AEC_DISP_REP_BDG_SECTIONLINE_PLAN
  2
AecDbDispRepBdgSectionLinePlan
  3
AecArchBase60
 90
      129
 91
        7
280
     0
281
     0
  0
CLASS
  1
AEC_DISP_REP_BDG_SECTIONLINE_RCP
  2
AecDbDispRepBdgSectionLineRcp
  3
AecArchBase60
 90
      129
 91
        4
280
     0
281
     0
  0
CLASS
  1
AEC_AECDBDISPREPBDGSECTIONLINEPLAN100
  2
AecDbDispRepBdgSectionLinePlan100
  3
AecBase60
 90
      129
 91
        4
280
     0
281
     0
  0
CLASS
  1
AEC_AECDBDISPREPBDGSECTIONLINEPLAN50
  2
AecDbDispRepBdgSectionLinePlan50
  3
AecBase60
 90
      129
 91
        4
280
     0
281
     0
  0
CLASS
  1
AEC_DISP_REP_BDG_SECTION_SUBDIV
  2
AecDbDispRepBdgSectionSubDiv
  3
AecArchBase60
 90
      129
 91
        4
280
     0
281
     0
  0
CLASS
  1
AEC_DISP_REP_BDG_SECTION_MODEL
  2
AecDbDispRepBdgSectionModel
  3
AecArchBase60
 90
      129
 91
        4
280
     0
281
     0
  0
CLASS
  1
AEC_DISP_REP_CEILING_GRID
  2
AecDbDispRepCeilingGrid
  3
AecArchBase60
 90
      893
 91
        8
280
     0
281
     0
  0
CLASS
  1
AEC_DISP_REP_CEILING_GRID_MODEL
  2
AecDbDispRepCeilingGridModel
  3
AecArchBase60
 90
      129
 91
        4
280
     0
281
     0
  0
CLASS
  1
AEC_DISP_REP_CEILING_GRID_RCP
  2
AecDbDispRepCeilingGridRcp
  3
AecArchBase60
 90
      129
 91
        4
280
     0
281
     0
  0
CLASS
  1
AEC_AECDBDISPREPCEILINGGRIDPLAN100
  2
AecDbDispRepCeilingGridPlan100
  3
AecBase60
 90
      129
 91
        4
280
     0
281
     0
  0
CLASS
  1
AEC_AECDBDISPREPCEILINGGRIDPLAN50
  2
AecDbDispRepCeilingGridPlan50
  3
AecBase60
 90
      129
 91
        4
280
     0
281
     0
  0
CLASS
  1
AEC_DISP_REP_CURTAIN_WALL_LAYOUT_MODEL
  2
AecDbDispRepCurtainWallLayoutModel
  3
AecArchBase60
 90
      129
 91
        4
280
     0
281
     0
  0
CLASS
  1
AEC_DISP_PROPS_GRID_ASSEMBLY_MODEL
  2
AecDbDispPropsGridAssemblyModel
  3
AecArchBase60
 90
      129
 91
        4
280
     0
281
     0
  0
CLASS
  1
AEC_DISP_REP_CURTAIN_WALL_LAYOUT_PLAN
  2
AecDbDispRepCurtainWallLayoutPlan
  3
AecArchBase60
 90
      129
 91
        6
280
     0
281
     0
  0
CLASS
  1
AEC_DISP_PROPS_GRID_ASSEMBLY_PLAN
  2
AecDbDispPropsGridAssemblyPlan
  3
AecArchBase60
 90
      129
 91
        4
280
     0
281
     0
  0
CLASS
  1
AEC_AECDBDISPREPCURTAINWALLLAYOUTPLAN100
  2
AecDbDispRepCurtainWallLayoutPlan100
  3
AecBase60
 90
      129
 91
        4
280
     0
281
     0
  0
CLASS
  1
AEC_AECDBDISPREPCURTAINWALLLAYOUTPLAN50
  2
AecDbDispRepCurtainWallLayoutPlan50
  3
AecBase60
 90
      129
 91
        4
280
     0
281
     0
  0
CLASS
  1
AEC_DISP_REP_CURTAIN_WALL_UNIT_MODEL
  2
AecDbDispRepCurtainWallUnitModel
  3
AecArchBase60
 90
      129
 91
        4
280
     0
281
     0
  0
CLASS
  1
AEC_DISP_REP_CURTAIN_WALL_UNIT_PLAN
  2
AecDbDispRepCurtainWallUnitPlan
  3
AecArchBase60
 90
      129
 91
        6
280
     0
281
     0
  0
CLASS
  1
AEC_AECDBDISPREPCURTAINWALLUNITPLAN100
  2
AecDbDispRepCurtainWallUnitPlan100
  3
AecBase60
 90
      129
 91
        4
280
     0
281
     0
  0
CLASS
  1
AEC_AECDBDISPREPCURTAINWALLUNITPLAN50
  2
AecDbDispRepCurtainWallUnitPlan50
  3
AecBase60
 90
      129
 91
        4
280
     0
281
     0
  0
CLASS
  1
AEC_DISP_REP_DOOR_MODEL
  2
AecDbDispRepDoorModel
  3
AecArchBase60
 90
      129
 91
        5
280
     0
281
     0
  0
CLASS
  1
AEC_DISP_PROPS_DOOR
  2
AecDbDispPropsDoor
  3
AecArchBase60
 90
      129
 91
        5
280
     0
281
     0
  0
CLASS
  1
AEC_DISP_REP_DOOR_ELEV
  2
AecDbDispRepDoorElev
  3
AecArchBase60
 90
      129
 91
        4
280
     0
281
     0
  0
CLASS
  1
AEC_DISP_REP_DOOR_PLAN
  2
AecDbDispRepDoorPlan
  3
AecArchBase60
 90
      129
 91
        8
280
     0
281
     0
  0
CLASS
  1
AEC_DISP_REP_DOOR_NOMINAL
  2
AecDbDispRepDoorNominal
  3
AecArchBase60
 90
      129
 91
        4
280
     0
281
     0
  0
CLASS
  1
AEC_DISP_PROPS_DOOR_NOMINAL
  2
AecDbDispPropsDoorNominal
  3
AecArchBase60
 90
      129
 91
        4
280
     0
281
     0
  0
CLASS
  1
AEC_DISP_REP_DOOR_THRESHOLD_PLAN
  2
AecDbDispRepDoorThresholdPlan
  3
AecArchBase60
 90
      129
 91
        4
280
     0
281
     0
  0
CLASS
  1
AEC_DISP_PROPS_DOOR_THRESHOLD_PLAN
  2
AecDbDispPropsDoorThresholdPlan
  3
AecArchBase60
 90
      129
 91
        4
280
     0
281
     0
  0
CLASS
  1
AEC_DISP_REP_DOOR_PLAN_50
  2
AecDbDispRepDoorPlan50
  3
AecArchDACHBase60
 90
      129
 91
        4
280
     0
281
     0
  0
CLASS
  1
AEC_DISP_PROPS_DOOR_PLAN_50
  2
AecDbDispPropsDoorPlan50
  3
AecArchDACHBase60
 90
      129
 91
        4
280
     0
281
     0
  0
CLASS
  1
AEC_DISP_REP_DOOR_PLAN_HEKTO
  2
AecDbDispRepDoorPlanHekto
  3
AecArchDACHBase60
 90
      129
 91
        4
280
     0
281
     0
  0
CLASS
  1
AEC_DISP_PROPS_DOOR_PLAN_100
  2
AecDbDispPropsDoorPlan100
  3
AecArchDACHBase60
 90
      129
 91
        4
280
     0
281
     0
  0
CLASS
  1
AEC_DISP_REP_DOOR_RCP
  2
AecDbDispRepDoorRcp
  3
AecArchBase60
 90
      129
 91
        4
280
     0
281
     0
  0
CLASS
  1
AEC_DISP_REP_DOOR_THRESHOLD_SYMBOL_PLAN
  2
AecDbDispRepDoorThresholdSymbolPlan
  3
AecArchDACHBase60
 90
      129
 91
        4
280
     0
281
     0
  0
CLASS
  1
AEC_DISP_PROPS_DOOR_THRESHOLD_SYMBOL_PLAN
  2
AecDbDispPropsDoorThresholdSymbolPlan
  3
AecArchDACHBase60
 90
      129
 91
        4
280
     0
281
     0
  0
CLASS
  1
AEC_DISP_REP_OPENING
  2
AecDbDispRepOpening
  3
AecArchBase60
 90
      129
 91
        6
280
     0
281
     0
  0
CLASS
  1
AEC_DISP_PROPS_OPENING
  2
AecDbDispPropsOpening
  3
AecArchBase60
 90
      129
 91
        5
280
     0
281
     0
  0
CLASS
  1
AEC_DISP_REP_OPENING_MODEL
  2
AecDbDispRepOpeningModel
  3
AecArchBase60
 90
      129
 91
        4
280
     0
281
     0
  0
CLASS
  1
AEC_DISPREPAECDBDISPREPOPENINGPLAN100
  2
AecDbDispRepOpeningPlan100
  3
AecArchDACHBase60
 90
      129
 91
        4
280
     0
281
     0
  0
CLASS
  1
AEC_DISPROPSOPENINGPLANCOMMONHATCHED
  2
AecDbDispPropsOpeningPlanCommonHatched
  3
AecArchDACHBase60
 90
      129
 91
        4
280
     0
281
     0
  0
CLASS
  1
AEC_DISPREPAECDBDISPREPOPENINGPLAN50
  2
AecDbDispRepOpeningPlan50
  3
AecArchDACHBase60
 90
      129
 91
        4
280
     0
281
     0
  0
CLASS
  1
AEC_DISPREPAECDBDISPREPOPENINGPLANREFLECTED
  2
AecDbDispRepOpeningPlanReflected
  3
AecArchDACHBase60
 90
      129
 91
        4
280
     0
281
     0
  0
CLASS
  1
AEC_DISPROPSOPENINGPLANCOMMON
  2
AecDbDispPropsOpeningPlanCommon
  3
AecArchDACHBase60
 90
      129
 91
        5
280
     0
281
     0
  0
CLASS
  1
AEC_DISPREPAECDBDISPREPOPENINGSILLPLAN
  2
AecDbDispRepOpeningSillPlan
  3
AecArchDACHBase60
 90
      129
 91
        4
280
     0
281
     0
  0
CLASS
  1
AEC_DISPROPSOPENINGSILLPLAN
  2
AecDbDispPropsOpeningSillPlan
  3
AecArchDACHBase60
 90
      129
 91
        4
280
     0
281
     0
  0
CLASS
  1
AEC_DISP_REP_RAILING_MODEL
  2
AecDbDispRepRailingModel
  3
AecArchBase60
 90
      129
 91
        4
280
     0
281
     0
  0
CLASS
  1
AEC_DISP_PROPS_RAILING_MODEL
  2
AecDbDispPropsRailingModel
  3
AecArchBase60
 90
      129
 91
        4
280
     0
281
     0
  0
CLASS
  1
AEC_DISP_REP_RAILING_PLAN
  2
AecDbDispRepRailingPlan
  3
AecArchBase60
 90
      129
 91
        5
280
     0
281
     0
  0
CLASS
  1
AEC_DISP_PROPS_RAILING_PLAN
  2
AecDbDispPropsRailingPlan
  3
AecArchBase60
 90
      129
 91
        5
280
     0
281
     0
  0
CLASS
  1
AEC_DISP_REP_RAILING_PLAN_100
  2
AecDbDispRepRailingPlan100
  3
AecArchDACHBase60
 90
      129
 91
        4
280
     0
281
     0
  0
CLASS
  1
AEC_DISP_ROPS_RAILING_PLAN_100
  2
AecDbDispPropsRailingPlan100
  3
AecArchDACHBase60
 90
      129
 91
        4
280
     0
281
     0
  0
CLASS
  1
AEC_DISP_REP_RAILING_PLAN_50
  2
AecDbDispRepRailingPlan50
  3
AecArchDACHBase60
 90
      129
 91
        4
280
     0
281
     0
  0
CLASS
  1
AEC_DISP_ROPS_RAILING_PLAN_50
  2
AecDbDispPropsRailingPlan50
  3
AecArchDACHBase60
 90
      129
 91
        4
280
     0
281
     0
  0
CLASS
  1
AEC_DISP_REP_ROOF_MODEL
  2
AecDbDispRepRoofModel
  3
AecArchBase60
 90
      129
 91
        4
280
     0
281
     0
  0
CLASS
  1
AEC_DISP_PROPS_ROOF
  2
AecDbDispPropsRoof
  3
AecArchBase60
 90
      129
 91
        4
280
     0
281
     0
  0
CLASS
  1
AEC_DISP_REP_ROOF_PLAN
  2
AecDbDispRepRoofPlan
  3
AecArchBase60
 90
      129
 91
        8
280
     0
281
     0
  0
CLASS
  1
AEC_DISP_REP_ROOF_RCP
  2
AecDbDispRepRoofRcp
  3
AecArchBase60
 90
      129
 91
        4
280
     0
281
     0
  0
CLASS
  1
AEC_AECDBDISPREPROOFPLAN100
  2
AecDbDispRepRoofPlan100
  3
AecBase60
 90
      129
 91
        4
280
     0
281
     0
  0
CLASS
  1
AEC_AECDBDISPREPROOFPLAN50
  2
AecDbDispRepRoofPlan50
  3
AecBase60
 90
      129
 91
        4
280
     0
281
     0
  0
CLASS
  1
AEC_DISP_REP_ROOFSLAB_MODEL
  2
AecDbDispRepRoofSlabModel
  3
AecArchBase60
 90
      129
 91
        4
280
     0
281
     0
  0
CLASS
  1
AEC_DISP_PROPS_ROOFSLAB
  2
AecDbDispPropsRoofSlab
  3
AecArchBase60
 90
      129
 91
        4
280
     0
281
     0
  0
CLASS
  1
AEC_DISP_REP_ROOFSLAB_PLAN
  2
AecDbDispRepRoofSlabPlan
  3
AecArchBase60
 90
      129
 91
        6
280
     0
281
     0
  0
CLASS
  1
AEC_DISP_PROPS_ROOFSLAB_PLAN
  2
AecDbDispPropsRoofSlabPlan
  3
AecArchBase60
 90
      129
 91
        4
280
     0
281
     0
  0
CLASS
  1
AEC_AECDBDISPREPROOFSLABPLAN100
  2
AecDbDispRepRoofSlabPlan100
  3
AecBase60
 90
      129
 91
        4
280
     0
281
     0
  0
CLASS
  1
AEC_AECDBDISPREPROOFSLABPLAN50
  2
AecDbDispRepRoofSlabPlan50
  3
AecBase60
 90
      129
 91
        4
280
     0
281
     0
  0
CLASS
  1
AEC_DISP_REP_SLAB_MODEL
  2
AecDbDispRepSlabModel
  3
AecArchBase60
 90
      129
 91
        5
280
     0
281
     0
  0
CLASS
  1
AEC_DISP_PROPS_SLAB
  2
AecDbDispPropsSlab
  3
AecArchBase60
 90
      129
 91
        6
280
     0
281
     0
  0
CLASS
  1
AEC_DISP_REP_SLAB_PLAN
  2
AecDbDispRepSlabPlan
  3
AecArchBase60
 90
      129
 91
        7
280
     0
281
     0
  0
CLASS
  1
AEC_DISP_PROPS_SLAB_PLAN
  2
AecDbDispPropsSlabPlan
  3
AecArchBase60
 90
      129
 91
        5
280
     0
281
     0
  0
CLASS
  1
AEC_AECDBDISPREPSLABPLAN100
  2
AecDbDispRepSlabPlan100
  3
AecBase60
 90
      129
 91
        4
280
     0
281
     0
  0
CLASS
  1
AEC_AECDBDISPREPSLABPLAN50
  2
AecDbDispRepSlabPlan50
  3
AecBase60
 90
      129
 91
        4
280
     0
281
     0
  0
CLASS
  1
AEC_DISP_REP_SPACE_MODEL
  2
AecDbDispRepSpaceModel
  3
AecArchBase60
 90
      129
 91
        4
280
     0
281
     0
  0
CLASS
  1
AEC_DISP_PROPS_SPACE_MODEL
  2
AecDbDispPropsSpaceModel
  3
AecArchBase60
 90
      129
 91
        4
280
     0
281
     0
  0
CLASS
  1
AEC_DISP_REP_SPACE_PLAN
  2
AecDbDispRepSpacePlan
  3
AecArchBase60
 90
      129
 91
        7
280
     0
281
     0
  0
CLASS
  1
AEC_DISP_PROPS_SPACE_PLAN
  2
AecDbDispPropsSpacePlan
  3
AecArchBase60
 90
      129
 91
        4
280
     0
281
     0
  0
CLASS
  1
AEC_DISP_REP_SPACE_RCP
  2
AecDbDispRepSpaceRcp
  3
AecArchBase60
 90
      129
 91
        4
280
     0
281
     0
  0
CLASS
  1
AEC_DISP_REP_SPACE_VOLUME
  2
AecDbDispRepSpaceVolume
  3
AecArchBase60
 90
      129
 91
        4
280
     0
281
     0
  0
CLASS
  1
AEC_DISP_REP_SPACE_DECOMPOSED
  2
AecDbDispRepSpaceDecomposed
  3
AecArchBase60
 90
      129
 91
        4
280
     0
281
     0
  0
CLASS
  1
AEC_DISP_PROPS_SPACE_DECOMPOSED
  2
AecDbDispPropsSpaceDecomposed
  3
AecArchBase60
 90
      129
 91
        4
280
     0
281
     0
  0
CLASS
  1
AEC_AECDBDISPREPSPACEPLAN100
  2
AecDbDispRepSpacePlan100
  3
AecBase60
 90
      129
 91
        4
280
     0
281
     0
  0
CLASS
  1
AEC_AECDBDISPREPSPACEPLAN50
  2
AecDbDispRepSpacePlan50
  3
AecBase60
 90
      129
 91
        4
280
     0
281
     0
  0
CLASS
  1
AEC_DISP_REP_STAIR_MODEL
  2
AecDbDispRepStairModel
  3
AecArchBase60
 90
      129
 91
        4
280
     0
281
     0
  0
CLASS
  1
AEC_DISP_PROPS_STAIR_MODEL
  2
AecDbDispPropsStairModel
  3
AecArchBase60
 90
      129
 91
        4
280
     0
281
     0
  0
CLASS
  1
AEC_DISP_REP_STAIR_PLAN
  2
AecDbDispRepStairPlan
  3
AecArchBase60
 90
      129
 91
        7
280
     0
281
     0
  0
CLASS
  1
AEC_DISP_PROPS_STAIR_PLAN
  2
AecDbDispPropsStairPlan
  3
AecArchBase60
 90
      129
 91
        6
280
     0
281
     0
  0
CLASS
  1
AEC_DISP_REP_STAIR_RCP
  2
AecDbDispRepStairRcp
  3
AecArchBase60
 90
      129
 91
        4
280
     0
281
     0
  0
CLASS
  1
AEC_DISP_REP_STAIR_PLAN_100
  2
AecDbDispRepStairPlan100
  3
AecArchDACHBase60
 90
      129
 91
        4
280
     0
281
     0
  0
CLASS
  1
AEC_DISP_ROPS_STAIR_PLAN_100
  2
AecDbDispPropsStairPlan100
  3
AecArchDACHBase60
 90
      129
 91
        4
280
     0
281
     0
  0
CLASS
  1
AEC_DISP_REP_STAIR_PLAN_50
  2
AecDbDispRepStairPlan50
  3
AecArchDACHBase60
 90
      129
 91
        4
280
     0
281
     0
  0
CLASS
  1
AEC_DISP_ROPS_STAIR_PLAN_50
  2
AecDbDispPropsStairPlan50
  3
AecArchDACHBase60
 90
      129
 91
        4
280
     0
281
     0
  0
CLASS
  1
AEC_DISP_REP_STAIR_PLAN_OVERLAPPING
  2
AecDbDispRepStairPlanOverlapping
  3
AecArchBase60
 90
      129
 91
        4
280
     0
281
     0
  0
CLASS
  1
AEC_DISP_PROPS_STAIR_PLAN_OVERLAPPING
  2
AecDbDispPropsStairPlanOverlapping
  3
AecArchBase60
 90
      129
 91
        4
280
     0
281
     0
  0
CLASS
  1
AEC_DISP_REP_WALL_GRAPH
  2
AecDbDispRepWallGraph
  3
AecArchBase60
 90
      129
 91
        4
280
     0
281
     0
  0
CLASS
  1
AEC_DISP_PROPS_WALL_GRAPH
  2
AecDbDispPropsWallGraph
  3
AecArchBase60
 90
      129
 91
        4
280
     0
281
     0
  0
CLASS
  1
AEC_DISP_REP_WALL_MODEL
  2
AecDbDispRepWallModel
  3
AecArchBase60
 90
      129
 91
        4
280
     0
281
     0
  0
CLASS
  1
AEC_DISP_PROPS_WALL_MODEL
  2
AecDbDispPropsWallModel
  3
AecArchBase60
 90
      129
 91
        4
280
     0
281
     0
  0
CLASS
  1
AEC_DISP_REP_WALL_PLAN
  2
AecDbDispRepWallPlan
  3
AecArchBase60
 90
      129
 91
        7
280
     0
281
     0
  0
CLASS
  1
AEC_DISP_PROPS_WALL_PLAN
  2
AecDbDispPropsWallPlan
  3
AecArchBase60
 90
      129
 91
        4
280
     0
281
     0
  0
CLASS
  1
AEC_DISP_REP_WALL_RCP
  2
AecDbDispRepWallRcp
  3
AecArchBase60
 90
      129
 91
        4
280
     0
281
     0
  0
CLASS
  1
AEC_DISP_REP_WALL_SCHEM
  2
AecDbDispRepWallSchem
  3
AecArchBase60
 90
      129
 91
        4
280
     0
281
     0
  0
CLASS
  1
AEC_DISP_PROPS_WALL_SCHEM
  2
AecDbDispPropsWallSchem
  3
AecArchBase60
 90
      129
 91
        4
280
     0
281
     0
  0
CLASS
  1
AEC_AECDBDISPREPWALLPLAN100
  2
AecDbDispRepWallPlan100
  3
AecBase60
 90
      129
 91
        4
280
     0
281
     0
  0
CLASS
  1
AEC_AECDBDISPREPWALLPLAN50
  2
AecDbDispRepWallPlan50
  3
AecBase60
 90
      129
 91
        4
280
     0
281
     0
  0
CLASS
  1
AEC_DISP_REP_WINDOW_MODEL
  2
AecDbDispRepWindowModel
  3
AecArchBase60
 90
      129
 91
        5
280
     0
281
     0
  0
CLASS
  1
AEC_DISP_PROPS_WINDOW
  2
AecDbDispPropsWindow
  3
AecArchBase60
 90
      129
 91
        6
280
     0
281
     0
  0
CLASS
  1
AEC_DISP_REP_WINDOW_ELEV
  2
AecDbDispRepWindowElev
  3
AecArchBase60
 90
      129
 91
        4
280
     0
281
     0
  0
CLASS
  1
AEC_DISP_REP_WINDOW_PLAN
  2
AecDbDispRepWindowPlan
  3
AecArchBase60
 90
      129
 91
        8
280
     0
281
     0
  0
CLASS
  1
AEC_DISP_REP_WINDOW_NOMINAL
  2
AecDbDispRepWindowNominal
  3
AecArchBase60
 90
      129
 91
        4
280
     0
281
     0
  0
CLASS
  1
AEC_DISP_PROPS_WINDOW_NOMINAL
  2
AecDbDispPropsWindowNominal
  3
AecArchBase60
 90
      129
 91
        4
280
     0
281
     0
  0
CLASS
  1
AEC_DISP_REP_WINDOW_RCP
  2
AecDbDispRepWindowRcp
  3
AecArchBase60
 90
      129
 91
        4
280
     0
281
     0
  0
CLASS
  1
AEC_DISP_REP_WINDOW_SILL_PLAN
  2
AecDbDispRepWindowSillPlan
  3
AecArchBase60
 90
      129
 91
        4
280
     0
281
     0
  0
CLASS
  1
AEC_DISP_PROPS_WINDOW_SILL_PLAN
  2
AecDbDispPropsWindowSillPlan
  3
AecArchBase60
 90
      129
 91
        4
280
     0
281
     0
  0
CLASS
  1
AEC_DISP_REP_WINDOW_PLAN_100
  2
AecDbDispRepWindowPlan100
  3
AecArchDACHBase60
 90
      129
 91
        4
280
     0
281
     0
  0
CLASS
  1
AEC_DISP_PROPS_WINDOW_PLAN_100
  2
AecDbDispPropsWindowPlan100
  3
AecArchDACHBase60
 90
      129
 91
        4
280
     0
281
     0
  0
CLASS
  1
AEC_DISP_REP_WINDOW_PLAN_50
  2
AecDbDispRepWindowPlan50
  3
AecArchDACHBase60
 90
      129
 91
        4
280
     0
281
     0
  0
CLASS
  1
AEC_DISP_PROPS_WINDOW_PLAN_50
  2
AecDbDispPropsWindowPlan50
  3
AecArchDACHBase60
 90
      129
 91
        4
280
     0
281
     0
  0
CLASS
  1
AEC_DISP_REP_WINDOW_ASSEMBLY_MODEL
  2
AecDbDispRepWindowAssemblyModel
  3
AecArchBase60
 90
      129
 91
        4
280
     0
281
     0
  0
CLASS
  1
AEC_DISP_REP_WINDOW_ASSEMBLY_PLAN
  2
AecDbDispRepWindowAssemblyPlan
  3
AecArchBase60
 90
      129
 91
        6
280
     0
281
     0
  0
CLASS
  1
AEC_DISP_REP_WINDOWASSEMBLY_SILL_PLAN
  2
AecDbDispRepWindowAssemblySillPlan
  3
AecArchBase60
 90
      129
 91
        4
280
     0
281
     0
  0
CLASS
  1
AEC_DISP_PROPS_WINDOW_ASSEMBLY_SILL_PLAN
  2
AecDbDispPropsWindowAssemblySillPlan
  3
AecArchBase60
 90
      129
 91
        4
280
     0
281
     0
  0
CLASS
  1
AEC_AECDBDISPREPWINDOWASSEMBLYPLAN100
  2
AecDbDispRepWindowAssemblyPlan100
  3
AecBase60
 90
      129
 91
        4
280
     0
281
     0
  0
CLASS
  1
AEC_AECDBDISPREPWINDOWASSEMBLYPLAN50
  2
AecDbDispRepWindowAssemblyPlan50
  3
AecBase60
 90
      129
 91
        4
280
     0
281
     0
  0
CLASS
  1
AEC_DB_DISP_REP_DIM_GROUP_PLAN
  2
AecDbDispRepDimGroupPlan
  3
AecArchDACHBase60
 90
      129
 91
        3
280
     0
281
     0
  0
CLASS
  1
AEC_DISP_PROPS_DIM
  2
AecDbDispPropsDimGroup
  3
AecArchDACHBase60
 90
      129
 91
        4
280
     0
281
     0
  0
CLASS
  1
AEC_DB_DISP_REP_DIM_GROUP_PLAN100
  2
AecDbDispRepDimGroupPlan100
  3
AecArchDACHBase60
 90
      129
 91
        4
280
     0
281
     0
  0
CLASS
  1
AEC_DB_DISP_REP_DIM_GROUP_PLAN50
  2
AecDbDispRepDimGroupPlan50
  3
AecArchDACHBase60
 90
      129
 91
        4
280
     0
281
     0
  0
CLASS
  1
AEC_DISP_REP_SCHEDULE_TABLE
  2
AecDbDispRepScheduleTable
  3
AecSchedule50
 90
      129
 91
        3
280
     0
281
     0
  0
CLASS
  1
AEC_DISP_PROPS_SCHEDULE_TABLE
  2
AecDbDispPropsScheduleTable
  3
AecSchedule50
 90
      129
 91
        4
280
     0
281
     0
  0
CLASS
  1
AEC_DISP_REP_ANCHOR_TAG_TO_ENT
  2
AecDbDispRepAnchorTagToEnt
  3
AecScheduleData60
 90
      129
 91
        5
280
     0
281
     0
  0
CLASS
  1
AEC_DISP_REP_ANCHOR_EXT_TAG_TO_ENT
  2
AecDbDispRepAnchorExtendedTagToEnt
  3
AecScheduleData60
 90
      129
 91
        4
280
     0
281
     0
  0
CLASS
  1
AEC_DISP_REP_SET
  2
AecDbDispRepSet
  3
AecBase60
 90
      129
 91
        4
280
     0
281
     0
  0
CLASS
  1
AECS_DISP_REP_MEMBER_MODEL_DESIGN
  2
AecsDbDispRepMemberModelDesign
  3
AecStructureBase60
 90
      129
 91
        4
280
     0
281
     0
  0
CLASS
  1
AECS_DISP_PROPS_MEMBER
  2
AecsDbDispPropsMember
  3
AecStructureBase60
 90
      129
 91
        6
280
     0
281
     0
  0
CLASS
  1
AECS_DISP_REP_MEMBER_PLAN_DESIGN
  2
AecsDbDispRepMemberPlanDesign
  3
AecStructureBase60
 90
      129
 91
        4
280
     0
281
     0
  0
CLASS
  1
AECS_DISP_PROPS_MEMBER_PLAN
  2
AecsDbDispPropsMemberPlan
  3
AecStructureBase60
 90
      129
 91
        5
280
     0
281
     0
  0
CLASS
  1
AEC_DISP_REP_CONFIG
  2
AecDbDispRepConfig
  3
AecBase60
 90
      129
 91
        4
280
     0
281
     0
  0
CLASS
  1
MLEADERSTYLE
  2
AcDbMLeaderStyle
  3
ACDB_MLEADERSTYLE_CLASS
 90
     4095
 91
        4
280
     0
281
     0
  0
CLASS
  1
GEODATA
  2
AcDbGeoData
  3
ObjectDBX Classes
 90
     4095
 91
        4
280
     0
281
     0
  0
CLASS
  1
AEC_WALL_STYLE
  2
AecDbWallStyle
  3
AecArchBase60
 90
      129
 91
        4
280
     0
281
     0
  0
CLASS
  1
AEC_CLEANUP_GROUP_DEF
  2
AecDbCleanupGroupDef
  3
AecArchBase60
 90
      129
 91
        4
280
     0
281
     0
  0
CLASS
  1
AEC_ENDCAP_STYLE
  2
AecDbEndcapStyle
  3
AecArchBase60
 90
      129
 91
        4
280
     0
281
     0
  0
CLASS
  1
AEC_FRAME_DEF
  2
AecDbOpeningEndcapStyle
  3
AecArchBase60
 90
      129
 91
        4
280
     0
281
     0
  0
CLASS
  1
AEC_MATERIAL_DEF
  2
AecDbMaterialDef
  3
AecBase60
 90
      129
 91
        4
280
     0
281
     0
  0
CLASS
  1
TABLESTYLE
  2
AcDbTableStyle
  3
ObjectDBX Classes
 90
     4095
 91
        4
280
     0
281
     0
  0
CLASS
  1
SCALE
  2
AcDbScale
  3
ObjectDBX Classes
 90
     1153
 91
        4
280
     0
281
     0
  0
CLASS
  1
RASTERVARIABLES
  2
AcDbRasterVariables
  3
ISM
 90
        0
 91
        4
280
     0
281
     0
  0
CLASS
  1
DICTIONARYVAR
  2
AcDbDictionaryVar
  3
ObjectDBX Classes
 90
        0
 91
        4
280
     0
281
     0
  0
CLASS
  1
CELLSTYLEMAP
  2
AcDbCellStyleMap
  3
ObjectDBX Classes
 90
     1152
 91
        4
280
     0
281
     0
  0
ENDSEC
  0
SECTION
  2
TABLES
  0
TABLE
  2
VPORT
  5
8
330
0
100
AcDbSymbolTable
 70
     1
  0
VPORT
  5
29
330
8
100
AcDbSymbolTableRecord
100
AcDbViewportTableRecord
  2
*Active
 70
     0
 10
0.0
 20
0.0
 11
1.0
 21
1.0
 12
-417.7250007555122
 22
712.3545079189353
 13
0.0
 23
0.0
 14
10.0
 24
10.0
 15
10.0
 25
10.0
 16
0.0
 26
0.0
 36
1.0
 17
580953.1493921955
 27
4179458.240842609
 37
-96.47901739837187
 40
297.9135224857764
 41
1.958217270194986
 42
50.0
 43
0.0
 44
0.0
 50
0.0
 51
0.0
 71
    16
 72
   100
 73
     1
 74
     3
 75
     0
 76
     0
 77
     0
 78
     0
281
     0
 65
     1
110
0.0
120
0.0
130
0.0
111
1.0
121
0.0
131
0.0
112
0.0
122
1.0
132
0.0
 79
     1
146
0.0
348
2F
 60
     3
 61
     5
292
     1
282
     1
141
0.0
142
0.0
 63
   250
361
3F
  0
ENDTAB
  0
TABLE
  2
LTYPE
  5
5
330
0
100
AcDbSymbolTable
 70
    13
  0
LTYPE
  5
14
330
5
100
AcDbSymbolTableRecord
100
AcDbLinetypeTableRecord
  2
ByBlock
 70
     0
  3

 72
    65
 73
     0
 40
0.0
  0
LTYPE
  5
15
330
5
100
AcDbSymbolTableRecord
100
AcDbLinetypeTableRecord
  2
ByLayer
 70
     0
  3

 72
    65
 73
     0
 40
0.0
  0
LTYPE
  5
16
330
5
100
AcDbSymbolTableRecord
100
AcDbLinetypeTableRecord
  2
Continuous
 70
     0
  3
Solid line
 72
    65
 73
     0
 40
0.0
  0
LTYPE
  5
155
330
5
100
AcDbSymbolTableRecord
100
AcDbLinetypeTableRecord
  2
BORDER
 70
     0
  3
BORDER
 72
    65
 73
     6
 40
1.75
 49
0.5
 74
     0
 49
-0.25
 74
     0
 49
0.5
 74
     0
 49
-0.25
 74
     0
 49
0.0
 74
     0
 49
-0.25
 74
     0
  0
LTYPE
  5
156
330
5
100
AcDbSymbolTableRecord
100
AcDbLinetypeTableRecord
  2
CENTER
 70
     0
  3
CENTER
 72
    65
 73
     4
 40
2.0
 49
1.25
 74
     0
 49
-0.25
 74
     0
 49
0.25
 74
     0
 49
-0.25
 74
     0
  0
LTYPE
  5
157
330
5
100
AcDbSymbolTableRecord
100
AcDbLinetypeTableRecord
  2
DASHDOT
 70
     0
  3
DASHDOT
 72
    65
 73
     4
 40
1.0
 49
0.5
 74
     0
 49
-0.25
 74
     0
 49
0.0
 74
     0
 49
-0.25
 74
     0
  0
LTYPE
  5
158
330
5
100
AcDbSymbolTableRecord
100
AcDbLinetypeTableRecord
  2
DASHED
 70
     0
  3
DASHED
 72
    65
 73
     2
 40
0.75
 49
0.5
 74
     0
 49
-0.25
 74
     0
  0
LTYPE
  5
159
330
5
100
AcDbSymbolTableRecord
100
AcDbLinetypeTableRecord
  2
DIVIDE
 70
     0
  3
DIVIDE
 72
    65
 73
     6
 40
1.25
 49
0.5
 74
     0
 49
-0.25
 74
     0
 49
0.0
 74
     0
 49
-0.25
 74
     0
 49
0.0
 74
     0
 49
-0.25
 74
     0
  0
LTYPE
  5
15A
330
5
100
AcDbSymbolTableRecord
100
AcDbLinetypeTableRecord
  2
DOT
 70
     0
  3
DOT
 72
    65
 73
     2
 40
0.25
 49
0.0
 74
     0
 49
-0.25
 74
     0
  0
LTYPE
  5
15B
330
5
100
AcDbSymbolTableRecord
100
AcDbLinetypeTableRecord
  2
HIDDEN
 70
     0
  3
HIDDEN
 72
    65
 73
     2
 40
0.375
 49
0.25
 74
     0
 49
-0.125
 74
     0
  0
LTYPE
  5
15C
330
5
100
AcDbSymbolTableRecord
100
AcDbLinetypeTableRecord
  2
PHANTOM
 70
     0
  3
PHANTOM
 72
    65
 73
     6
 40
2.5
 49
1.25
 74
     0
 49
-0.25
 74
     0
 49
0.25
 74
     0
 49
-0.25
 74
     0
 49
0.25
 74
     0
 49
-0.25
 74
     0
  0
LTYPE
  5
15D
330
5
100
AcDbSymbolTableRecord
100
AcDbLinetypeTableRecord
  2
$INVISIBLE
 70
     0
  3
$INVISIBLE
 72
    65
 73
     2
 40
200.0
 49
-100.0
 74
     0
 49
-100.0
 74
     0
  0
LTYPE
  5
15E
330
5
100
AcDbSymbolTableRecord
100
AcDbLinetypeTableRecord
  2
$CONSTRUCTION
 70
     0
  3
$CONSTRUCTION
 72
    65
 73
     4
 40
0.3
 49
0.2
 74
     0
 49
-0.05
 74
     0
 49
0.0
 74
     0
 49
-0.05
 74
     0
  0
LTYPE
  5
15F
330
5
100
AcDbSymbolTableRecord
100
AcDbLinetypeTableRecord
  2
$AUXILIARY
 70
     0
  3
$AUXILIARY
 72
    65
 73
     2
 40
0.1
 49
0.05
 74
     0
 49
-0.05
 74
     0
  0
LTYPE
  5
160
330
5
100
AcDbSymbolTableRecord
100
AcDbLinetypeTableRecord
  2
$SNAPEXT
 70
     0
  3
$SNAPEXT
 72
    65
 73
     2
 40
0.04
 49
0.02
 74
     0
 49
-0.02
 74
     0
  0
ENDTAB
  0
TABLE
  2
LAYER
  5
2
102
{ACAD_XDICTIONARY
360
3EA
102
}
330
0
100
AcDbSymbolTable
 70
    19
  0
LAYER
  5
10
330
2
100
AcDbSymbolTableRecord
100
AcDbLayerTableRecord
  2
0
 70
     0
 62
     5
  6
Continuous
370
     0
390
F
347
3E
  0
LAYER
  5
161
330
2
100
AcDbSymbolTableRecord
100
AcDbLayerTableRecord
  2
BACA
 70
     0
 62
    18
  6
Continuous
370
     0
390
F
347
3E
  0
LAYER
  5
162
330
2
100
AcDbSymbolTableRecord
100
AcDbLayerTableRecord
  2
YOL
 70
     0
 62
    96
  6
Continuous
370
     0
390
F
347
3E
  0
LAYER
  5
163
330
2
100
AcDbSymbolTableRecord
100
AcDbLayerTableRecord
  2
DERE
 70
     0
 62
   150
  6
Continuous
370
     0
390
F
347
3E
  0
LAYER
  5
164
330
2
100
AcDbSymbolTableRecord
100
AcDbLayerTableRecord
  2
DESANDRE
 70
     0
 62
     5
  6
Continuous
370
     0
390
F
347
3E
  0
LAYER
  5
165
330
2
100
AcDbSymbolTableRecord
100
AcDbLayerTableRecord
  2
15012015_URT
 70
     0
 62
    72
  6
Continuous
370
     0
390
F
347
3E
  0
LAYER
  5
166
330
2
100
AcDbSymbolTableRecord
100
AcDbLayerTableRecord
  2
TAS_BACA
 70
     0
 62
     5
  6
Continuous
370
     0
390
F
347
3E
  0
LAYER
  5
167
330
2
100
AcDbSymbolTableRecord
100
AcDbLayerTableRecord
  2
BC
 70
     0
 62
    18
  6
Continuous
370
     0
390
F
347
3E
  0
LAYER
  5
168
330
2
100
AcDbSymbolTableRecord
100
AcDbLayerTableRecord
  2
DSN
 70
     0
 62
     5
  6
Continuous
370
     0
390
F
347
3E
  0
LAYER
  5
169
330
2
100
AcDbSymbolTableRecord
100
AcDbLayerTableRecord
  2
25000_85052_RUH
 70
     0
 62
     5
  6
Continuous
370
     0
390
F
347
3E
  0
LAYER
  5
16A
330
2
100
AcDbSymbolTableRecord
100
AcDbLayerTableRecord
  2
25000_NADI
 70
     0
 62
    18
  6
Continuous
370
     0
390
F
347
3E
  0
LAYER
  5
16B
330
2
100
AcDbSymbolTableRecord
100
AcDbLayerTableRecord
  2
25000_85052_ISL
 70
     0
 62
    92
  6
Continuous
370
     0
390
F
347
3E
  0
LAYER
  5
16C
330
2
100
AcDbSymbolTableRecord
100
AcDbLayerTableRecord
  2
BACA_2016
 70
     0
 62
    18
  6
Continuous
370
     0
390
F
347
3E
  0
LAYER
  5
16D
330
2
100
AcDbSymbolTableRecord
100
AcDbLayerTableRecord
  2
ISARET_UZATKES
 70
     0
 62
    11
  6
Continuous
370
     0
390
F
347
3E
  0
LAYER
  5
16E
330
2
100
AcDbSymbolTableRecord
100
AcDbLayerTableRecord
  2
ISARET_KIR
 70
     0
 62
     6
  6
Continuous
370
     0
390
F
347
3E
  0
LAYER
  5
16F
330
2
100
AcDbSymbolTableRecord
100
AcDbLayerTableRecord
  2
CIZPEN
 70
     0
 62
     7
  6
Continuous
370
     0
390
F
347
3E
  0
LAYER
  5
170
330
2
100
AcDbSymbolTableRecord
100
AcDbLayerTableRecord
  2
2016_BACA
 70
     0
 62
     5
  6
Continuous
370
     0
390
F
347
3E
  0
LAYER
  5
3ED
330
2
100
AcDbSymbolTableRecord
100
AcDbLayerTableRecord
  2
INIT_COORD
 70
     0
 62
     7
  6
Continuous
370
     0
390
F
347
3E
1001
AcAecLayerStandard
1000

1000

  0
LAYER
  5
3FE
330
2
100
AcDbSymbolTableRecord
100
AcDbLayerTableRecord
  2
GEOFENCE
 70
     0
 62
     2
  6
Continuous
370
     0
390
F
347
3E
1001
AcAecLayerStandard
1000

1000

  0
ENDTAB
  0
TABLE
  2
STYLE
  5
3
330
0
100
AcDbSymbolTable
 70
     1
  0
STYLE
  5
11
330
3
100
AcDbSymbolTableRecord
100
AcDbTextStyleTableRecord
  2
Standard
 70
     0
 40
0.0
 41
1.0
 50
0.0
 71
     0
 42
2.5
  3
TIMES.TTF.SHX
  4

  0
ENDTAB
  0
TABLE
  2
VIEW
  5
6
330
0
100
AcDbSymbolTable
 70
     1
  0
VIEW
  5
171
330
6
100
AcDbSymbolTableRecord
100
AcDbViewTableRecord
  2
View_0
 70
     0
 40
8.267716535433072
 10
5.846456692913386
 20
4.133858267716536
 41
11.69291338582677
 11
0.0
 21
0.0
 31
1.0
 12
0.0
 22
0.0
 32
0.0
 42
50.0
 43
0.0
 44
0.0
 50
0.0
 71
     0
281
     0
 72
     0
 73
     0
348
2F
  0
ENDTAB
  0
TABLE
  2
UCS
  5
7
330
0
100
AcDbSymbolTable
 70
     0
  0
ENDTAB
  0
TABLE
  2
APPID
  5
9
330
0
100
AcDbSymbolTable
 70
     4
  0
APPID
  5
12
330
9
100
AcDbSymbolTableRecord
100
AcDbRegAppTableRecord
  2
ACAD
 70
     0
  0
APPID
  5
40
330
9
100
AcDbSymbolTableRecord
100
AcDbRegAppTableRecord
  2
TCAD
 70
     0
  0
APPID
  5
175
330
9
100
AcDbSymbolTableRecord
100
AcDbRegAppTableRecord
  2
ACAD_MLEADERVER
 70
     0
  0
APPID
  5
3EE
330
9
100
AcDbSymbolTableRecord
100
AcDbRegAppTableRecord
  2
AcAecLayerStandard
 70
     0
  0
ENDTAB
  0
TABLE
  2
DIMSTYLE
  5
A
330
0
100
AcDbSymbolTable
 70
     2
100
AcDbDimStyleTable
  0
DIMSTYLE
105
27
330
A
100
AcDbSymbolTableRecord
100
AcDbDimStyleTableRecord
  2
Standard
 70
     0
 41
0.25
 43
0.375
 44
0.125
 45
0.01
 74
     0
 77
     1
 78
     1
140
0.1463414634146341
141
0.0
143
1.0
147
0.0625
148
0.01
172
     1
178
     0
179
     2
271
     2
272
     3
276
     2
278
     0
340
11
345
14
346
14
347
14
  0
DIMSTYLE
105
172
330
A
100
AcDbSymbolTableRecord
100
AcDbDimStyleTableRecord
  2
ISO-25
 70
     0
  4
^B2147483648l^B
 41
2.5
 42
0.625
 43
3.75
 44
1.25
 73
     0
 74
     0
 77
     1
 78
     8
140
2.5
141
0.0
143
0.03937007874016
147
0.625
171
     3
172
     1
178
     0
271
     2
272
     2
274
     3
278
    44
283
     0
284
     8
340
11
345
14
346
14
347
14
  0
ENDTAB
  0
TABLE
  2
BLOCK_RECORD
  5
1
330
0
100
AcDbSymbolTable
 70
     9
  0
BLOCK_RECORD
  5
1F
102
{ACAD_XDICTIONARY
360
176
102
}
330
1
100
AcDbSymbolTableRecord
100
AcDbBlockTableRecord
  2
*Model_Space
340
22
 70
     0
280
     1
281
     0
  0
BLOCK_RECORD
  5
1B
330
1
100
AcDbSymbolTableRecord
100
AcDbBlockTableRecord
  2
*Paper_Space
340
1E
 70
     0
280
     1
281
     0
  0
BLOCK_RECORD
  5
151
330
1
100
AcDbSymbolTableRecord
100
AcDbBlockTableRecord
  2
*Paper_Space0
340
152
 70
     0
280
     1
281
     0
  0
BLOCK_RECORD
  5
184
330
1
100
AcDbSymbolTableRecord
100
AcDbBlockTableRecord
  2
69
340
0
 70
     0
280
     1
281
     0
  0
BLOCK_RECORD
  5
189
330
1
100
AcDbSymbolTableRecord
100
AcDbBlockTableRecord
  2
20
340
0
 70
     0
280
     1
281
     0
  0
BLOCK_RECORD
  5
191
330
1
100
AcDbSymbolTableRecord
100
AcDbBlockTableRecord
  2
220
340
0
 70
     0
280
     1
281
     0
  0
BLOCK_RECORD
  5
197
330
1
100
AcDbSymbolTableRecord
100
AcDbBlockTableRecord
  2
240
340
0
 70
     0
280
     1
281
     0
  0
BLOCK_RECORD
  5
19F
330
1
100
AcDbSymbolTableRecord
100
AcDbBlockTableRecord
  2
1
340
0
 70
     0
280
     1
281
     0
  0
BLOCK_RECORD
  5
1A7
330
1
100
AcDbSymbolTableRecord
100
AcDbBlockTableRecord
  2
0
340
0
102
{BLKREFS
331
364
331
365
331
366
331
367
331
368
331
36C
331
36D
331
36E
331
36F
102
}
 70
     0
280
     1
281
     0
  0
BLOCK_RECORD
  5
1AA
330
1
100
AcDbSymbolTableRecord
100
AcDbBlockTableRecord
  2
29
340
0
102
{BLKREFS
331
369
102
}
 70
     0
280
     1
281
     0
  0
BLOCK_RECORD
  5
1AD
330
1
100
AcDbSymbolTableRecord
100
AcDbBlockTableRecord
  2
24
340
0
102
{BLKREFS
331
36A
331
36B
102
}
 70
     0
280
     1
281
     0
  0
ENDTAB
  0
ENDSEC
  0
SECTION
  2
BLOCKS
  0
BLOCK
  5
20
330
1F
100
AcDbEntity
  8
0
100
AcDbBlockBegin
  2
*Model_Space
 70
     0
 10
0.0
 20
0.0
 30
0.0
  3
*Model_Space
  1

  0
ENDBLK
  5
21
330
1F
100
AcDbEntity
  8
0
100
AcDbBlockEnd
  0
BLOCK
  5
1C
330
1B
100
AcDbEntity
 67
     1
  8
0
100
AcDbBlockBegin
  2
*Paper_Space
 70
     0
 10
0.0
 20
0.0
 30
0.0
  3
*Paper_Space
  1

  0
ENDBLK
  5
1D
330
1B
100
AcDbEntity
 67
     1
  8
0
100
AcDbBlockEnd
  0
BLOCK
  5
153
330
151
100
AcDbEntity
  8
0
100
AcDbBlockBegin
  2
*Paper_Space0
 70
     0
 10
0.0
 20
0.0
 30
0.0
  3
*Paper_Space0
  1

  0
VIEWPORT
  5
3BA
330
151
100
AcDbEntity
  8
0
100
AcDbViewport
 10
581795.7570308154
 20
4180114.876897798
 30
0.0
 40
1541.418617366115
 41
1114.166568254121
 68
     1
 69
     1
 12
581795.7570308154
 22
4180114.876897798
 13
0.0
 23
0.0
 14
0.5
 24
0.5
 15
0.5
 25
0.5
 16
0.0
 26
0.0
 36
1.0
 17
0.0
 27
0.0
 37
0.0
 42
50.0
 43
0.0
 44
0.0
 45
1114.166568254121
 50
0.0
 51
0.0
 72
  1000
 90
    32800
  1

281
     0
 71
     1
 74
     0
110
0.0
120
0.0
130
0.0
111
1.0
121
0.0
131
0.0
112
0.0
122
1.0
132
0.0
 79
     0
146
0.0
170
     0
 61
     5
348
2F
292
     1
282
     1
141
0.0
142
0.0
 63
   256
  0
ENDBLK
  5
154
330
151
100
AcDbEntity
  8
0
100
AcDbBlockEnd
  0
BLOCK
  5
185
330
184
100
AcDbEntity
  8
0
100
AcDbBlockBegin
  2
69
 70
     0
 10
0.0
 20
0.0
 30
0.0
  3
69
  1

  0
LINE
  5
186
330
184
100
AcDbEntity
  8
0
370
     0
100
AcDbLine
 10
-0.0625
 20
0.0625
 30
-14.07696723937988
 11
0.0625
 21
-0.0625
 31
-14.15602111816406
  0
LINE
  5
187
330
184
100
AcDbEntity
  8
0
370
     0
100
AcDbLine
 10
-0.0625
 20
-0.0625
 30
-14.07696723937988
 11
0.0625
 21
0.0625
 31
-14.15602111816406
  0
CIRCLE
  5
188
330
184
100
AcDbEntity
  8
0
370
     0
100
AcDbCircle
 10
0.0
 20
0.0
 30
-14.07696723937988
 40
1.0
  0
ENDBLK
  5
18B
330
184
100
AcDbEntity
  8
0
100
AcDbBlockEnd
  0
BLOCK
  5
18A
330
189
100
AcDbEntity
  8
0
100
AcDbBlockBegin
  2
20
 70
     0
 10
0.0
 20
0.0
 30
0.0
  3
20
  1

  0
CIRCLE
  5
18C
330
189
100
AcDbEntity
  8
0
370
     0
100
AcDbCircle
 10
0.0
 20
0.0
 30
-14.07696723937988
 40
1.250000037252903
  0
LINE
  5
18D
330
189
100
AcDbEntity
  8
0
370
     0
100
AcDbLine
 10
-1.166666701436043
 20
0.1666666716337204
 30
-14.07696723937988
 11
1.250000037252903
 21
0.1666666716337204
 31
-14.15602111816406
  0
LINE
  5
18E
330
189
100
AcDbEntity
  8
0
370
     0
100
AcDbLine
 10
-1.250000037252903
 20
-0.1666666716337204
 30
-14.07696723937988
 11
1.250000037252903
 21
-0.1666666716337204
 31
-14.15602111816406
  0
LINE
  5
18F
330
189
100
AcDbEntity
  8
0
370
     0
100
AcDbLine
 10
-0.1666666716337204
 20
1.250000037252903
 30
-14.07696723937988
 11
-0.1666666716337204
 21
-1.250000037252903
 31
-14.15602111816406
  0
LINE
  5
190
330
189
100
AcDbEntity
  8
0
370
     0
100
AcDbLine
 10
0.1666666716337204
 20
1.166666701436043
 30
-14.07696723937988
 11
0.1666666716337204
 21
-1.166666701436043
 31
-14.15602111816406
  0
ENDBLK
  5
193
330
189
100
AcDbEntity
  8
0
100
AcDbBlockEnd
  0
BLOCK
  5
192
330
191
100
AcDbEntity
  8
0
100
AcDbBlockBegin
  2
220
 70
     0
 10
0.0
 20
0.0
 30
0.0
  3
220
  1

  0
CIRCLE
  5
194
330
191
100
AcDbEntity
  8
0
370
     0
100
AcDbCircle
 10
0.0
 20
0.0
 30
-14.07696723937988
 40
2.100000083446503
  0
CIRCLE
  5
195
330
191
100
AcDbEntity
  8
0
370
     0
100
AcDbCircle
 10
0.0
 20
0.0
 30
-14.07696723937988
 40
1.312500052154064
  0
CIRCLE
  5
196
330
191
100
AcDbEntity
  8
0
370
     0
100
AcDbCircle
 10
0.0
 20
0.0
 30
-14.07696723937988
 40
0.1312500052154064
  0
ENDBLK
  5
199
330
191
100
AcDbEntity
  8
0
100
AcDbBlockEnd
  0
BLOCK
  5
198
330
197
100
AcDbEntity
  8
0
100
AcDbBlockBegin
  2
240
 70
     0
 10
0.0
 20
0.0
 30
0.0
  3
240
  1

  0
LINE
  5
19A
330
197
100
AcDbEntity
  8
0
370
     0
100
AcDbLine
 10
-5.0
 20
0.0
 30
-14.07696723937988
 11
-1.25
 21
0.0
 31
-14.15602111816406
  0
POINT
  5
19B
330
197
100
AcDbEntity
  8
0
  6
Continuous
100
AcDbPoint
 10
0.0
 20
0.0
 30
-14.07696723937988
  0
LINE
  5
19C
330
197
100
AcDbEntity
  8
0
370
     0
100
AcDbLine
 10
1.25
 20
0.0
 30
-14.07696723937988
 11
5.0
 21
0.0
 31
-14.15602111816406
  0
LINE
  5
19D
330
197
100
AcDbEntity
  8
0
370
     0
100
AcDbLine
 10
0.0
 20
5.0
 30
-14.07696723937988
 11
0.0
 21
1.25
 31
-14.15602111816406
  0
LINE
  5
19E
330
197
100
AcDbEntity
  8
0
370
     0
100
AcDbLine
 10
0.0
 20
-1.25
 30
-14.07696723937988
 11
0.0
 21
-5.0
 31
-14.15602111816406
  0
ENDBLK
  5
1A1
330
197
100
AcDbEntity
  8
0
100
AcDbBlockEnd
  0
BLOCK
  5
1A0
330
19F
100
AcDbEntity
  8
0
100
AcDbBlockBegin
  2
1
 70
     0
 10
0.0
 20
0.0
 30
0.0
  3
1
  1

  0
LINE
  5
1A2
330
19F
100
AcDbEntity
  8
0
370
     0
100
AcDbLine
 10
0.0
 20
-12.92307660029485
 30
-14.07696723937988
 11
0.0
 21
12.92307660029485
 31
-14.15602111816406
  0
LINE
  5
1A3
330
19F
100
AcDbEntity
  8
0
370
     0
100
AcDbLine
 10
0.0
 20
11.30769202525799
 30
-14.07696723937988
 11
1.615384575036856
 21
3.230769150073712
 31
-14.15602111816406
  0
LINE
  5
1A4
330
19F
100
AcDbEntity
  8
0
370
     0
100
AcDbLine
 10
1.615384575036856
 20
3.230769150073712
 30
-14.07696723937988
 11
0.0
 21
4.846153725110568
 31
-14.15602111816406
  0
LINE
  5
1A5
330
19F
100
AcDbEntity
  8
0
370
     0
100
AcDbLine
 10
0.0
 20
4.846153725110568
 30
-14.07696723937988
 11
-1.615384575036856
 21
3.230769150073712
 31
-14.15602111816406
  0
LINE
  5
1A6
330
19F
100
AcDbEntity
  8
0
370
     0
100
AcDbLine
 10
-1.615384575036856
 20
3.230769150073712
 30
-14.07696723937988
 11
0.0
 21
11.30769202525799
 31
-14.15602111816406
  0
ENDBLK
  5
1A9
330
19F
100
AcDbEntity
  8
0
100
AcDbBlockEnd
  0
BLOCK
  5
1A8
330
1A7
100
AcDbEntity
  8
0
100
AcDbBlockBegin
  2
0
 70
     0
 10
0.0
 20
0.0
 30
0.0
  3
0
  1

  0
ENDBLK
  5
1AC
330
1A7
100
AcDbEntity
  8
0
100
AcDbBlockEnd
  0
BLOCK
  5
1AB
330
1AA
100
AcDbEntity
  8
0
100
AcDbBlockBegin
  2
29
 70
     0
 10
0.0
 20
0.0
 30
0.0
  3
29
  1

  0
ENDBLK
  5
1AF
330
1AA
100
AcDbEntity
  8
0
100
AcDbBlockEnd
  0
BLOCK
  5
1AE
330
1AD
100
AcDbEntity
  8
0
100
AcDbBlockBegin
  2
24
 70
     0
 10
0.0
 20
0.0
 30
0.0
  3
24
  1

  0
ENDBLK
  5
1B0
330
1AD
100
AcDbEntity
  8
0
100
AcDbBlockEnd
  0
ENDSEC
  0
SECTION
  2
ENTITIES
  0
LINE
  5
1B1
330
1F
100
AcDbEntity
  8
BACA
 62
     5
370
     0
100
AcDbLine
 10
580567.8842662883
 20
4179976.751622048
 30
0.0
 11
580592.363489364
 21
4179962.01209988
 31
0.0
  0
LINE
  5
1B2
330
1F
100
AcDbEntity
  8
BACA
 62
     5
370
     0
100
AcDbLine
 10
580751.2647256595
 20
4179869.235469057
 30
0.0
 11
580742.6826146059
 21
4179854.798272892
 31
0.0
  0
LINE
  5
1B3
330
1F
100
AcDbEntity
  8
BACA
 62
     5
370
     0
100
AcDbLine
 10
580745.6502604842
 20
4179852.552486822
 30
0.0
 11
580753.7511316657
 21
4179867.791749441
 31
0.0
  0
LINE
  5
1B4
330
1F
100
AcDbEntity
  8
BACA
 62
     5
370
     0
100
AcDbLine
 10
580753.7511316657
 20
4179867.791749441
 30
0.0
 11
580896.5911463888
 21
4179784.481106904
 31
0.0
  0
LINE
  5
1B5
330
1F
100
AcDbEntity
  8
BACA
 62
     5
370
     0
100
AcDbLine
 10
580896.5911463888
 20
4179784.481106904
 30
0.0
 11
581051.2308574833
 21
4179693.797652607
 31
0.0
  0
LINE
  5
1B6
330
1F
100
AcDbEntity
  8
BACA
 62
     5
370
     0
100
AcDbLine
 10
581051.2308574833
 20
4179693.797652607
 30
0.0
 11
581050.0322300933
 21
4179691.634911881
 31
0.0
  0
LINE
  5
1B7
330
1F
100
AcDbEntity
  8
BACA
 62
     5
370
     0
100
AcDbLine
 10
581050.0322300933
 20
4179691.634911881
 30
0.0
 11
581052.7421702794
 21
4179690.17571332
 31
0.0
  0
LINE
  5
1B8
330
1F
100
AcDbEntity
  8
BACA
 62
     5
370
     0
100
AcDbLine
 10
581052.7421702794
 20
4179690.17571332
 30
0.0
 11
581053.9147405522
 21
4179692.208168459
 31
0.0
  0
LINE
  5
1B9
330
1F
100
AcDbEntity
  8
BACA
 62
     5
370
     0
100
AcDbLine
 10
581053.9147405522
 20
4179692.208168459
 30
0.0
 11
581103.4618277164
 21
4179663.320206075
 31
0.0
  0
LINE
  5
1BA
330
1F
100
AcDbEntity
  8
BACA
 62
     5
370
     0
100
AcDbLine
 10
581103.4618277164
 20
4179663.320206075
 30
0.0
 11
581121.7638256773
 21
4179652.679000563
 31
0.0
  0
LINE
  5
1BB
330
1F
100
AcDbEntity
  8
BACA
 62
     5
370
     0
100
AcDbLine
 10
581121.7638256773
 20
4179652.679000563
 30
0.0
 11
581125.4847820097
 21
4179643.704929409
 31
0.0
  0
LINE
  5
1BC
330
1F
100
AcDbEntity
  8
BACA
 62
     5
370
     0
100
AcDbLine
 10
581125.4847820097
 20
4179643.704929409
 30
0.0
 11
581122.1651052819
 21
4179642.136290954
 31
0.0
  0
LINE
  5
1BD
330
1F
100
AcDbEntity
  8
BACA
 62
     5
370
     0
100
AcDbLine
 10
581122.1651052819
 20
4179642.136290954
 30
0.0
 11
581123.8067036638
 21
4179639.363813687
 31
0.0
  0
LINE
  5
1BE
330
1F
100
AcDbEntity
  8
BACA
 62
     5
370
     0
100
AcDbLine
 10
581123.8067036638
 20
4179639.363813687
 30
0.0
 11
581127.0169404997
 21
4179641.114851961
 31
0.0
  0
LINE
  5
1BF
330
1F
100
AcDbEntity
  8
BACA
 62
     5
370
     0
100
AcDbLine
 10
581127.0169404997
 20
4179641.114851961
 30
0.0
 11
581128.6220589175
 21
4179637.722215305
 31
0.0
  0
LINE
  5
1C0
330
1F
100
AcDbEntity
  8
BACA
 62
     5
370
     0
100
AcDbLine
 10
581128.6220589175
 20
4179637.722215305
 30
0.0
 11
581125.1929422974
 21
4179633.928299045
 31
0.0
  0
LINE
  5
1C1
330
1F
100
AcDbEntity
  8
BACA
 62
     5
370
     0
100
AcDbLine
 10
581125.1929422974
 20
4179633.928299045
 30
0.0
 11
581127.8194997086
 21
4179631.81246113
 31
0.0
  0
LINE
  5
1C2
330
1F
100
AcDbEntity
  8
BACA
 62
     5
370
     0
100
AcDbLine
 10
581127.8194997086
 20
4179631.81246113
 30
0.0
 11
581131.1026964725
 21
4179636.044136959
 31
0.0
  0
LINE
  5
1C3
330
1F
100
AcDbEntity
  8
BACA
 62
     5
370
     0
100
AcDbLine
 10
581131.1026964725
 20
4179636.044136959
 30
0.0
 11
581163.6428243996
 21
4179611.602561049
 31
0.0
  0
LINE
  5
1C4
330
1F
100
AcDbEntity
  8
BACA
 62
     5
370
     0
100
AcDbLine
 10
581163.6428243996
 20
4179611.602561049
 30
0.0
 11
581165.612742458
 21
4179610.398722236
 31
0.0
  0
LINE
  5
1C5
330
1F
100
AcDbEntity
  8
BACA
 62
     5
370
     0
100
AcDbLine
 10
581165.612742458
 20
4179610.398722236
 30
0.0
 11
581167.7650603366
 21
4179610.033922595
 31
0.0
  0
LINE
  5
1C6
330
1F
100
AcDbEntity
  8
BACA
 62
     5
370
     0
100
AcDbLine
 10
581167.7650603366
 20
4179610.033922595
 30
0.0
 11
581242.1477070221
 21
4179617.512315224
 31
0.0
  0
LINE
  5
1C7
330
1F
100
AcDbEntity
  8
TAS_BACA
 62
     5
370
     0
100
AcDbLine
 10
581242.1477070221
 20
4179617.512315224
 30
0.0
 11
581285.5223842703
 21
4179621.707511089
 31
0.0
  0
LINE
  5
1C8
330
1F
100
AcDbEntity
  8
TAS_BACA
 62
     5
370
     0
100
AcDbLine
 10
581285.5223842703
 20
4179621.707511089
 30
0.0
 11
581292.8775630548
 21
4179622.490546501
 31
0.0
  0
LINE
  5
1C9
330
1F
100
AcDbEntity
  8
TAS_BACA
 62
     5
370
     0
100
AcDbLine
 10
581325.6138647544
 20
4179625.975666882
 30
0.0
 11
581363.5895073242
 21
4179629.988462928
 31
0.0
  0
LINE
  5
1CA
330
1F
100
AcDbEntity
  8
TAS_BACA
 62
     5
370
     0
100
AcDbLine
 10
581363.5895073242
 20
4179629.988462928
 30
0.0
 11
581370.1559008522
 21
4179610.25280238
 31
0.0
  0
LINE
  5
1CB
330
1F
100
AcDbEntity
  8
BACA
370
     0
100
AcDbLine
 10
581370.1559008522
 20
4179610.25280238
 30
0.0
 11
581378.2544528699
 21
4179592.632979747
 31
0.0
  0
LINE
  5
1CC
330
1F
100
AcDbEntity
  8
BACA
370
     0
100
AcDbLine
 10
581378.2544528699
 20
4179592.632979747
 30
0.0
 11
581399.0938959096
 21
4179548.83662803
 31
0.0
  0
LINE
  5
1CD
330
1F
100
AcDbEntity
  8
BACA
 62
     5
370
     0
100
AcDbLine
 10
581395.8240637399
 20
4179562.893128303
 30
0.0
 11
581403.6270264934
 21
4179565.402259449
 31
0.0
  0
LINE
  5
1CE
330
1F
100
AcDbEntity
  8
TAS_BACA
 62
     5
370
     0
100
AcDbLine
 10
581330.6732260127
 20
4179655.922157651
 30
0.0
 11
581278.804963691
 21
4179646.729118428
 31
0.0
  0
LINE
  5
1CF
330
1F
100
AcDbEntity
  8
BACA
 62
     5
370
     0
100
AcDbLine
 10
581212.1560693833
 20
4179651.785241444
 30
0.0
 11
581164.2505806008
 21
4179655.56456572
 31
0.0
  0
LINE
  5
1D0
330
1F
100
AcDbEntity
  8
BACA
 62
     5
370
     0
100
AcDbLine
 10
581164.2505806008
 20
4179655.56456572
 30
0.0
 11
581159.7051770809
 21
4179655.819925467
 31
0.0
  0
LINE
  5
1D1
330
1F
100
AcDbEntity
  8
BACA
 62
     5
370
     0
100
AcDbLine
 10
581159.7051770809
 20
4179655.819925467
 30
0.0
 11
581164.2505806008
 21
4179666.596106846
 31
0.0
  0
LINE
  5
1D2
330
1F
100
AcDbEntity
  8
BACA
 62
     5
370
     0
100
AcDbLine
 10
581164.2505806008
 20
4179666.596106846
 30
0.0
 11
581186.0258779982
 21
4179653.846685114
 31
0.0
  0
LINE
  5
1D3
330
1F
100
AcDbEntity
  8
BACA
370
     0
100
AcDbLine
 10
581201.5841758033
 20
4179644.737312391
 30
0.0
 11
581201.328816055
 21
4179641.775139311
 31
0.0
  0
LINE
  5
1D4
330
1F
100
AcDbEntity
  8
BACA
370
     0
100
AcDbLine
 10
581201.328816055
 20
4179641.775139311
 30
0.0
 11
581189.8886993307
 21
4179621.754935044
 31
0.0
  0
LINE
  5
1D5
330
1F
100
AcDbEntity
  8
BACA
370
     0
100
AcDbLine
 10
581189.8886993307
 20
4179621.754935044
 30
0.0
 11
581186.7222384517
 21
4179619.35455341
 31
0.0
  0
LINE
  5
1D6
330
1F
100
AcDbEntity
  8
BACA
 62
     5
370
     0
100
AcDbLine
 10
581186.7222384517
 20
4179619.35455341
 30
0.0
 11
581152.1976004806
 21
4179639.374757677
 31
0.0
  0
LINE
  5
1D7
330
1F
100
AcDbEntity
  8
BACA
 62
     5
370
     0
100
AcDbLine
 10
581152.1976004806
 20
4179639.374757677
 30
0.0
 11
581131.423418839
 21
4179651.516745121
 31
0.0
  0
LINE
  5
1D8
330
1F
100
AcDbEntity
  8
BACA
 62
     5
370
     0
100
AcDbLine
 10
581118.6433295532
 20
4179658.986386347
 30
0.0
 11
581082.8418928406
 21
4179679.874813759
 31
0.0
  0
LINE
  5
1D9
330
1F
100
AcDbEntity
  8
BACA
 62
     5
370
     0
100
AcDbLine
 10
581082.8418928406
 20
4179679.874813759
 30
0.0
 11
581069.052466432
 21
4179687.893109856
 31
0.0
  0
LINE
  5
1DA
330
1F
100
AcDbEntity
  8
BACA
 62
     5
370
     0
100
AcDbLine
 10
581069.052466432
 20
4179687.893109856
 30
0.0
 11
581069.4610420292
 21
4179691.059570735
 31
0.0
  0
LINE
  5
1DB
330
1F
100
AcDbEntity
  8
BACA
 62
     5
370
     0
100
AcDbLine
 10
581069.4610420292
 20
4179691.059570735
 30
0.0
 11
581076.7132588811
 21
4179703.521126452
 31
0.0
  0
LINE
  5
1DC
330
1F
100
AcDbEntity
  8
BACA
 62
     5
370
     0
100
AcDbLine
 10
581076.7132588811
 20
4179703.521126452
 30
0.0
 11
581079.7265039111
 21
4179701.784680163
 31
0.0
  0
LINE
  5
1DD
330
1F
100
AcDbEntity
  8
BACA
 62
     5
370
     0
100
AcDbLine
 10
581079.7265039111
 20
4179701.784680163
 30
0.0
 11
581081.6161660486
 21
4179704.644709345
 31
0.0
  0
LINE
  5
1DE
330
1F
100
AcDbEntity
  8
BACA
 62
     5
370
     0
100
AcDbLine
 10
581081.6161660486
 20
4179704.644709345
 30
0.0
 11
581078.7050649179
 21
4179706.432227583
 31
0.0
  0
LINE
  5
1DF
330
1F
100
AcDbEntity
  8
BACA
 62
     5
370
     0
100
AcDbLine
 10
581078.7050649179
 20
4179706.432227583
 30
0.0
 11
581081.4629501996
 21
4179711.33513475
 31
0.0
  0
LINE
  5
1E0
330
1F
100
AcDbEntity
  8
BACA
 62
     5
370
     0
100
AcDbLine
 10
581081.4629501996
 20
4179711.33513475
 30
0.0
 11
581085.3954903235
 21
4179713.326940787
 31
0.0
  0
LINE
  5
1E1
330
1F
100
AcDbEntity
  8
BACA
 62
     5
370
     0
100
AcDbLine
 10
581085.3954903235
 20
4179713.326940787
 30
0.0
 11
581113.229702889
 21
4179696.677485198
 31
0.0
  0
LINE
  5
1E2
330
1F
100
AcDbEntity
  8
BACA
 62
     5
370
     0
100
AcDbLine
 10
581113.229702889
 20
4179696.677485198
 30
0.0
 11
581127.1723451465
 21
4179688.403829352
 31
0.0
  0
LINE
  5
1E3
330
1F
100
AcDbEntity
  8
BACA
 62
     5
370
     0
100
AcDbLine
 10
581127.1723451465
 20
4179688.403829352
 30
0.0
 11
581128.2448560894
 21
4179679.006590615
 31
0.0
  0
LINE
  5
1E4
330
1F
100
AcDbEntity
  8
BACA
 62
     5
370
     0
100
AcDbLine
 10
581128.2448560894
 20
4179679.006590615
 30
0.0
 11
581125.3848269084
 21
4179676.248705333
 31
0.0
  0
LINE
  5
1E5
330
1F
100
AcDbEntity
  8
BACA
 62
     5
370
     0
100
AcDbLine
 10
581125.3848269084
 20
4179676.248705333
 30
0.0
 11
581127.3766329451
 21
4179674.410115145
 31
0.0
  0
LINE
  5
1E6
330
1F
100
AcDbEntity
  8
BACA
 62
     5
370
     0
100
AcDbLine
 10
581127.3766329451
 20
4179674.410115145
 30
0.0
 11
581130.2877340759
 21
4179677.116928477
 31
0.0
  0
LINE
  5
1E7
330
1F
100
AcDbEntity
  8
BACA
 62
     5
370
     0
100
AcDbLine
 10
581130.2877340759
 20
4179677.116928477
 30
0.0
 11
581146.0152959862
 21
4179662.904111259
 31
0.0
  0
LINE
  5
1E8
330
1F
100
AcDbEntity
  8
BACA
 62
     5
370
     0
100
AcDbLine
 10
581155.2108455106
 20
4179654.594198677
 30
0.0
 11
581159.6030331815
 21
4179652.959896287
 31
0.0
  0
LINE
  5
1E9
330
1F
100
AcDbEntity
  8
BACA
 62
     5
370
     0
100
AcDbLine
 10
581159.6030331815
 20
4179652.959896287
 30
0.0
 11
581216.4461131546
 21
4179648.669852516
 31
0.0
  0
LINE
  5
1EA
330
1F
100
AcDbEntity
  8
BACA
 62
     5
370
     0
100
AcDbLine
 10
581216.4461131546
 20
4179648.669852516
 30
0.0
 11
581229.4474393169
 21
4179647.621166263
 31
0.0
  0
LINE
  5
1EB
330
1F
100
AcDbEntity
  8
BACA
 62
     5
370
     0
100
AcDbLine
 10
581272.1656102352
 20
4179644.175520946
 30
0.0
 11
581279.5710429362
 21
4179643.715873398
 31
0.0
  0
LINE
  5
1EC
330
1F
100
AcDbEntity
  8
TAS_BACA
 62
     5
370
     0
100
AcDbLine
 10
581279.5710429362
 20
4179643.715873398
 30
0.0
 11
581309.6524212867
 21
4179649.53807566
 31
0.0
  0
LINE
  5
1ED
330
1F
100
AcDbEntity
  8
BACA
 62
     5
370
     0
100
AcDbLine
 10
581309.6524212867
 20
4179649.53807566
 30
0.0
 11
581320.752753203
 21
4179651.593461062
 31
0.0
  0
LINE
  5
1EE
330
1F
100
AcDbEntity
  8
BACA
 62
     5
370
     0
100
AcDbLine
 10
581320.752753203
 20
4179651.593461062
 30
0.0
 11
581324.0385556787
 21
4179628.613689427
 31
0.0
  0
LINE
  5
1EF
330
1F
100
AcDbEntity
  8
TAS_BACA
 62
     5
370
     0
100
AcDbLine
 10
581324.0385556787
 20
4179628.613689427
 30
0.0
 11
581300.1441792299
 21
4179626.315451692
 31
0.0
  0
LINE
  5
1F0
330
1F
100
AcDbEntity
  8
TAS_BACA
 62
     5
370
     0
100
AcDbLine
 10
581300.1441792299
 20
4179626.315451692
 30
0.0
 11
581271.106127851
 21
4179623.32409464
 31
0.0
  0
LINE
  5
1F1
330
1F
100
AcDbEntity
  8
TAS_BACA
 62
     5
370
     0
100
AcDbLine
 10
581271.106127851
 20
4179623.32409464
 30
0.0
 11
581233.3858450296
 21
4179619.676098236
 31
0.0
  0
LINE
  5
1F2
330
1F
100
AcDbEntity
  8
BACA
 62
     5
370
     0
100
AcDbLine
 10
581233.3858450296
 20
4179619.676098236
 30
0.0
 11
581192.8566049767
 21
4179615.517382335
 31
0.0
  0
LINE
  5
1F3
330
1F
100
AcDbEntity
  8
BACA
370
     0
100
AcDbLine
 10
581192.8566049767
 20
4179615.517382335
 30
0.0
 11
581192.5282853004
 21
4179619.165378739
 31
0.0
  0
LINE
  5
1F4
330
1F
100
AcDbEntity
  8
BACA
370
     0
100
AcDbLine
 10
581192.5282853004
 20
4179619.165378739
 30
0.0
 11
581204.0559539383
 21
4179639.958958244
 31
0.0
  0
LINE
  5
1F5
330
1F
100
AcDbEntity
  8
BACA
370
     0
100
AcDbLine
 10
581204.0559539383
 20
4179639.958958244
 30
0.0
 11
581206.6825113494
 21
4179641.491116734
 31
0.0
  0
LINE
  5
1F6
330
1F
100
AcDbEntity
  8
BACA
370
     0
100
AcDbLine
 10
581206.6825113494
 20
4179641.491116734
 30
0.0
 11
581240.9190406029
 21
4179620.404647131
 31
0.0
  0
LINE
  5
1F7
330
1F
100
AcDbEntity
  8
BACA
370
     0
100
AcDbLine
 10
581261.085081728
 20
4179607.98426976
 30
0.0
 11
581272.8316301501
 21
4179606.196751521
 31
0.0
  0
LINE
  5
1F8
330
1F
100
AcDbEntity
  8
BACA
370
     0
100
AcDbLine
 10
581272.8316301501
 20
4179606.196751521
 30
0.0
 11
581282.1267249885
 21
4179606.298895421
 31
0.0
  0
LINE
  5
1F9
330
1F
100
AcDbEntity
  8
BACA
370
     0
100
AcDbLine
 10
581282.0756530388
 20
4179609.567500199
 30
0.0
 11
581272.7294862508
 21
4179609.720716048
 31
0.0
  0
LINE
  5
1FA
330
1F
100
AcDbEntity
  8
BACA
370
     0
100
AcDbLine
 10
581272.7294862508
 20
4179609.720716048
 30
0.0
 11
581262.2597365702
 21
4179611.610378185
 31
0.0
  0
LINE
  5
1FB
330
1F
100
AcDbEntity
  8
BACA
370
     0
100
AcDbLine
 10
581262.2597365702
 20
4179611.610378185
 30
0.0
 11
581251.381863382
 21
4179618.405442206
 31
0.0
  0
LINE
  5
1FC
330
1F
100
AcDbEntity
  8
BACA
 62
     5
370
     0
100
AcDbLine
 10
581134.6513631466
 20
4179688.483876816
 30
0.0
 11
581113.3032881882
 21
4179701.251864232
 31
0.0
  0
LINE
  5
1FD
330
1F
100
AcDbEntity
  8
BACA
 62
     5
370
     0
100
AcDbLine
 10
581113.3032881882
 20
4179701.251864232
 30
0.0
 11
581071.7817931134
 21
4179725.664256169
 31
0.0
  0
LINE
  5
1FE
330
1F
100
AcDbEntity
  8
BACA
 62
     5
370
     0
100
AcDbLine
 10
581071.7817931134
 20
4179725.664256169
 30
0.0
 11
581037.8189465887
 21
4179745.378028739
 31
0.0
  0
LINE
  5
1FF
330
1F
100
AcDbEntity
  8
BACA
 62
     5
370
     0
100
AcDbLine
 10
581037.8189465887
 20
4179745.378028739
 30
0.0
 11
581006.103265849
 21
4179764.121434265
 31
0.0
  0
LINE
  5
200
330
1F
100
AcDbEntity
  8
BACA
 62
     5
370
     0
100
AcDbLine
 10
581006.103265849
 20
4179764.121434265
 30
0.0
 11
580970.0975413376
 21
4179785.060933626
 31
0.0
  0
LINE
  5
201
330
1F
100
AcDbEntity
  8
BACA
 62
     5
370
     0
100
AcDbLine
 10
580970.0975413376
 20
4179785.060933626
 30
0.0
 11
580887.3242110823
 21
4179833.037923138
 31
0.0
  0
LINE
  5
202
330
1F
100
AcDbEntity
  8
BACA
 62
     5
370
     0
100
AcDbLine
 10
580887.3242110823
 20
4179833.037923138
 30
0.0
 11
580834.1991690445
 21
4179864.140740482
 31
0.0
  0
LINE
  5
203
330
1F
100
AcDbEntity
  8
BACA
 62
     5
370
     0
100
AcDbLine
 10
580834.1991690445
 20
4179864.140740482
 30
0.0
 11
580783.8626554583
 21
4179893.241537399
 31
0.0
  0
LINE
  5
204
330
1F
100
AcDbEntity
  8
BACA
 62
     5
370
     0
100
AcDbLine
 10
580783.8626554583
 20
4179893.241537399
 30
0.0
 11
580737.6016834549
 21
4179920.054310971
 31
0.0
  0
LINE
  5
205
330
1F
100
AcDbEntity
  8
BACA
 62
     5
370
     0
100
AcDbLine
 10
580737.6016834549
 20
4179920.054310971
 30
0.0
 11
580722.4021398273
 21
4179928.973657312
 31
0.0
  0
LINE
  5
206
330
1F
100
AcDbEntity
  8
BACA
 62
     5
370
     0
100
AcDbLine
 10
580715.2677047345
 20
4179932.935578913
 30
0.0
 11
580630.6365920842
 21
4179982.402947118
 31
0.0
  0
LINE
  5
207
330
1F
100
AcDbEntity
  8
BACA
 62
     5
370
     0
100
AcDbLine
 10
580630.6365920842
 20
4179982.402947118
 30
0.0
 11
580590.1671791726
 21
4180005.998187861
 31
0.0
  0
LINE
  5
208
330
1F
100
AcDbEntity
  8
BACA
 62
     5
370
     0
100
AcDbLine
 10
580576.7250420217
 20
4179990.125025906
 30
0.0
 11
580572.3634975207
 21
4179982.617449306
 31
0.0
  0
LINE
  5
209
330
1F
100
AcDbEntity
  8
BACA
 62
     5
370
     0
100
AcDbLine
 10
580572.3634975207
 20
4179982.617449306
 30
0.0
 11
580570.1469749053
 21
4179980.686929609
 31
0.0
  0
LINE
  5
20A
330
1F
100
AcDbEntity
  8
BACA
370
     0
100
AcDbLine
 10
580590.3816813611
 20
4180001.851145549
 30
0.0
 11
580589.1661689592
 21
4180001.851145549
 31
0.0
  0
LINE
  5
20B
330
1F
100
AcDbEntity
  8
BACA
 62
     5
370
     0
100
AcDbLine
 10
580589.1661689592
 20
4180001.851145549
 30
0.0
 11
580587.0211470735
 21
4180001.136138253
 31
0.0
  0
LINE
  5
20C
330
1F
100
AcDbEntity
  8
BACA
370
     0
100
AcDbLine
 10
580587.0211470735
 20
4180001.136138253
 30
0.0
 11
580586.0916375896
 21
4179999.634622933
 31
0.0
  0
LINE
  5
20D
330
1F
100
AcDbEntity
  8
BACA
 62
     5
370
     0
100
AcDbLine
 10
580586.0916375896
 20
4179999.634622933
 30
0.0
 11
580589.6666740659
 21
4179997.918605424
 31
0.0
  0
LINE
  5
20E
330
1F
100
AcDbEntity
  8
BACA
 62
     5
370
     0
100
AcDbLine
 10
580589.6666740659
 20
4179997.918605424
 30
0.0
 11
580584.8046244582
 21
4179989.55302007
 31
0.0
  0
LINE
  5
20F
330
1F
100
AcDbEntity
  8
BACA
 62
     5
370
     0
100
AcDbLine
 10
580584.8046244582
 20
4179989.55302007
 30
0.0
 11
580581.658592359
 21
4179991.412039038
 31
0.0
  0
LINE
  5
210
330
1F
100
AcDbEntity
  8
BACA
 62
     5
370
     0
100
AcDbLine
 10
580581.658592359
 20
4179991.412039038
 30
0.0
 11
580574.580020136
 21
4179979.185414289
 31
0.0
  0
LINE
  5
211
330
1F
100
AcDbEntity
  8
BACA
 62
     5
370
     0
100
AcDbLine
 10
580574.580020136
 20
4179979.185414289
 30
0.0
 11
580575.5810303492
 21
4179976.253884378
 31
0.0
  0
LINE
  5
212
330
1F
100
AcDbEntity
  8
BACA
 62
     5
370
     0
100
AcDbLine
 10
580575.5810303492
 20
4179976.253884378
 30
0.0
 11
580598.3768927716
 21
4179962.956297965
 31
0.0
  0
LINE
  5
213
330
1F
100
AcDbEntity
  8
BACA
 62
     5
370
     0
100
AcDbLine
 10
580632.2096081339
 20
4179943.220547337
 30
0.0
 11
580687.837175705
 21
4179910.830716862
 31
0.0
  0
LINE
  5
214
330
1F
100
AcDbEntity
  8
BACA
 62
     5
370
     0
100
AcDbLine
 10
580687.837175705
 20
4179910.830716862
 30
0.0
 11
580690.6257041565
 21
4179911.903227805
 31
0.0
  0
LINE
  5
215
330
1F
100
AcDbEntity
  8
BACA
 62
     5
370
     0
100
AcDbLine
 10
580690.6257041565
 20
4179911.903227805
 30
0.0
 11
580691.8412165585
 21
4179913.190240936
 31
0.0
  0
LINE
  5
216
330
1F
100
AcDbEntity
  8
BACA
 62
     5
370
     0
100
AcDbLine
 10
580691.8412165585
 20
4179913.190240936
 30
0.0
 11
580700.7619656742
 21
4179930.008978123
 31
0.0
  0
LINE
  5
217
330
1F
100
AcDbEntity
  8
BACA
 62
     5
370
     0
100
AcDbLine
 10
580703.066831094
 20
4179934.354456876
 30
0.0
 11
580703.209832553
 21
4179936.213475843
 31
0.0
  0
LINE
  5
218
330
1F
100
AcDbEntity
  8
BACA
 62
     5
370
     0
100
AcDbLine
 10
580703.209832553
 20
4179936.213475843
 30
0.0
 11
580655.0183408526
 21
4179964.384763277
 31
0.0
  0
LINE
  5
219
330
1F
100
AcDbEntity
  8
BACA
 62
     5
370
     0
100
AcDbLine
 10
580655.0183408526
 20
4179964.384763277
 30
0.0
 11
580607.6848579063
 21
4179991.769542685
 31
0.0
  0
LINE
  5
21A
330
1F
100
AcDbEntity
  8
BACA
 62
     5
370
     0
100
AcDbLine
 10
580607.6848579063
 20
4179991.769542685
 30
0.0
 11
580590.3816813611
 21
4180001.851145549
 31
0.0
  0
LINE
  5
21B
330
1F
100
AcDbEntity
  8
BACA
 62
     5
370
     0
100
AcDbLine
 10
580704.5308422873
 20
4179929.62649312
 30
0.0
 11
580704.483831989
 21
4179929.532472523
 31
0.0
  0
LINE
  5
21C
330
1F
100
AcDbEntity
  8
BACA
 62
     5
370
     0
100
AcDbLine
 10
580704.483831989
 20
4179929.532472523
 30
0.0
 11
580706.6510812958
 21
4179928.227126399
 31
0.0
  0
LINE
  5
21D
330
1F
100
AcDbEntity
  8
BACA
 62
     5
370
     0
100
AcDbLine
 10
580706.6510812958
 20
4179928.227126399
 30
0.0
 11
580705.5268597534
 21
4179926.478337333
 31
0.0
  0
LINE
  5
21E
330
1F
100
AcDbEntity
  8
BACA
 62
     5
370
     0
100
AcDbLine
 10
580705.5268597534
 20
4179926.478337333
 30
0.0
 11
580703.6531571826
 21
4179927.540102123
 31
0.0
  0
LINE
  5
21F
330
1F
100
AcDbEntity
  8
BACA
 62
     5
370
     0
100
AcDbLine
 10
580703.6531571826
 20
4179927.540102123
 30
0.0
 11
580700.4678628125
 21
4179922.293734925
 31
0.0
  0
LINE
  5
220
330
1F
100
AcDbEntity
  8
BACA
 62
     5
370
     0
100
AcDbLine
 10
580700.4678628125
 20
4179922.293734925
 30
0.0
 11
580704.5275517156
 21
4179919.670551326
 31
0.0
  0
LINE
  5
221
330
1F
100
AcDbEntity
  8
BACA
 62
     5
370
     0
100
AcDbLine
 10
580704.5275517156
 20
4179919.670551326
 30
0.0
 11
580700.40540606
 21
4179912.61293831
 31
0.0
  0
LINE
  5
222
330
1F
100
AcDbEntity
  8
BACA
 62
     5
370
     0
100
AcDbLine
 10
580700.40540606
 20
4179912.61293831
 30
0.0
 11
580696.0958901475
 21
4179914.861381395
 31
0.0
  0
LINE
  5
223
330
1F
100
AcDbEntity
  8
BACA
 62
     5
370
     0
100
AcDbLine
 10
580698.4067899847
 20
4179918.17158927
 30
0.0
 11
580699.531011527
 21
4179920.29511885
 31
0.0
  0
LINE
  5
224
330
1F
100
AcDbEntity
  8
BACA
 62
     5
370
     0
100
AcDbLine
 10
580699.531011527
 20
4179920.29511885
 30
0.0
 11
580701.4671708501
 21
4179918.671243289
 31
0.0
  0
LINE
  5
225
330
1F
100
AcDbEntity
  8
BACA
 62
     5
370
     0
100
AcDbLine
 10
580701.4671708501
 20
4179918.671243289
 30
0.0
 11
580700.4678628125
 21
4179916.735083966
 31
0.0
  0
LINE
  5
226
330
1F
100
AcDbEntity
  8
BACA
 62
     5
370
     0
100
AcDbLine
 10
580700.4678628125
 20
4179916.735083966
 30
0.0
 11
580698.4067899847
 21
4179918.17158927
 31
0.0
  0
LINE
  5
227
330
1F
100
AcDbEntity
  8
BACA
 62
     5
370
     0
100
AcDbLine
 10
580696.0958901475
 20
4179914.861381395
 30
0.0
 11
580693.4727065485
 21
4179909.802384454
 31
0.0
  0
LINE
  5
228
330
1F
100
AcDbEntity
  8
BACA
 62
     5
370
     0
100
AcDbLine
 10
580693.4727065485
 20
4179909.802384454
 30
0.0
 11
580694.4095578338
 21
4179907.116744102
 31
0.0
  0
LINE
  5
229
330
1F
100
AcDbEntity
  8
BACA
 62
     5
370
     0
100
AcDbLine
 10
580694.4095578338
 20
4179907.116744102
 30
0.0
 11
580766.7344770634
 21
4179864.833522757
 31
0.0
  0
LINE
  5
22A
330
1F
100
AcDbEntity
  8
BACA
 62
     5
370
     0
100
AcDbLine
 10
580766.7344770634
 20
4179864.833522757
 30
0.0
 11
580821.75887589
 21
4179832.668295293
 31
0.0
  0
LINE
  5
22B
330
1F
100
AcDbEntity
  8
BACA
 62
     5
370
     0
100
AcDbLine
 10
580821.75887589
 20
4179832.668295293
 30
0.0
 11
580823.8824054701
 21
4179833.417776321
 31
0.0
  0
LINE
  5
22C
330
1F
100
AcDbEntity
  8
BACA
 62
     5
370
     0
100
AcDbLine
 10
580823.8824054701
 20
4179833.417776321
 30
0.0
 11
580825.5687377838
 21
4179835.041651882
 31
0.0
  0
LINE
  5
22D
330
1F
100
AcDbEntity
  8
BACA
 62
     5
370
     0
100
AcDbLine
 10
580825.5687377838
 20
4179835.041651882
 30
0.0
 11
580828.1294646304
 21
4179839.600994804
 31
0.0
  0
LINE
  5
22E
330
1F
100
AcDbEntity
  8
BACA
 62
     5
370
     0
100
AcDbLine
 10
580828.1294646304
 20
4179839.600994804
 30
0.0
 11
580826.3182188121
 21
4179840.787673099
 31
0.0
  0
LINE
  5
22F
330
1F
100
AcDbEntity
  8
BACA
 62
     5
370
     0
100
AcDbLine
 10
580826.3182188121
 20
4179840.787673099
 30
0.0
 11
580827.6922673639
 21
4179843.098572936
 31
0.0
  0
LINE
  5
230
330
1F
100
AcDbEntity
  8
BACA
 62
     5
370
     0
100
AcDbLine
 10
580827.6922673639
 20
4179843.098572936
 30
0.0
 11
580829.5035131823
 21
4179842.036808146
 31
0.0
  0
LINE
  5
231
330
1F
100
AcDbEntity
  8
BACA
 62
     5
370
     0
100
AcDbLine
 10
580829.5035131823
 20
4179842.036808146
 30
0.0
 11
580836.2488424368
 21
4179853.591307332
 31
0.0
  0
LINE
  5
232
330
1F
100
AcDbEntity
  8
BACA
 62
     5
370
     0
100
AcDbLine
 10
580836.2488424368
 20
4179853.591307332
 30
0.0
 11
580836.7484964557
 21
4179855.714836913
 31
0.0
  0
LINE
  5
233
330
1F
100
AcDbEntity
  8
BACA
 62
     5
370
     0
100
AcDbLine
 10
580836.7484964557
 20
4179855.714836913
 30
0.0
 11
580836.9983234651
 21
4179857.838366493
 31
0.0
  0
LINE
  5
234
330
1F
100
AcDbEntity
  8
BACA
 62
     5
370
     0
100
AcDbLine
 10
580836.9983234651
 20
4179857.838366493
 30
0.0
 11
580778.913543773
 21
4179891.877296527
 31
0.0
  0
LINE
  5
235
330
1F
100
AcDbEntity
  8
BACA
 62
     5
370
     0
100
AcDbLine
 10
580778.913543773
 20
4179891.877296527
 30
0.0
 11
580723.9516016988
 21
4179923.730240229
 31
0.0
  0
LINE
  5
236
330
1F
100
AcDbEntity
  8
BACA
 62
     5
370
     0
100
AcDbLine
 10
580723.9516016988
 20
4179923.730240229
 30
0.0
 11
580716.192474057
 21
4179928.443010688
 31
0.0
  0
LINE
  5
237
330
1F
100
AcDbEntity
  8
BACA
 62
     5
370
     0
100
AcDbLine
 10
580843.2614573964
 20
4179854.498167282
 30
0.0
 11
580841.1739813155
 21
4179854.302466399
 31
0.0
  0
LINE
  5
238
330
1F
100
AcDbEntity
  8
BACA
 62
     5
370
     0
100
AcDbLine
 10
580841.1739813155
 20
4179854.302466399
 30
0.0
 11
580839.151738862
 21
4179852.280223945
 31
0.0
  0
LINE
  5
239
330
1F
100
AcDbEntity
  8
BACA
 62
     5
370
     0
100
AcDbLine
 10
580839.151738862
 20
4179852.280223945
 30
0.0
 11
580843.1962237689
 21
4179849.670878844
 31
0.0
  0
LINE
  5
23A
330
1F
100
AcDbEntity
  8
BACA
 62
     5
370
     0
100
AcDbLine
 10
580843.1962237689
 20
4179849.670878844
 30
0.0
 11
580838.8908043519
 21
4179841.647142658
 31
0.0
  0
LINE
  5
23B
330
1F
100
AcDbEntity
  8
BACA
 62
     5
370
     0
100
AcDbLine
 10
580838.8908043519
 20
4179841.647142658
 30
0.0
 11
580834.5201513075
 21
4179844.452188642
 31
0.0
  0
LINE
  5
23C
330
1F
100
AcDbEntity
  8
BACA
 62
     5
370
     0
100
AcDbLine
 10
580837.5861318014
 20
4179849.018542569
 30
0.0
 11
580839.8040751374
 21
4179847.518169136
 31
0.0
  0
LINE
  5
23D
330
1F
100
AcDbEntity
  8
BACA
 62
     5
370
     0
100
AcDbLine
 10
580839.8040751374
 20
4179847.518169136
 30
0.0
 11
580840.3911777851
 21
4179848.561907176
 31
0.0
  0
LINE
  5
23E
330
1F
100
AcDbEntity
  8
BACA
 62
     5
370
     0
100
AcDbLine
 10
580840.3911777851
 20
4179848.561907176
 30
0.0
 11
580838.1732344491
 21
4179850.192747864
 31
0.0
  0
LINE
  5
23F
330
1F
100
AcDbEntity
  8
BACA
 62
     5
370
     0
100
AcDbLine
 10
580838.1732344491
 20
4179850.192747864
 30
0.0
 11
580837.5861318014
 21
4179849.018542569
 31
0.0
  0
LINE
  5
240
330
1F
100
AcDbEntity
  8
BACA
 62
     5
370
     0
100
AcDbLine
 10
580834.5201513075
 20
4179844.452188642
 30
0.0
 11
580827.7358540442
 21
4179832.318733921
 31
0.0
  0
LINE
  5
241
330
1F
100
AcDbEntity
  8
BACA
 62
     5
370
     0
100
AcDbLine
 10
580827.7358540442
 20
4179832.318733921
 30
0.0
 11
580827.2139850239
 21
4179830.361725096
 31
0.0
  0
LINE
  5
242
330
1F
100
AcDbEntity
  8
BACA
 62
     5
370
     0
100
AcDbLine
 10
580827.2139850239
 20
4179830.361725096
 30
0.0
 11
580828.0620221818
 21
4179828.796118035
 31
0.0
  0
LINE
  5
243
330
1F
100
AcDbEntity
  8
BACA
 62
     5
370
     0
100
AcDbLine
 10
580828.0620221818
 20
4179828.796118035
 30
0.0
 11
580874.965000376
 21
4179801.397994472
 31
0.0
  0
LINE
  5
244
330
1F
100
AcDbEntity
  8
BACA
 62
     5
370
     0
100
AcDbLine
 10
580874.965000376
 20
4179801.397994472
 30
0.0
 11
580924.673024554
 21
4179772.564731104
 31
0.0
  0
LINE
  5
245
330
1F
100
AcDbEntity
  8
BACA
 62
     5
370
     0
100
AcDbLine
 10
580924.673024554
 20
4179772.564731104
 30
0.0
 11
580944.6345145783
 21
4179760.757444521
 31
0.0
  0
LINE
  5
246
330
1F
100
AcDbEntity
  8
BACA
 62
     5
370
     0
100
AcDbLine
 10
580944.6345145783
 20
4179760.757444521
 30
0.0
 11
580947.7004950722
 21
4179761.931649817
 31
0.0
  0
LINE
  5
247
330
1F
100
AcDbEntity
  8
BACA
 62
     5
370
     0
100
AcDbLine
 10
580947.7004950722
 20
4179761.931649817
 30
0.0
 11
580949.0704012504
 21
4179763.301555995
 31
0.0
  0
LINE
  5
248
330
1F
100
AcDbEntity
  8
BACA
 62
     5
370
     0
100
AcDbLine
 10
580949.0704012504
 20
4179763.301555995
 30
0.0
 11
580959.9644170479
 21
4179781.632205331
 31
0.0
  0
LINE
  5
249
330
1F
100
AcDbEntity
  8
BACA
 62
     5
370
     0
100
AcDbLine
 10
580959.9644170479
 20
4179781.632205331
 30
0.0
 11
580959.8339497928
 21
4179786.720428278
 31
0.0
  0
LINE
  5
24A
330
1F
100
AcDbEntity
  8
BACA
 62
     5
370
     0
100
AcDbLine
 10
580959.8339497928
 20
4179786.720428278
 30
0.0
 11
580887.0984550967
 21
4179828.796118035
 31
0.0
  0
LINE
  5
24B
330
1F
100
AcDbEntity
  8
BACA
 62
     5
370
     0
100
AcDbLine
 10
580887.0984550967
 20
4179828.796118035
 30
0.0
 11
580843.2614573964
 21
4179854.498167282
 31
0.0
  0
LINE
  5
24C
330
1F
100
AcDbEntity
  8
BACA
 62
     5
370
     0
100
AcDbLine
 10
580967.0740332056
 20
4179782.092558295
 30
0.0
 11
580963.3969268037
 21
4179780.12573394
 31
0.0
  0
LINE
  5
24D
330
1F
100
AcDbEntity
  8
BACA
 62
     5
370
     0
100
AcDbLine
 10
580963.3969268037
 20
4179780.12573394
 30
0.0
 11
580951.2539242673
 21
4179760.457490395
 31
0.0
  0
LINE
  5
24E
330
1F
100
AcDbEntity
  8
BACA
 62
     5
370
     0
100
AcDbLine
 10
580951.2539242673
 20
4179760.457490395
 30
0.0
 11
580951.2539242673
 21
4179756.69486989
 31
0.0
  0
LINE
  5
24F
330
1F
100
AcDbEntity
  8
BACA
 62
     5
370
     0
100
AcDbLine
 10
580951.2539242673
 20
4179756.69486989
 30
0.0
 11
581003.0754703033
 21
4179726.508391754
 31
0.0
  0
LINE
  5
250
330
1F
100
AcDbEntity
  8
BACA
 62
     5
370
     0
100
AcDbLine
 10
581003.0754703033
 20
4179726.508391754
 30
0.0
 11
581035.4853151015
 21
4179707.438746925
 31
0.0
  0
LINE
  5
251
330
1F
100
AcDbEntity
  8
BACA
 62
     5
370
     0
100
AcDbLine
 10
581035.4853151015
 20
4179707.438746925
 30
0.0
 11
581063.1918842691
 21
4179691.447609782
 31
0.0
  0
LINE
  5
252
330
1F
100
AcDbEntity
  8
BACA
 62
     5
370
     0
100
AcDbLine
 10
581063.1918842691
 20
4179691.447609782
 30
0.0
 11
581065.244222726
 21
4179692.046208499
 31
0.0
  0
LINE
  5
253
330
1F
100
AcDbEntity
  8
BACA
 62
     5
370
     0
100
AcDbLine
 10
581065.244222726
 20
4179692.046208499
 30
0.0
 11
581067.1255329781
 21
4179693.756490546
 31
0.0
  0
LINE
  5
254
330
1F
100
AcDbEntity
  8
BACA
 62
     5
370
     0
100
AcDbLine
 10
581067.1255329781
 20
4179693.756490546
 30
0.0
 11
581078.4989085933
 21
4179713.510248194
 31
0.0
  0
LINE
  5
255
330
1F
100
AcDbEntity
  8
BACA
 62
     5
370
     0
100
AcDbLine
 10
581078.4989085933
 20
4179713.510248194
 30
0.0
 11
581079.1830214122
 21
4179716.674269981
 31
0.0
  0
LINE
  5
256
330
1F
100
AcDbEntity
  8
BACA
 62
     5
370
     0
100
AcDbLine
 10
581079.1830214122
 20
4179716.674269981
 30
0.0
 11
580992.4717216092
 21
4179767.298618584
 31
0.0
  0
LINE
  5
257
330
1F
100
AcDbEntity
  8
BACA
 62
     5
370
     0
100
AcDbLine
 10
580992.4717216092
 20
4179767.298618584
 30
0.0
 11
580967.0740332056
 21
4179782.092558295
 31
0.0
  0
LINE
  5
258
330
1F
100
AcDbEntity
  8
BACA
 62
     5
370
     0
100
AcDbLine
 10
580952.7589724684
 20
4179774.396289081
 30
0.0
 11
580959.343558351
 21
4179769.864041655
 31
0.0
  0
LINE
  5
259
330
1F
100
AcDbEntity
  8
BACA
 62
     5
370
     0
100
AcDbLine
 10
581130.091570552
 20
4179686.693860972
 30
0.0
 11
581131.2133446012
 21
4179680.212499799
 31
0.0
  0
LINE
  5
25A
330
1F
100
AcDbEntity
  8
BACA
 62
     5
370
     0
100
AcDbLine
 10
581131.2133446012
 20
4179680.212499799
 30
0.0
 11
581148.2297244832
 21
4179664.758009858
 31
0.0
  0
LINE
  5
25B
330
1F
100
AcDbEntity
  8
BACA
 62
     5
370
     0
100
AcDbLine
 10
581157.0141477322
 20
4179656.779886327
 30
0.0
 11
581162.124451734
 21
4179667.872985258
 31
0.0
  0
LINE
  5
25C
330
1F
100
AcDbEntity
  8
BACA
 62
     5
370
     0
100
AcDbLine
 10
581162.124451734
 20
4179667.872985258
 30
0.0
 11
581156.8509208151
 21
4179670.971441168
 31
0.0
  0
POLYLINE
  5
25D
330
1F
100
AcDbEntity
  8
BACA
 62
     5
370
     0
100
AcDb3dPolyline
 66
     1
 10
0.0
 20
0.0
 30
0.0
 70
     8
  0
VERTEX
  5
25E
330
25D
100
AcDbEntity
  8
BACA
 62
     5
100
AcDbVertex
100
AcDb3dPolylineVertex
 10
581130.2067953516
 20
4179691.142111144
 30
0.0
 70
    32
  0
VERTEX
  5
25F
330
25D
100
AcDbEntity
  8
BACA
 62
     5
100
AcDbVertex
100
AcDb3dPolylineVertex
 10
581179.8841896893
 20
4179661.880084342
 30
0.0
 70
    32
  0
VERTEX
  5
260
330
25D
100
AcDbEntity
  8
BACA
 62
     5
100
AcDbVertex
100
AcDb3dPolylineVertex
 10
581169.5385985898
 20
4179668.012198339
 30
0.0
 70
    32
  0
VERTEX
  5
261
330
25D
100
AcDbEntity
  8
BACA
 62
     5
100
AcDbVertex
100
AcDb3dPolylineVertex
 10
581217.4029840464
 20
4179639.641671687
 30
0.0
 70
    32
  0
SEQEND
  5
262
330
25D
100
AcDbEntity
  8
BACA
 62
     5
370
     0
  0
POLYLINE
  5
263
330
1F
100
AcDbEntity
  8
BACA
370
     0
100
AcDb3dPolyline
 66
     1
 10
0.0
 20
0.0
 30
0.0
 70
     8
  0
VERTEX
  5
264
330
263
100
AcDbEntity
  8
BACA
100
AcDbVertex
100
AcDb3dPolylineVertex
 10
581247.2078048271
 20
4179621.012844831
 30
0.0
 70
    32
  0
VERTEX
  5
265
330
263
100
AcDbEntity
  8
BACA
100
AcDbVertex
100
AcDb3dPolylineVertex
 10
581217.240540161
 20
4179639.732449152
 30
0.0
 70
    32
  0
VERTEX
  5
266
330
263
100
AcDbEntity
  8
BACA
100
AcDbVertex
100
AcDb3dPolylineVertex
 10
581221.640797121
 20
4179637.273482028
 30
0.0
 70
    32
  0
SEQEND
  5
267
330
263
100
AcDbEntity
  8
BACA
370
     0
  0
LINE
  5
268
330
1F
100
AcDbEntity
  8
BACA
 62
     5
370
     0
100
AcDbLine
 10
581326.4022222112
 20
4179629.327709021
 30
0.0
 11
581323.263667398
 21
4179651.887375521
 31
0.0
  0
LINE
  5
269
330
1F
100
AcDbEntity
  8
TAS_BACA
 62
     5
370
     0
100
AcDbLine
 10
581323.263667398
 20
4179651.887375521
 30
0.0
 11
581331.3402081213
 21
4179653.372178357
 31
0.0
  0
LINE
  5
26A
330
1F
100
AcDbEntity
  8
BACA
 62
     5
370
     0
100
AcDbLine
 10
581366.8850296973
 20
4179630.214138375
 30
0.0
 11
581373.803172613
 21
4179630.849092724
 31
0.0
  0
LINE
  5
26B
330
1F
100
AcDbEntity
  8
BACA
 62
     5
370
     0
100
AcDbLine
 10
581402.8248857663
 20
4179568.563549218
 30
0.0
 11
581394.2774727199
 21
4179566.15931883
 31
0.0
  0
LINE
  5
26C
330
1F
100
AcDbEntity
  8
BACA
370
     0
100
AcDbLine
 10
581401.9756638273
 20
4179549.901783033
 30
0.0
 11
581395.8240637399
 21
4179562.893128303
 31
0.0
  0
LINE
  5
26D
330
1F
100
AcDbEntity
  8
BACA
370
     0
100
AcDbLine
 10
581378.8048012438
 20
4179598.835502998
 30
0.0
 11
581373.8750654313
 21
4179609.638966587
 31
0.0
  0
LINE
  5
26E
330
1F
100
AcDbEntity
  8
TAS_BACA
 62
     5
370
     0
100
AcDbLine
 10
581373.8750654313
 20
4179609.638966587
 30
0.0
 11
581380.9906732859
 21
4179610.74622654
 31
0.0
  0
LINE
  5
26F
330
1F
100
AcDbEntity
  8
TAS_BACA
 62
     5
370
     0
100
AcDbLine
 10
581380.2582624782
 20
4179613.675869771
 30
0.0
 11
581372.5639654812
 21
4179612.418498481
 31
0.0
  0
LINE
  5
270
330
1F
100
AcDbEntity
  8
TAS_BACA
 62
     5
370
     0
100
AcDbLine
 10
581372.5639654812
 20
4179612.418498481
 30
0.0
 11
581366.8850296973
 21
4179630.214138375
 31
0.0
  0
LINE
  5
271
330
1F
100
AcDbEntity
  8
BACA
370
     0
100
AcDbLine
 10
581282.981578471
 20
4179565.316581558
 30
0.0
 11
581282.981578471
 21
4179566.293560916
 31
0.0
  0
LINE
  5
272
330
1F
100
AcDbEntity
  8
BACA
370
     0
100
AcDbLine
 10
581282.981578471
 20
4179566.293560916
 30
0.0
 11
581233.5313925444
 21
4179592.972612594
 31
0.0
  0
LINE
  5
273
330
1F
100
AcDbEntity
  8
BACA
370
     0
100
AcDbLine
 10
581233.5313925444
 20
4179592.972612594
 30
0.0
 11
581192.8566049767
 21
4179615.517382335
 31
0.0
  0
LINE
  5
274
330
1F
100
AcDbEntity
  8
BACA
370
     0
100
AcDbLine
 10
581279.7891105415
 20
4179564.348620472
 30
0.0
 11
581227.483138801
 21
4179591.779194732
 31
0.0
  0
LINE
  5
275
330
1F
100
AcDbEntity
  8
BACA
370
     0
100
AcDbLine
 10
581227.483138801
 20
4179591.779194732
 30
0.0
 11
581187.0839291445
 21
4179615.03571305
 31
0.0
  0
LINE
  5
276
330
1F
100
AcDbEntity
  8
BACA
 62
     5
370
     0
100
AcDbLine
 10
581126.177894683
 20
4179650.097347132
 30
0.0
 11
581130.9876392108
 21
4179639.951792268
 31
0.0
  0
LINE
  5
277
330
1F
100
AcDbEntity
  8
BACA
 62
     5
370
     0
100
AcDbLine
 10
581130.9876392108
 20
4179639.951792268
 30
0.0
 11
581165.33222123
 21
4179614.400024464
 31
0.0
  0
LINE
  5
278
330
1F
100
AcDbEntity
  8
BACA
 62
     5
370
     0
100
AcDbLine
 10
581165.33222123
 20
4179614.400024464
 30
0.0
 11
581168.7714753614
 21
4179625.577600391
 31
0.0
  0
LINE
  5
279
330
1F
100
AcDbEntity
  8
BACA
 62
     5
370
     0
100
AcDbLine
 10
581171.2986535082
 20
4179624.122785672
 30
0.0
 11
581168.1880070434
 21
4179613.197588332
 31
0.0
  0
LINE
  5
27A
330
1F
100
AcDbEntity
  8
BACA
 62
     5
370
     0
100
AcDbLine
 10
581168.1880070434
 20
4179613.197588332
 30
0.0
 11
581187.5021374131
 21
4179615.076394788
 31
0.0
  0
LINE
  5
27B
330
1F
100
AcDbEntity
  8
BACA
370
     0
100
AcDbLine
 10
581191.6745246463
 20
4179650.539406366
 30
0.0
 11
581201.5841758033
 21
4179644.737312391
 31
0.0
  0
LINE
  5
27C
330
1F
100
AcDbEntity
  8
BACA
 62
     5
370
     0
100
AcDbLine
 10
581278.804963691
 20
4179646.729118428
 30
0.0
 11
581212.1560693833
 21
4179651.785241444
 31
0.0
  0
LINE
  5
27D
330
1F
100
AcDbEntity
  8
BACA
 62
     5
370
     0
100
AcDbLine
 10
581229.4474393169
 20
4179647.621166263
 30
0.0
 11
581272.1656102352
 21
4179644.175520946
 31
0.0
  0
LINE
  5
27E
330
1F
100
AcDbEntity
  8
BACA
370
     0
100
AcDbLine
 10
581245.1444975389
 20
4179617.802164602
 30
0.0
 11
581261.085081728
 21
4179607.98426976
 31
0.0
  0
LINE
  5
27F
330
1F
100
AcDbEntity
  8
BACA
 62
     5
370
     0
100
AcDbLine
 10
581070.3816460144
 20
4179704.057976828
 30
0.0
 11
581077.9123188343
 21
4179699.772228069
 31
0.0
  0
LINE
  5
280
330
1F
100
AcDbEntity
  8
BACA
 62
     5
370
     0
100
AcDbLine
 10
580598.4941222287
 20
4179958.432647163
 30
0.0
 11
580751.2647256595
 21
4179869.235469057
 31
0.0
  0
LINE
  5
281
330
1F
100
AcDbEntity
  8
BACA
 62
     5
370
     0
100
AcDbLine
 10
580604.5150449957
 20
4179959.375709168
 30
0.0
 11
580632.2096081339
 21
4179943.220547337
 31
0.0
  0
LINE
  5
282
330
1F
100
AcDbEntity
  8
BACA
 62
     5
370
     0
100
AcDbLine
 10
580702.8399714687
 20
4179933.926747009
 30
0.0
 11
580703.066831094
 21
4179934.354456876
 31
0.0
  0
LINE
  5
283
330
1F
100
AcDbEntity
  8
BACA
 62
     5
370
     0
100
AcDbLine
 10
580700.7619656742
 20
4179930.008978123
 30
-14.07696723937988
 11
580701.6991121098
 21
4179931.775827454
 31
-14.15602111816406
  0
LINE
  5
284
330
1F
100
AcDbEntity
  8
BACA
 62
     5
370
     0
100
AcDbLine
 10
580702.1676853277
 20
4179932.659252119
 30
-14.07696723937988
 11
580702.8399714687
 21
4179933.926747009
 31
-14.15602111816406
  0
LINE
  5
285
330
1F
100
AcDbEntity
  8
BACA
 62
     5
370
     0
100
AcDbLine
 10
580704.5308422873
 20
4179929.62649312
 30
-14.07696723937988
 11
580705.5181908327
 21
4179931.365786899
 31
-14.15602111816406
  0
LINE
  5
286
330
1F
100
AcDbEntity
  8
BACA
 62
     5
370
     0
100
AcDbLine
 10
580705.9051840013
 20
4179932.047506454
 30
-14.07696723937988
 11
580707.8969704142
 21
4179932.228577946
 31
-14.15602111816406
  0
LINE
  5
287
330
1F
100
AcDbEntity
  8
BACA
 62
     5
370
     0
100
AcDbLine
 10
580708.8928636208
 20
4179932.319113692
 30
-14.07696723937988
 11
580708.961844804
 21
4179932.325384709
 31
-14.15602111816406
  0
LINE
  5
288
330
1F
100
AcDbEntity
  8
BACA
 62
     5
370
     0
100
AcDbLine
 10
580708.961844804
 20
4179932.325384709
 30
-14.07696723937988
 11
580710.7133275815
 21
4179931.35982369
 31
-14.15602111816406
  0
LINE
  5
289
330
1F
100
AcDbEntity
  8
BACA
 62
     5
370
     0
100
AcDbLine
 10
580711.5890689703
 20
4179930.877043181
 30
-14.07696723937988
 11
580713.3405517477
 21
4179929.911482163
 31
-14.15602111816406
  0
LINE
  5
28A
330
1F
100
AcDbEntity
  8
BACA
 62
     5
370
     0
100
AcDbLine
 10
580714.2162931365
 20
4179929.428701654
 30
-14.07696723937988
 11
580715.9677759139
 21
4179928.463140635
 31
-14.15602111816406
  0
LINE
  5
28B
330
1F
100
AcDbEntity
  8
BACA
 62
     5
370
     0
100
AcDbLine
 10
580722.0221227792
 20
4179929.176097821
 30
-14.07696723937988
 11
580720.2839933163
 21
4179930.165494592
 31
-14.15602111816406
  0
LINE
  5
28C
330
1F
100
AcDbEntity
  8
BACA
 62
     5
370
     0
100
AcDbLine
 10
580719.4149285849
 20
4179930.660192978
 30
-14.07696723937988
 11
580717.6767991222
 21
4179931.649589749
 31
-14.15602111816406
  0
LINE
  5
28D
330
1F
100
AcDbEntity
  8
BACA
 62
     5
370
     0
100
AcDbLine
 10
580716.8077343908
 20
4179932.144288134
 30
-14.07696723937988
 11
580716.0014272587
 21
4179932.603262963
 31
-14.15602111816406
  0
LINE
  5
28E
330
1F
100
AcDbEntity
  8
BACA
 62
     5
370
     0
100
AcDbLine
 10
580690.6946576261
 20
4179915.699002464
 30
-14.07696723937988
 11
580692.4445725777
 21
4179914.730602928
 31
-14.15602111816406
  0
LINE
  5
28F
330
1F
100
AcDbEntity
  8
BACA
 62
     5
370
     0
100
AcDbLine
 10
580693.3195300535
 20
4179914.246403159
 30
-14.07696723937988
 11
580695.0694450052
 21
4179913.278003623
 31
-14.15602111816406
  0
LINE
  5
290
330
1F
100
AcDbEntity
  8
BACA
 62
     5
370
     0
100
AcDbLine
 10
580695.944402481
 20
4179912.793803855
 30
-14.07696723937988
 11
580697.5092910173
 21
4179911.927797577
 31
-14.15602111816406
  0
POINT
  5
291
330
1F
100
AcDbEntity
  8
0
  6
Continuous
100
AcDbPoint
 10
580575.8997588826
 20
4179976.494885413
 30
0.0
  0
LINE
  5
292
330
1F
100
AcDbEntity
  8
BACA
370
     0
100
AcDbLine
 10
580576.7253250169
 20
4179990.125025906
 30
0.0
 11
580572.3637805159
 21
4179982.617449306
 31
0.0
  0
LINE
  5
293
330
1F
100
AcDbEntity
  8
BACA
370
     0
100
AcDbLine
 10
580572.3637805159
 20
4179982.617449306
 30
0.0
 11
580570.1472579004
 21
4179980.686929609
 31
0.0
  0
LINE
  5
294
330
1F
100
AcDbEntity
  8
BACA
 62
     5
370
     0
100
AcDbLine
 10
580568.0099173866
 20
4179976.712368588
 30
0.0
 11
580310.0493991261
 21
4180127.218223707
 31
0.0
  0
LINE
  5
295
330
1F
100
AcDbEntity
  8
BACA
 62
     5
370
     0
100
AcDbLine
 10
580310.0493991261
 20
4180127.218223707
 30
0.0
 11
580309.3384134492
 21
4180125.879897727
 31
0.0
  0
LINE
  5
296
330
1F
100
AcDbEntity
  8
BACA
 62
     5
370
     0
100
AcDbLine
 10
580312.9351645209
 20
4180131.944187324
 30
0.0
 11
580311.7641292881
 21
4180130.062166414
 31
0.0
  0
LINE
  5
297
330
1F
100
AcDbEntity
  8
BACA
 62
     5
370
     0
100
AcDbLine
 10
580311.7641292881
 20
4180130.062166414
 30
0.0
 11
580335.8958196176
 21
4180116.302502431
 31
0.0
  0
LINE
  5
298
330
1F
100
AcDbEntity
  8
BACA
370
     0
100
AcDbLine
 10
580335.8958196176
 20
4180116.302502431
 30
0.0
 11
580340.4540297068
 21
4180113.656910885
 31
0.0
  0
LINE
  5
299
330
1F
100
AcDbEntity
  8
BACA
 62
     5
370
     0
100
AcDbLine
 10
580446.6126840148
 20
4180052.042278621
 30
0.0
 11
580450.5356520442
 21
4180053.506072662
 31
0.0
  0
LINE
  5
29A
330
1F
100
AcDbEntity
  8
BACA
 62
     5
370
     0
100
AcDbLine
 10
580450.5356520442
 20
4180053.506072662
 30
0.0
 11
580457.7960704867
 21
4180074.584706849
 31
0.0
  0
LINE
  5
29B
330
1F
100
AcDbEntity
  8
BACA
 62
     5
370
     0
100
AcDbLine
 10
580457.7960704867
 20
4180074.584706849
 30
0.0
 11
580457.9717257716
 21
4180077.043880838
 31
0.0
  0
LINE
  5
29C
330
1F
100
AcDbEntity
  8
BACA
 62
     5
370
     0
100
AcDbLine
 10
580457.9717257716
 20
4180077.043880838
 30
0.0
 11
580457.3276563936
 21
4180079.561606588
 31
0.0
  0
LINE
  5
29D
330
1F
100
AcDbEntity
  8
BACA
 62
     5
370
     0
100
AcDbLine
 10
580457.3276563936
 20
4180079.561606588
 30
0.0
 11
580409.2566600932
 21
4180107.60790041
 31
0.0
  0
LINE
  5
29E
330
1F
100
AcDbEntity
  8
BACA
 62
     5
370
     0
100
AcDbLine
 10
580409.2566600932
 20
4180107.60790041
 30
0.0
 11
580382.6156085504
 21
4180123.358324289
 31
0.0
  0
LINE
  5
29F
330
1F
100
AcDbEntity
  8
BACA
 62
     5
370
     0
100
AcDbLine
 10
580382.6156085504
 20
4180123.358324289
 30
0.0
 11
580339.1702014189
 21
4180110.594040254
 31
0.0
  0
LINE
  5
2A0
330
1F
100
AcDbEntity
  8
BACA
370
     0
100
AcDbLine
 10
580339.1702014189
 20
4180110.594040254
 30
0.0
 11
580339.7557190353
 21
4180108.778935643
 31
0.0
  0
LINE
  5
2A1
330
1F
100
AcDbEntity
  8
BACA
 62
     5
370
     0
100
AcDbLine
 10
580337.9406144246
 20
4180115.043974138
 30
0.0
 11
580338.4675802793
 21
4180113.053214242
 31
0.0
  0
LINE
  5
2A2
330
1F
100
AcDbEntity
  8
BACA
 62
     5
370
     0
100
AcDbLine
 10
580338.4675802793
 20
4180113.053214242
 30
0.0
 11
580378.9268475675
 21
4180125.349084185
 31
0.0
  0
LINE
  5
2A3
330
1F
100
AcDbEntity
  8
BACA
 62
     5
370
     0
100
AcDbLine
 10
580378.9268475675
 20
4180125.349084185
 30
0.0
 11
580332.319645308
 21
4180152.517101583
 31
0.0
  0
LINE
  5
2A4
330
1F
100
AcDbEntity
  8
BACA
 62
     5
370
     0
100
AcDbLine
 10
580332.319645308
 20
4180152.517101583
 30
0.0
 11
580331.499920645
 21
4180151.287514588
 31
0.0
  0
LINE
  5
2A5
330
1F
100
AcDbEntity
  8
BACA
 62
     5
370
     0
100
AcDbLine
 10
580335.013026343
 20
4180157.376897798
 30
0.0
 11
580334.0176463953
 21
4180155.503241426
 31
0.0
  0
LINE
  5
2A6
330
1F
100
AcDbEntity
  8
BACA
 62
     5
370
     0
100
AcDbLine
 10
580334.0176463953
 20
4180155.503241426
 30
0.0
 11
580410.6033506108
 21
4180110.769695538
 31
0.0
  0
LINE
  5
2A7
330
1F
100
AcDbEntity
  8
BACA
 62
     5
370
     0
100
AcDbLine
 10
580410.6033506108
 20
4180110.769695538
 30
0.0
 11
580462.070349086
 21
4180081.08395239
 31
0.0
  0
LINE
  5
2A8
330
1F
100
AcDbEntity
  8
BACA
 62
     5
370
     0
100
AcDbLine
 10
580462.070349086
 20
4180081.08395239
 30
0.0
 11
580557.0843001762
 21
4180025.523851194
 31
0.0
  0
LINE
  5
2A9
330
1F
100
AcDbEntity
  8
BACA
 62
     5
370
     0
100
AcDbLine
 10
580557.0843001762
 20
4180025.523851194
 30
0.0
 11
580590.1671791726
 21
4180005.998187861
 31
0.0
  0
LINE
  5
2AA
330
1F
100
AcDbEntity
  8
BACA
 62
     5
370
     0
100
AcDbLine
 10
580582.9031176951
 20
4180006.329747277
 30
0.0
 11
580544.3760585409
 21
4180028.989279028
 31
0.0
  0
LINE
  5
2AB
330
1F
100
AcDbEntity
  8
BACA
 62
     5
370
     0
100
AcDbLine
 10
580544.3760585409
 20
4180028.989279028
 30
0.0
 11
580506.6687240493
 21
4180050.887637879
 31
0.0
  0
LINE
  5
2AC
330
1F
100
AcDbEntity
  8
BACA
 62
     5
370
     0
100
AcDbLine
 10
580506.6687240493
 20
4180050.887637879
 30
0.0
 11
580472.3573917325
 21
4180070.912340357
 31
0.0
  0
LINE
  5
2AD
330
1F
100
AcDbEntity
  8
BACA
 62
     5
370
     0
100
AcDbLine
 10
580472.3573917325
 20
4180070.912340357
 30
0.0
 11
580463.9259380575
 21
4180075.772136573
 31
0.0
  0
LINE
  5
2AE
330
1F
100
AcDbEntity
  8
BACA
 62
     5
370
     0
100
AcDbLine
 10
580463.9259380575
 20
4180075.772136573
 30
0.0
 11
580461.4082123073
 21
4180074.718204863
 31
0.0
  0
LINE
  5
2AF
330
1F
100
AcDbEntity
  8
BACA
 62
     5
370
     0
100
AcDbLine
 10
580461.4082123073
 20
4180074.718204863
 30
0.0
 11
580453.5037244868
 21
4180052.117224874
 31
0.0
  0
LINE
  5
2B0
330
1F
100
AcDbEntity
  8
BACA
 62
     5
370
     0
100
AcDbLine
 10
580453.5037244868
 20
4180052.117224874
 30
0.0
 11
580452.683999824
 21
4180049.658050885
 31
0.0
  0
LINE
  5
2B1
330
1F
100
AcDbEntity
  8
BACA
 62
     5
370
     0
100
AcDbLine
 10
580452.683999824
 20
4180049.658050885
 30
0.0
 11
580452.8011033472
 21
4180048.545567414
 31
0.0
  0
LINE
  5
2B2
330
1F
100
AcDbEntity
  8
BACA
 62
     5
370
     0
100
AcDbLine
 10
580452.8011033472
 20
4180048.545567414
 30
0.0
 11
580502.570100735
 21
4180019.269686597
 31
0.0
  0
LINE
  5
2B3
330
1F
100
AcDbEntity
  8
BACA
 62
     5
370
     0
100
AcDbLine
 10
580502.570100735
 20
4180019.269686597
 30
0.0
 11
580542.4438504069
 21
4179996.024637229
 31
0.0
  0
LINE
  5
2B4
330
1F
100
AcDbEntity
  8
BACA
 62
     5
370
     0
100
AcDbLine
 10
580542.4438504069
 20
4179996.024637229
 30
0.0
 11
580568.4282857657
 21
4179980.897371384
 31
0.0
  0
LINE
  5
2B5
330
1F
100
AcDbEntity
  8
BACA
 62
     5
370
     0
100
AcDbLine
 10
580568.4282857657
 20
4179980.897371384
 30
0.0
 11
580569.3065621902
 21
4179980.730080637
 31
0.0
  0
LINE
  5
2B6
330
1F
100
AcDbEntity
  8
BACA
 62
     5
370
     0
100
AcDbLine
 10
580569.3065621902
 20
4179980.730080637
 30
0.0
 11
580570.2684839885
 21
4179980.730080637
 31
0.0
  0
LINE
  5
2B7
330
1F
100
AcDbEntity
  8
BACA
 62
     5
370
     0
100
AcDbLine
 10
580451.9868323627
 20
4180063.118632468
 30
0.0
 11
580458.7085745982
 21
4180059.020009154
 31
0.0
  0
LINE
  5
2B8
330
1F
100
AcDbEntity
  8
BACA
 62
     5
370
     0
100
AcDbLine
 10
580343.5261816295
 20
4180111.873829588
 30
0.0
 11
580446.6126840148
 21
4180052.042278621
 31
0.0
  0
LINE
  5
2B9
330
1F
100
AcDbEntity
  8
BACA
 62
     5
370
     0
100
AcDbLine
 10
580582.9031439844
 20
4180006.329747277
 30
0.0
 11
580583.5393273314
 21
4180002.183447613
 31
0.0
  0
LINE
  5
2BA
330
1F
100
AcDbEntity
  8
BACA
 62
     5
370
     0
100
AcDbLine
 10
580583.5393273314
 20
4180002.183447613
 30
0.0
 11
580580.9101812175
 21
4179997.746763546
 31
0.0
  0
LINE
  5
2BB
330
1F
100
AcDbEntity
  8
BACA
 62
     5
370
     0
100
AcDbLine
 10
580580.9101812175
 20
4179997.746763546
 30
0.0
 11
580576.7253513061
 21
4179990.125025906
 31
0.0
  0
LINE
  5
2BC
330
1F
100
AcDbEntity
  8
BACA
 62
     5
370
     0
100
AcDbLine
 10
580573.35138614
 20
4179987.969626435
 30
0.0
 11
580580.8280204014
 21
4179983.697263999
 31
0.0
  0
LINE
  5
2BD
330
1F
100
AcDbEntity
  8
DESANDRE
370
     0
100
AcDbLine
 10
581233.9627188394
 20
4179594.595771213
 30
-14.07696723937988
 11
581232.9200652223
 21
4179593.292454191
 31
-14.15602111816406
  0
TEXT
  5
2BE
330
1F
100
AcDbEntity
  8
DESANDRE
  6
Continuous
100
AcDbText
 10
581220.8377188394
 20
4179593.095771213
 30
0.0
 40
3.0
  1
YEMEKHANE4
100
AcDbText
  0
LINE
  5
2BF
330
1F
100
AcDbEntity
  8
DESANDRE
370
     0
100
AcDbLine
 10
581218.8183491162
 20
4179640.730903937
 30
-14.07696723937988
 11
581217.8821819392
 21
4179639.460391339
 31
-14.15602111816406
  0
TEXT
  5
2C0
330
1F
100
AcDbEntity
  8
DESANDRE
  6
Continuous
100
AcDbText
 10
581205.6933491162
 20
4179639.230903937
 30
0.0
 40
3.0
  1
YEMEKHANE5
100
AcDbText
  0
LINE
  5
2C1
330
1F
100
AcDbEntity
  8
DESANDRE
370
     0
100
AcDbLine
 10
581215.8761094172
 20
4179635.8494608
 30
-14.07696723937988
 11
581214.6055968199
 21
4179634.244602782
 31
-14.15602111816406
  0
TEXT
  5
2C2
330
1F
100
AcDbEntity
  8
DESANDRE
  6
Continuous
100
AcDbText
 10
581210.6261094172
 20
4179634.3494608
 30
0.0
 40
3.0
  1
DESN
100
AcDbText
  0
LINE
  5
2C3
330
1F
100
AcDbEntity
  8
DESANDRE
370
     0
100
AcDbLine
 10
581322.3472344176
 20
4179651.561539317
 30
-14.07696723937988
 11
581323.0346505096
 21
4179646.609018836
 31
-14.15602111816406
  0
LINE
  5
2C4
330
1F
100
AcDbEntity
  8
DESANDRE
370
     0
100
AcDbLine
 10
581323.172133728
 20
4179645.61851474
 30
-14.07696723937988
 11
581323.2408753373
 21
4179645.123262692
 31
-14.15602111816406
  0
LINE
  5
2C5
330
1F
100
AcDbEntity
  8
DESANDRE
370
     0
100
AcDbLine
 10
581323.3783585557
 20
4179644.132758596
 30
-14.07696723937988
 11
581324.0657746478
 21
4179639.180238114
 31
-14.15602111816406
  0
LINE
  5
2C6
330
1F
100
AcDbEntity
  8
DESANDRE
370
     0
100
AcDbLine
 10
581324.2032578662
 20
4179638.189734018
 30
-14.07696723937988
 11
581324.2719994754
 21
4179637.69448197
 31
-14.15602111816406
  0
LINE
  5
2C7
330
1F
100
AcDbEntity
  8
DESANDRE
370
     0
100
AcDbLine
 10
581324.4094826938
 20
4179636.703977874
 30
-14.07696723937988
 11
581325.0968987858
 21
4179631.751457393
 31
-14.15602111816406
  0
LINE
  5
2C8
330
1F
100
AcDbEntity
  8
DESANDRE
370
     0
100
AcDbLine
 10
581325.2343820041
 20
4179630.760953296
 30
-14.07696723937988
 11
581325.3031236134
 21
4179630.265701248
 31
-14.15602111816406
  0
LINE
  5
2C9
330
1F
100
AcDbEntity
  8
DESANDRE
370
     0
100
AcDbLine
 10
581325.4406068317
 20
4179629.275197152
 30
-14.07696723937988
 11
581325.4411530949
 21
4179629.271261575
 31
-14.15602111816406
  0
LINE
  5
2CA
330
1F
100
AcDbEntity
  8
BACA
 62
     5
370
     0
100
AcDbLine
 10
581187.0839291445
 20
4179615.03571305
 30
0.0
 11
581171.2986535082
 21
4179624.122785672
 31
0.0
  0
LINE
  5
2CB
330
1F
100
AcDbEntity
  8
TAS_BACA
 62
     5
370
     0
100
AcDbLine
 10
581373.6617960996
 20
4179634.008224991
 30
0.0
 11
581326.4022222112
 21
4179629.327709021
 31
0.0
  0
LINE
  5
2CC
330
1F
100
AcDbEntity
  8
DESANDRE
370
     0
100
AcDbLine
 10
581170.0477176023
 20
4179624.605610226
 30
-14.07696723937988
 11
581168.7594043496
 21
4179619.774435528
 31
-14.15602111816406
  0
LINE
  5
2CD
330
1F
100
AcDbEntity
  8
DESANDRE
370
     0
100
AcDbLine
 10
581168.5017416991
 20
4179618.808200588
 30
-14.07696723937988
 11
581168.3729103737
 21
4179618.325083118
 31
-14.15602111816406
  0
LINE
  5
2CE
330
1F
100
AcDbEntity
  8
DESANDRE
370
     0
100
AcDbLine
 10
581168.1152477232
 20
4179617.358848179
 30
-14.07696723937988
 11
581167.1543250481
 21
4179613.755388147
 31
-14.15602111816406
  0
LINE
  5
2CF
330
1F
100
AcDbEntity
  8
BACA
 62
     5
370
     0
100
AcDbLine
 10
581168.7714753614
 20
4179625.577600391
 30
0.0
 11
581126.177894683
 21
4179650.097347132
 31
0.0
  0
LINE
  5
2D0
330
1F
100
AcDbEntity
  8
BACA
 62
     5
370
     0
100
AcDbLine
 10
581167.8295484636
 20
4179663.871795068
 30
0.0
 11
581171.1127452275
 21
4179668.103470897
 31
0.0
  0
LINE
  5
2D1
330
1F
100
AcDbEntity
  8
BACA
 62
     5
370
     0
100
AcDbLine
 10
581168.5989724781
 20
4179663.102371053
 30
0.0
 11
581171.882169242
 21
4179667.334046883
 31
0.0
  0
POLYLINE
  5
2D2
330
1F
100
AcDbEntity
  8
TAS_BACA
 62
     5
370
     0
100
AcDb3dPolyline
 66
     1
 10
0.0
 20
0.0
 30
0.0
 70
     8
  0
VERTEX
  5
2D3
330
2D2
100
AcDbEntity
  8
TAS_BACA
 62
     5
100
AcDbVertex
100
AcDb3dPolylineVertex
 10
581292.8775630548
 20
4179622.490546501
 30
0.0
 70
    32
  0
VERTEX
  5
2D4
330
2D2
100
AcDbEntity
  8
TAS_BACA
 62
     5
100
AcDbVertex
100
AcDb3dPolylineVertex
 10
581357.6870720623
 20
4179541.069668195
 30
0.0
 70
    32
  0
VERTEX
  5
2D5
330
2D2
100
AcDbEntity
  8
TAS_BACA
 62
     5
100
AcDbVertex
100
AcDb3dPolylineVertex
 10
581378.743430456
 20
4179512.974640423
 30
0.0
 70
    32
  0
VERTEX
  5
2D6
330
2D2
100
AcDbEntity
  8
TAS_BACA
 62
     5
100
AcDbVertex
100
AcDb3dPolylineVertex
 10
581382.8195057648
 20
4179507.459950299
 30
0.0
 70
    32
  0
SEQEND
  5
2D7
330
2D2
100
AcDbEntity
  8
TAS_BACA
 62
     5
370
     0
  0
POLYLINE
  5
2D8
330
1F
100
AcDbEntity
  8
TAS_BACA
 62
     5
370
     0
100
AcDb3dPolyline
 66
     1
 10
0.0
 20
0.0
 30
0.0
 70
     8
  0
VERTEX
  5
2D9
330
2D8
100
AcDbEntity
  8
TAS_BACA
 62
     5
100
AcDbVertex
100
AcDb3dPolylineVertex
 10
581384.8039711323
 20
4179510.879790012
 30
0.0
 70
    32
  0
VERTEX
  5
2DA
330
2D8
100
AcDbEntity
  8
TAS_BACA
 62
     5
100
AcDbVertex
100
AcDb3dPolylineVertex
 10
581383.4884520604
 20
4179511.882090257
 30
0.0
 70
    32
  0
VERTEX
  5
2DB
330
2D8
100
AcDbEntity
  8
TAS_BACA
 62
     5
100
AcDbVertex
100
AcDb3dPolylineVertex
 10
581363.0857647981
 20
4179539.563742379
 30
0.0
 70
    32
  0
VERTEX
  5
2DC
330
2D8
100
AcDbEntity
  8
TAS_BACA
 62
     5
100
AcDbVertex
100
AcDb3dPolylineVertex
 10
581373.9306491364
 20
4179541.347251209
 30
0.0
 70
    32
  0
VERTEX
  5
2DD
330
2D8
100
AcDbEntity
  8
TAS_BACA
 62
     5
100
AcDbVertex
100
AcDb3dPolylineVertex
 10
581398.3077168668
 20
4179545.510259988
 30
0.0
 70
    32
  0
VERTEX
  5
2DE
330
2D8
100
AcDbEntity
  8
TAS_BACA
 62
     5
100
AcDbVertex
100
AcDb3dPolylineVertex
 10
581403.7744635555
 20
4179547.189613717
 30
0.0
 70
    32
  0
SEQEND
  5
2DF
330
2D8
100
AcDbEntity
  8
TAS_BACA
 62
     5
370
     0
  0
LINE
  5
2E0
330
1F
100
AcDbEntity
  8
DESANDRE
370
     0
100
AcDbLine
 10
581382.6421788702
 20
4179510.173967138
 30
-14.07696723937988
 11
581379.6920959235
 21
4179514.21092275
 31
-14.15602111816406
  0
LINE
  5
2E1
330
1F
100
AcDbEntity
  8
DESANDRE
370
     0
100
AcDbLine
 10
581379.1020793341
 20
4179515.018313872
 30
-14.07696723937988
 11
581378.8070710395
 21
4179515.422009433
 31
-14.15602111816406
  0
LINE
  5
2E2
330
1F
100
AcDbEntity
  8
DESANDRE
370
     0
100
AcDbLine
 10
581378.2170544501
 20
4179516.229400556
 30
-14.07696723937988
 11
581375.2669715034
 21
4179520.266356167
 31
-14.15602111816406
  0
LINE
  5
2E3
330
1F
100
AcDbEntity
  8
DESANDRE
370
     0
100
AcDbLine
 10
581374.676954914
 20
4179521.073747289
 30
-14.07696723937988
 11
581374.3819466194
 21
4179521.47744285
 31
-14.15602111816406
  0
LINE
  5
2E4
330
1F
100
AcDbEntity
  8
DESANDRE
370
     0
100
AcDbLine
 10
581373.79193003
 20
4179522.284833973
 30
-14.07696723937988
 11
581370.8418470833
 21
4179526.321789584
 31
-14.15602111816406
  0
LINE
  5
2E5
330
1F
100
AcDbEntity
  8
DESANDRE
370
     0
100
AcDbLine
 10
581370.2518304939
 20
4179527.129180706
 30
-14.07696723937988
 11
581369.9568221993
 21
4179527.532876267
 31
-14.15602111816406
  0
LINE
  5
2E6
330
1F
100
AcDbEntity
  8
DESANDRE
370
     0
100
AcDbLine
 10
581369.3668056099
 20
4179528.34026739
 30
-14.07696723937988
 11
581366.4167226632
 21
4179532.377223001
 31
-14.15602111816406
  0
LINE
  5
2E7
330
1F
100
AcDbEntity
  8
DESANDRE
370
     0
100
AcDbLine
 10
581365.8267060738
 20
4179533.184614123
 30
-14.07696723937988
 11
581365.5316977792
 21
4179533.588309684
 31
-14.15602111816406
  0
LINE
  5
2E8
330
1F
100
AcDbEntity
  8
DESANDRE
370
     0
100
AcDbLine
 10
581364.9416811898
 20
4179534.395700806
 30
-14.07696723937988
 11
581362.3372774015
 21
4179537.95962178
 31
-14.15602111816406
  0
LINE
  5
2E9
330
1F
100
AcDbEntity
  8
DESANDRE
370
     0
100
AcDbLine
 10
581360.2255676487
 20
4179541.32382335
 30
-14.07696723937988
 11
581357.0779589902
 21
4179545.208737729
 31
-14.15602111816406
  0
LINE
  5
2EA
330
1F
100
AcDbEntity
  8
DESANDRE
370
     0
100
AcDbLine
 10
581356.4484372586
 20
4179545.985720605
 30
-14.07696723937988
 11
581356.1336763927
 21
4179546.374212042
 31
-14.15602111816406
  0
LINE
  5
2EB
330
1F
100
AcDbEntity
  8
DESANDRE
370
     0
100
AcDbLine
 10
581355.5041546611
 20
4179547.151194918
 30
-14.07696723937988
 11
581352.3565460027
 21
4179551.036109298
 31
-14.15602111816406
  0
LINE
  5
2EC
330
1F
100
AcDbEntity
  8
DESANDRE
370
     0
100
AcDbLine
 10
581351.727024271
 20
4179551.813092174
 30
-14.07696723937988
 11
581351.4122634052
 21
4179552.201583611
 31
-14.15602111816406
  0
LINE
  5
2ED
330
1F
100
AcDbEntity
  8
DESANDRE
370
     0
100
AcDbLine
 10
581350.7827416734
 20
4179552.978566487
 30
-14.07696723937988
 11
581347.635133015
 21
4179556.863480866
 31
-14.15602111816406
  0
LINE
  5
2EE
330
1F
100
AcDbEntity
  8
DESANDRE
370
     0
100
AcDbLine
 10
581347.0056112832
 20
4179557.640463742
 30
-14.07696723937988
 11
581346.6908504174
 21
4179558.02895518
 31
-14.15602111816406
  0
LINE
  5
2EF
330
1F
100
AcDbEntity
  8
DESANDRE
370
     0
100
AcDbLine
 10
581346.0613286857
 20
4179558.805938056
 30
-14.07696723937988
 11
581342.9137200273
 21
4179562.690852435
 31
-14.15602111816406
  0
LINE
  5
2F0
330
1F
100
AcDbEntity
  8
DESANDRE
370
     0
100
AcDbLine
 10
581342.2841982956
 20
4179563.467835311
 30
-14.07696723937988
 11
581341.9694374297
 21
4179563.856326749
 31
-14.15602111816406
  0
LINE
  5
2F1
330
1F
100
AcDbEntity
  8
DESANDRE
370
     0
100
AcDbLine
 10
581341.339915698
 20
4179564.633309625
 30
-14.07696723937988
 11
581338.1923070395
 21
4179568.518224004
 31
-14.15602111816406
  0
LINE
  5
2F2
330
1F
100
AcDbEntity
  8
DESANDRE
370
     0
100
AcDbLine
 10
581337.5627853079
 20
4179569.29520688
 30
-14.07696723937988
 11
581337.248024442
 21
4179569.683698318
 31
-14.15602111816406
  0
LINE
  5
2F3
330
1F
100
AcDbEntity
  8
DESANDRE
370
     0
100
AcDbLine
 10
581336.6185027104
 20
4179570.460681194
 30
-14.07696723937988
 11
581333.4708940518
 21
4179574.345595573
 31
-14.15602111816406
  0
LINE
  5
2F4
330
1F
100
AcDbEntity
  8
DESANDRE
370
     0
100
AcDbLine
 10
581332.8413723202
 20
4179575.122578449
 30
-14.07696723937988
 11
581332.5266114543
 21
4179575.511069887
 31
-14.15602111816406
  0
LINE
  5
2F5
330
1F
100
AcDbEntity
  8
DESANDRE
370
     0
100
AcDbLine
 10
581331.8970897226
 20
4179576.288052763
 30
-14.07696723937988
 11
581328.7494810642
 21
4179580.172967142
 31
-14.15602111816406
  0
LINE
  5
2F6
330
1F
100
AcDbEntity
  8
DESANDRE
370
     0
100
AcDbLine
 10
581328.1199593324
 20
4179580.949950018
 30
-14.07696723937988
 11
581327.8051984665
 21
4179581.338441456
 31
-14.15602111816406
  0
LINE
  5
2F7
330
1F
100
AcDbEntity
  8
DESANDRE
370
     0
100
AcDbLine
 10
581327.1756767349
 20
4179582.115424332
 30
-14.07696723937988
 11
581324.0280680765
 21
4179586.000338711
 31
-14.15602111816406
  0
LINE
  5
2F8
330
1F
100
AcDbEntity
  8
DESANDRE
370
     0
100
AcDbLine
 10
581323.3985463447
 20
4179586.777321587
 30
-14.07696723937988
 11
581323.0837854788
 21
4179587.165813025
 31
-14.15602111816406
  0
LINE
  5
2F9
330
1F
100
AcDbEntity
  8
DESANDRE
370
     0
100
AcDbLine
 10
581322.4542637472
 20
4179587.942795901
 30
-14.07696723937988
 11
581319.3066550887
 21
4179591.82771028
 31
-14.15602111816406
  0
LINE
  5
2FA
330
1F
100
AcDbEntity
  8
DESANDRE
370
     0
100
AcDbLine
 10
581318.677133357
 20
4179592.604693156
 30
-14.07696723937988
 11
581318.3623724912
 21
4179592.993184594
 31
-14.15602111816406
  0
LINE
  5
2FB
330
1F
100
AcDbEntity
  8
DESANDRE
370
     0
100
AcDbLine
 10
581317.7328507595
 20
4179593.77016747
 30
-14.07696723937988
 11
581314.585242101
 21
4179597.655081848
 31
-14.15602111816406
  0
LINE
  5
2FC
330
1F
100
AcDbEntity
  8
DESANDRE
370
     0
100
AcDbLine
 10
581313.9557203694
 20
4179598.432064724
 30
-14.07696723937988
 11
581313.6409595035
 21
4179598.820556162
 31
-14.15602111816406
  0
LINE
  5
2FD
330
1F
100
AcDbEntity
  8
DESANDRE
370
     0
100
AcDbLine
 10
581313.0114377717
 20
4179599.597539038
 30
-14.07696723937988
 11
581309.8638291133
 21
4179603.482453417
 31
-14.15602111816406
  0
LINE
  5
2FE
330
1F
100
AcDbEntity
  8
DESANDRE
370
     0
100
AcDbLine
 10
581309.2343073816
 20
4179604.259436293
 30
-14.07696723937988
 11
581308.9195465157
 21
4179604.64792773
 31
-14.15602111816406
  0
LINE
  5
2FF
330
1F
100
AcDbEntity
  8
DESANDRE
370
     0
100
AcDbLine
 10
581308.290024784
 20
4179605.424910606
 30
-14.07696723937988
 11
581305.1424161256
 21
4179609.309824985
 31
-14.15602111816406
  0
LINE
  5
300
330
1F
100
AcDbEntity
  8
DESANDRE
370
     0
100
AcDbLine
 10
581304.5128943939
 20
4179610.086807861
 30
-14.07696723937988
 11
581304.198133528
 21
4179610.475299298
 31
-14.15602111816406
  0
LINE
  5
301
330
1F
100
AcDbEntity
  8
DESANDRE
370
     0
100
AcDbLine
 10
581303.5686117964
 20
4179611.252282174
 30
-14.07696723937988
 11
581300.4210031378
 21
4179615.137196553
 31
-14.15602111816406
  0
LINE
  5
302
330
1F
100
AcDbEntity
  8
DESANDRE
370
     0
100
AcDbLine
 10
581299.7914814062
 20
4179615.914179429
 30
-14.07696723937988
 11
581299.4767205403
 21
4179616.302670867
 31
-14.15602111816406
  0
LINE
  5
303
330
1F
100
AcDbEntity
  8
DESANDRE
370
     0
100
AcDbLine
 10
581298.8471988087
 20
4179617.079653743
 30
-14.07696723937988
 11
581297.5153485782
 21
4179618.723480747
 31
-14.15602111816406
  0
LINE
  5
304
330
1F
100
AcDbEntity
  8
TAS_BACA
 62
     5
370
     0
100
AcDbLine
 10
581296.6876695796
 20
4179622.896172037
 30
0.0
 11
581325.6138647544
 21
4179625.975666882
 31
0.0
  0
POLYLINE
  5
305
330
1F
100
AcDbEntity
  8
TAS_BACA
 62
     5
370
     0
100
AcDb3dPolyline
 66
     1
 10
0.0
 20
0.0
 30
0.0
 70
     8
  0
VERTEX
  5
306
330
305
100
AcDbEntity
  8
TAS_BACA
 62
     5
100
AcDbVertex
100
AcDb3dPolylineVertex
 10
581399.0577753105
 20
4179548.912539389
 30
0.0
 70
    32
  0
VERTEX
  5
307
330
305
100
AcDbEntity
  8
TAS_BACA
 62
     5
100
AcDbVertex
100
AcDb3dPolylineVertex
 10
581395.9515521175
 20
4179548.313797791
 30
0.0
 70
    32
  0
VERTEX
  5
308
330
305
100
AcDbEntity
  8
TAS_BACA
 62
     5
100
AcDbVertex
100
AcDb3dPolylineVertex
 10
581360.9968041906
 20
4179542.497948093
 30
0.0
 70
    32
  0
VERTEX
  5
309
330
305
100
AcDbEntity
  8
TAS_BACA
 62
     5
100
AcDbVertex
100
AcDb3dPolylineVertex
 10
581340.1889863827
 20
4179568.375993842
 30
0.0
 70
    32
  0
VERTEX
  5
30A
330
305
100
AcDbEntity
  8
TAS_BACA
 62
     5
100
AcDbVertex
100
AcDb3dPolylineVertex
 10
581330.367490917
 20
4179580.796395362
 30
0.0
 70
    32
  0
VERTEX
  5
30B
330
305
100
AcDbEntity
  8
TAS_BACA
 62
     5
100
AcDbVertex
100
AcDb3dPolylineVertex
 10
581296.6876695795
 20
4179622.896172037
 30
0.0
 70
    32
  0
SEQEND
  5
30C
330
305
100
AcDbEntity
  8
TAS_BACA
 62
     5
370
     0
  0
LINE
  5
30D
330
1F
100
AcDbEntity
  8
BACA
370
     0
100
AcDbLine
 10
581394.2774727198
 20
4179566.15931883
 30
0.0
 11
581378.8048012438
 21
4179598.835502998
 31
0.0
  0
LINE
  5
30E
330
1F
100
AcDbEntity
  8
TAS_BACA
 62
     5
370
     0
100
AcDbLine
 10
581382.8195057648
 20
4179507.459950299
 30
0.0
 11
581434.3220763576
 21
4179517.024713409
 31
0.0
  0
LINE
  5
30F
330
1F
100
AcDbEntity
  8
TAS_BACA
 62
     5
370
     0
100
AcDbLine
 10
581384.8039711323
 20
4179510.879790012
 30
0.0
 11
581433.7641962679
 21
4179519.972403252
 31
0.0
  0
LINE
  5
310
330
1F
100
AcDbEntity
  8
TAS_BACA
 62
     5
370
     0
100
AcDbLine
 10
581434.3220763576
 20
4179517.024713409
 30
0.0
 11
581469.3932060663
 21
4179523.786793974
 31
0.0
  0
LINE
  5
311
330
1F
100
AcDbEntity
  8
TAS_BACA
 62
     5
370
     0
100
AcDbLine
 10
581433.7641962679
 20
4179519.972403252
 30
0.0
 11
581468.8707020631
 21
4179526.741304696
 31
0.0
  0
LINE
  5
312
330
1F
100
AcDbEntity
  8
BACA
 62
     5
370
     0
100
AcDbLine
 10
581469.3932060663
 20
4179523.786793974
 30
0.0
 11
581474.429810875
 21
4179524.597564504
 31
0.0
  0
LINE
  5
313
330
1F
100
AcDbEntity
  8
TAS_BACA
 62
     5
370
     0
100
AcDbLine
 10
581468.8707020631
 20
4179526.741304696
 30
0.0
 11
581507.9083614823
 21
4179533.025415724
 31
0.0
  0
LINE
  5
314
330
1F
100
AcDbEntity
  8
TAS_BACA
 62
     5
370
     0
100
AcDbLine
 10
581516.3656757559
 20
4179531.348215925
 30
0.0
 11
581522.9627701169
 21
4179532.236286319
 31
0.0
  0
LINE
  5
315
330
1F
100
AcDbEntity
  8
TAS_BACA
 62
     5
370
     0
100
AcDbLine
 10
581515.9270904016
 20
4179534.316235501
 30
0.0
 11
581521.2556073029
 21
4179535.033535853
 31
0.0
  0
LINE
  5
316
330
1F
100
AcDbEntity
  8
BACA
370
     0
100
AcDbLine
 10
581403.7744635555
 20
4179547.189613717
 30
0.0
 11
581441.495273471
 21
4179554.34830757
 31
0.0
  0
LINE
  5
317
330
1F
100
AcDbEntity
  8
BACA
370
     0
100
AcDbLine
 10
581401.9756638273
 20
4179549.901783033
 30
0.0
 11
581440.9008520074
 21
4179557.289045024
 31
0.0
  0
LINE
  5
318
330
1F
100
AcDbEntity
  8
BACA
370
     0
100
AcDbLine
 10
581441.495273471
 20
4179554.34830757
 30
0.0
 11
581469.2060474663
 21
4179560.293528172
 31
0.0
  0
LINE
  5
319
330
1F
100
AcDbEntity
  8
BACA
370
     0
100
AcDbLine
 10
581440.9008520074
 20
4179557.289045024
 30
0.0
 11
581478.7321250567
 21
4179565.405572697
 31
0.0
  0
LINE
  5
31A
330
1F
100
AcDbEntity
  8
BACA
370
     0
100
AcDbLine
 10
581479.3457642009
 20
4179562.468958308
 30
0.0
 11
581483.7804806113
 21
4179563.364395933
 31
0.0
  0
LINE
  5
31B
330
1F
100
AcDbEntity
  8
BACA
370
     0
100
AcDbLine
 10
581478.7321250567
 20
4179565.405572697
 30
0.0
 11
581482.515473032
 21
4179566.1750672
 31
0.0
  0
LINE
  5
31C
330
1F
100
AcDbEntity
  8
BACA
370
     0
100
AcDbLine
 10
581474.429810875
 20
4179524.597564504
 30
0.0
 11
581482.1214524541
 21
4179518.734081214
 31
0.0
  0
LINE
  5
31D
330
1F
100
AcDbEntity
  8
BACA
370
     0
100
AcDbLine
 10
581478.5154953189
 20
4179525.255260049
 30
0.0
 11
581483.958547546
 21
4179521.105918786
 31
0.0
  0
LINE
  5
31E
330
1F
100
AcDbEntity
  8
BACA
370
     0
100
AcDbLine
 10
581482.1214524541
 20
4179518.734081214
 30
0.0
 11
581492.2070294217
 21
4179510.797561776
 31
0.0
  0
LINE
  5
31F
330
1F
100
AcDbEntity
  8
BACA
370
     0
100
AcDbLine
 10
581483.958547546
 20
4179521.105918786
 30
0.0
 11
581494.0529705782
 21
4179513.162438224
 31
0.0
  0
LINE
  5
320
330
1F
100
AcDbEntity
  8
TAS_BACA
370
     0
100
AcDbLine
 10
581492.2070294217
 20
4179510.797561776
 30
0.0
 11
581581.3232611882
 21
4179441.799119167
 31
0.0
  0
LINE
  5
321
330
1F
100
AcDbEntity
  8
TAS_BACA
370
     0
100
AcDbLine
 10
581494.0529705782
 20
4179513.162438224
 30
0.0
 11
581580.7967388119
 21
4179446.000880833
 31
0.0
  0
LINE
  5
322
330
1F
100
AcDbEntity
  8
TAS_BACA
 62
     5
370
     0
100
AcDbLine
 10
581478.5154953187
 20
4179525.255260049
 30
0.0
 11
581511.4190433914
 21
4179530.551928763
 31
0.0
  0
POINT
  5
323
330
1F
100
AcDbEntity
  8
BACA
  6
Continuous
100
AcDbPoint
 10
581533.4441308912
 20
4179480.832907573
 30
-20.39999961853027
  0
LINE
  5
324
330
1F
100
AcDbEntity
  8
TAS_BACA
370
     0
100
AcDbLine
 10
581581.3232611882
 20
4179441.799119167
 30
0.0
 11
581602.8711257762
 21
4179469.412795229
 31
0.0
  0
LINE
  5
325
330
1F
100
AcDbEntity
  8
TAS_BACA
370
     0
100
AcDbLine
 10
581580.7967388119
 20
4179446.000880833
 30
0.0
 11
581598.6088742238
 21
4179468.827204771
 31
0.0
  0
LINE
  5
326
330
1F
100
AcDbEntity
  8
TAS_BACA
370
     0
100
AcDbLine
 10
581602.8711257762
 20
4179469.412795229
 30
0.0
 11
581592.5849545426
 21
4179476.993126448
 31
0.0
  0
LINE
  5
327
330
1F
100
AcDbEntity
  8
TAS_BACA
370
     0
100
AcDbLine
 10
581598.6088742238
 20
4179468.827204771
 30
0.0
 11
581589.5229900774
 21
4179475.522991734
 31
0.0
  0
LINE
  5
328
330
1F
100
AcDbEntity
  8
TAS_BACA
370
     0
100
AcDbLine
 10
581590.1448109103
 20
4179478.754710698
 30
0.0
 11
581531.2455524405
 21
4179520.252787593
 31
0.0
  0
LINE
  5
329
330
1F
100
AcDbEntity
  8
TAS_BACA
370
     0
100
AcDbLine
 10
581589.5229900774
 20
4179475.522991734
 30
0.0
 11
581511.4190433915
 21
4179530.551928763
 31
0.0
  0
LINE
  5
32A
330
1F
100
AcDbEntity
  8
BACA
 62
     5
370
     0
100
AcDbLine
 10
581515.6589938516
 20
4179531.234457374
 30
0.0
 11
581516.3656757559
 21
4179531.348215925
 31
0.0
  0
LINE
  5
32B
330
1F
100
AcDbEntity
  8
BACA
370
     0
100
AcDbLine
 10
581473.1988734837
 20
4179561.150170845
 30
0.0
 11
581479.3457642009
 21
4179562.468958308
 31
0.0
  0
LINE
  5
32C
330
1F
100
AcDbEntity
  8
TAS_BACA
 62
     5
370
     0
100
AcDbLine
 10
581512.1483119427
 20
4179533.707944335
 30
0.0
 11
581515.9270904016
 21
4179534.316235501
 31
0.0
  0
LINE
  5
32D
330
1F
100
AcDbEntity
  8
BACA
370
     0
100
AcDbLine
 10
581512.1483119425
 20
4179533.707944335
 30
0.0
 11
581473.1988734837
 21
4179561.150170845
 31
0.0
  0
LINE
  5
32E
330
1F
100
AcDbEntity
  8
BACA
370
     0
100
AcDbLine
 10
581507.9083614822
 20
4179533.025415724
 30
0.0
 11
581469.2060474663
 21
4179560.293528172
 31
0.0
  0
LINE
  5
32F
330
1F
100
AcDbEntity
  8
BACA
370
     0
100
AcDbLine
 10
581558.528563021
 20
4179563.63954294
 30
0.0
 11
581562.8643334215
 21
4179559.86930781
 31
0.0
  0
LINE
  5
330
330
1F
100
AcDbEntity
  8
BACA
370
     0
100
AcDbLine
 10
581586.9484200508
 20
4179538.926623784
 30
0.0
 11
581598.9857359442
 21
4179525.644068315
 31
0.0
  0
LINE
  5
331
330
1F
100
AcDbEntity
  8
BACA
370
     0
100
AcDbLine
 10
581590.0110204029
 20
4179540.014683302
 30
0.0
 11
581617.0017381784
 21
4179510.231822308
 31
0.0
  0
LINE
  5
332
330
1F
100
AcDbEntity
  8
TAS_BACA
370
     0
100
AcDbLine
 10
581531.2455524406
 20
4179520.252787593
 30
0.0
 11
581565.1284799073
 21
4179557.900484778
 31
0.0
  0
LINE
  5
333
330
1F
100
AcDbEntity
  8
TAS_BACA
370
     0
100
AcDbLine
 10
581528.7756443843
 20
4179521.992986657
 30
0.0
 11
581562.8643334216
 21
4179559.86930781
 31
0.0
  0
LINE
  5
334
330
1F
100
AcDbEntity
  8
TAS_BACA
370
     0
100
AcDbLine
 10
581528.7756443844
 20
4179521.992986657
 30
0.0
 11
581515.6589938517
 21
4179531.234457374
 31
0.0
  0
LINE
  5
335
330
1F
100
AcDbEntity
  8
BACA
370
     0
100
AcDbLine
 10
581565.1284799072
 20
4179557.900484778
 30
0.0
 11
581586.9484200508
 21
4179538.926623784
 31
0.0
  0
LINE
  5
336
330
1F
100
AcDbEntity
  8
TAS_BACA
370
     0
100
AcDbLine
 10
581592.5849545426
 20
4179476.993126448
 30
0.0
 11
581618.1264505972
 21
4179507.009185345
 31
0.0
  0
LINE
  5
337
330
1F
100
AcDbEntity
  8
TAS_BACA
370
     0
100
AcDbLine
 10
581590.1448109103
 20
4179478.754710698
 30
0.0
 11
581615.003917408
 21
4179507.968833596
 31
0.0
  0
LINE
  5
338
330
1F
100
AcDbEntity
  8
BACA
370
     0
100
AcDbLine
 10
581618.1264505972
 20
4179507.009185345
 30
0.0
 11
581618.677989943
 21
4179507.615878625
 31
0.0
  0
LINE
  5
339
330
1F
100
AcDbEntity
  8
BACA
370
     0
100
AcDbLine
 10
581617.0017381784
 20
4179510.231822308
 30
0.0
 11
581635.8900898899
 21
4179531.009009191
 31
0.0
  0
LINE
  5
33A
330
1F
100
AcDbEntity
  8
BACA
370
     0
100
AcDbLine
 10
581590.0110204028
 20
4179540.014683302
 30
0.0
 11
581601.9059381807
 21
4179553.531635323
 31
-14.32912254333496
  0
LINE
  5
33B
330
1F
100
AcDbEntity
  8
BACA
370
     0
100
AcDbLine
 10
581587.859031096
 20
4179542.110375219
 30
0.0
 11
581606.7855809504
 21
4179563.607253076
 31
0.0
  0
LINE
  5
343
330
1F
100
AcDbEntity
  8
BC
370
     0
100
AcDbLine
 10
581651.0354005704
 20
4179550.819127866
 30
0.0
 11
581646.1386660275
 21
4179544.64231288
 31
0.0
  0
LINE
  5
344
330
1F
100
AcDbEntity
  8
BC
370
     0
100
AcDbLine
 10
581653.5784936519
 20
4179549.07529261
 30
0.0
 11
581648.1180151857
 21
4179542.318687497
 31
0.0
  0
LINE
  5
345
330
1F
100
AcDbEntity
  8
BC
370
     0
100
AcDbLine
 10
581646.1386660275
 20
4179544.64231288
 30
0.0
 11
581645.0221270875
 21
4179543.157022217
 31
0.0
  0
LINE
  5
346
330
1F
100
AcDbEntity
  8
BC
370
     0
100
AcDbLine
 10
581645.4418186218
 20
4179538.109974313
 30
0.0
 11
581638.1099101101
 21
4179528.990990809
 31
0.0
  0
LINE
  5
347
330
1F
100
AcDbEntity
  8
BC
370
     0
100
AcDbLine
 10
581618.6779899437
 20
4179507.615878626
 30
0.0
 11
581622.282787846
 21
4179506.522456676
 31
0.0
  0
LINE
  5
348
330
1F
100
AcDbEntity
  8
BC
370
     0
100
AcDbLine
 10
581620.7676034739
 20
4179509.914453509
 30
0.0
 11
581622.7464082757
 21
4179509.487990859
 31
0.0
  0
LINE
  5
349
330
1F
100
AcDbEntity
  8
BC
370
     0
100
AcDbLine
 10
581622.282787846
 20
4179506.522456676
 30
0.0
 11
581631.371806789
 21
4179505.629850241
 31
0.0
  0
LINE
  5
34A
330
1F
100
AcDbEntity
  8
BC
370
     0
100
AcDbLine
 10
581622.7464082757
 20
4179509.487990859
 30
0.0
 11
581644.7443891849
 21
4179507.327632361
 31
0.0
  0
LINE
  5
34B
330
1F
100
AcDbEntity
  8
BACA
370
     0
100
AcDbLine
 10
581620.7676034739
 20
4179509.914453509
 30
0.0
 11
581638.1099101101
 21
4179528.990990809
 31
0.0
  0
POINT
  5
34D
330
1F
100
AcDbEntity
  8
0
  6
Continuous
100
AcDbPoint
 10
581199.9996852158
 20
4179500.0
 30
0.0
  0
POINT
  5
34E
330
1F
100
AcDbEntity
  8
0
  6
Continuous
100
AcDbPoint
 10
581499.9996852158
 20
4179500.0
 30
0.0
  0
LINE
  5
34F
330
1F
100
AcDbEntity
  8
BC
370
     0
100
AcDbLine
 10
581644.7443891849
 20
4179507.327632361
 30
-26.79999923706055
 11
581647.9572727942
 21
4179506.335816345
 31
0.0
  0
LINE
  5
350
330
1F
100
AcDbEntity
  8
BC
370
     0
100
AcDbLine
 10
581601.9059381807
 20
4179553.531635323
 30
-14.32912254333496
 11
581643.1094860015
 21
4179540.612706165
 31
-12.62512683868408
  0
LINE
  5
351
330
1F
100
AcDbEntity
  8
BC
370
     0
100
AcDbLine
 10
581604.0743621041
 20
4179555.995753417
 30
-13.89165306091309
 11
581645.0221270873
 21
4179543.157022217
 31
0.0
  0
LINE
  5
352
330
1F
100
AcDbEntity
  8
BC
370
     0
100
AcDbLine
 10
581643.1094860015
 20
4179540.612706165
 30
-12.62512683868408
 11
581635.8900898899
 21
4179531.009009191
 31
0.0
  0
LINE
  5
353
330
1F
100
AcDbEntity
  8
BACA
370
     0
100
AcDbLine
 10
581604.0743621041
 20
4179555.995753417
 30
-13.89165306091309
 11
581609.2560142297
 21
4179561.718098215
 31
0.0
  0
LINE
  5
354
330
1F
100
AcDbEntity
  8
BACA
370
     0
100
AcDbLine
 10
581560.9526868563
 20
4179565.53514437
 30
0.0
 11
581587.8590310961
 21
4179542.110375219
 31
0.0
  0
LINE
  5
355
330
1F
100
AcDbEntity
  8
BACA_2016
370
     0
100
AcDbLine
 10
581128.7760976477
 20
4179653.064037872
 30
0.0
 11
581146.0152959861
 21
4179662.904111259
 31
0.0
  0
LINE
  5
356
330
1F
100
AcDbEntity
  8
BACA_2016
370
     0
100
AcDbLine
 10
581156.8509208153
 20
4179670.971441168
 30
0.0
 11
581150.5217373609
 21
4179662.676374974
 31
0.0
  0
LINE
  5
357
330
1F
100
AcDbEntity
  8
BACA
 62
     5
370
     0
100
AcDbLine
 10
581154.1710668775
 20
4179672.545985699
 30
0.0
 11
581130.091570552
 21
4179686.693860972
 31
0.0
  0
LINE
  5
358
330
1F
100
AcDbEntity
  8
BACA
 62
     5
370
     0
100
AcDbLine
 10
581148.2159497747
 20
4179660.915405684
 30
0.0
 11
581155.2108455106
 21
4179654.594198677
 31
0.0
  0
LINE
  5
359
330
1F
100
AcDbEntity
  8
BACA
 62
     5
370
     0
100
AcDbLine
 10
581150.5217373609
 20
4179662.676374974
 30
0.0
 11
581157.0141477322
 21
4179656.779886327
 31
0.0
  0
POLYLINE
  5
35A
330
1F
100
AcDbEntity
  8
BACA_2016
370
     0
100
AcDb3dPolyline
 66
     1
 10
0.0
 20
0.0
 30
0.0
 70
     8
  0
VERTEX
  5
35B
330
35A
100
AcDbEntity
  8
BACA_2016
100
AcDbVertex
100
AcDb3dPolylineVertex
 10
581148.2159497748
 20
4179660.915405684
 30
0.0
 70
    32
  0
VERTEX
  5
35C
330
35A
100
AcDbEntity
  8
BACA_2016
100
AcDbVertex
100
AcDb3dPolylineVertex
 10
581145.6476875994
 20
4179659.508976398
 30
0.0
 70
    32
  0
VERTEX
  5
35D
330
35A
100
AcDbEntity
  8
BACA_2016
100
AcDbVertex
100
AcDb3dPolylineVertex
 10
581131.423418839
 20
4179651.516745121
 30
0.0
 70
    32
  0
SEQEND
  5
35E
330
35A
100
AcDbEntity
  8
BACA_2016
370
     0
  0
LINE
  5
35F
330
1F
100
AcDbEntity
  8
BACA_2016
370
     0
100
AcDbLine
 10
581148.2297244833
 20
4179664.758009858
 30
0.0
 11
581154.1710668775
 21
4179672.545985699
 31
0.0
  0
LINE
  5
360
330
1F
100
AcDbEntity
  8
BACA
 62
     5
370
     0
100
AcDbLine
 10
581128.7760976477
 20
4179653.064037872
 30
0.0
 11
581118.6433295532
 21
4179658.986386347
 31
0.0
  0
CIRCLE
  5
363
330
1F
100
AcDbEntity
  8
ISARET_KIR
370
     0
100
AcDbCircle
 10
581850.7370308153
 20
4179100.0
 30
0.0
 40
0.0200000000186265
  0
INSERT
  5
364
330
1F
100
AcDbEntity
  8
0
100
AcDbBlockReference
  2
0
 10
581988.063357292
 20
4179687.053489001
 30
0.0
 41
1.000000000007762
 42
0.9999999998163309
 50
145.3048433478858
  0
INSERT
  5
365
330
1F
100
AcDbEntity
  8
0
100
AcDbBlockReference
  2
0
 10
582619.8143954618
 20
4180111.862587259
 30
0.0
  0
INSERT
  5
366
330
1F
100
AcDbEntity
  8
0
100
AcDbBlockReference
  2
0
 10
582796.3515191855
 20
4179922.486399992
 30
0.0
  0
INSERT
  5
367
330
1F
100
AcDbEntity
  8
0
100
AcDbBlockReference
  2
0
 10
582423.4065437253
 20
4180026.704888214
 30
0.0
 41
1.000000000016322
 42
1.000000000177823
 50
133.9190819223153
  0
INSERT
  5
368
330
1F
100
AcDbEntity
  8
0
100
AcDbBlockReference
  2
0
 10
582541.9947708652
 20
4179892.172025492
 30
0.0
  0
INSERT
  5
369
330
1F
100
AcDbEntity
  8
0
100
AcDbBlockReference
  2
29
 10
582106.6007767051
 20
4179744.371613636
 30
0.0
  0
INSERT
  5
36A
330
1F
100
AcDbEntity
  8
0
100
AcDbBlockReference
  2
24
 10
582055.7414240616
 20
4179722.064471509
 30
0.0
 41
0.9999999999781005
 42
1.000000000029693
 50
153.693039655958
  0
INSERT
  5
36B
330
1F
100
AcDbEntity
  8
0
100
AcDbBlockReference
  2
24
 10
582055.7414240616
 20
4179723.070388566
 30
0.0
 41
1.000000000061742
 42
1.000000000109767
 50
151.9598518159399
  0
INSERT
  5
36C
330
1F
100
AcDbEntity
  8
0
100
AcDbBlockReference
  2
0
 10
581933.9801660461
 20
4179567.06886768
 30
11.3131160736084
  0
INSERT
  5
36D
330
1F
100
AcDbEntity
  8
0
100
AcDbBlockReference
  2
0
 10
581952.4890398816
 20
4179552.986028892
 30
0.0
  0
INSERT
  5
36E
330
1F
100
AcDbEntity
  8
0
100
AcDbBlockReference
  2
0
 10
581175.9393496173
 20
4179579.558182582
 30
0.0
  0
INSERT
  5
36F
330
1F
100
AcDbEntity
  8
0
100
AcDbBlockReference
  2
0
 10
581192.9898278333
 20
4179572.098598362
 30
0.0
  0
POINT
  5
372
330
1F
100
AcDbEntity
  8
2016_BACA
  6
Continuous
100
AcDbPoint
 10
581617.0
 20
4179508.5
 30
-23.94000053405762
  0
POINT
  5
373
330
1F
100
AcDbEntity
  8
2016_BACA
  6
Continuous
100
AcDbPoint
 10
581620.12
 20
4179506.24
 30
-24.45000076293945
  0
POINT
  5
374
330
1F
100
AcDbEntity
  8
2016_BACA
  6
Continuous
100
AcDbPoint
 10
581633.2888962337
 20
4179493.888543415
 30
-28.40999984741211
  0
POINT
  5
375
330
1F
100
AcDbEntity
  8
2016_BACA
  6
Continuous
100
AcDbPoint
 10
581633.93
 20
4179466.06
 30
-42.72999954223633
  0
LINE
  5
376
330
1F
100
AcDbEntity
  8
2016_BACA
370
     0
100
AcDbLine
 10
581631.371806789
 20
4179505.629850241
 30
0.0
 11
581631.7901105876
 21
4179493.827707353
 31
0.0
  0
LINE
  5
377
330
1F
100
AcDbEntity
  8
2016_BACA
370
     0
100
AcDbLine
 10
581634.3841758412
 20
4179505.334014132
 30
0.0
 11
581634.7876818797
 21
4179493.949379477
 31
0.0
  0
LINE
  5
378
330
1F
100
AcDbEntity
  8
2016_BACA
370
     0
100
AcDbLine
 10
581631.7901105876
 20
4179493.827707353
 30
0.0
 11
581631.8603464082
 21
4179492.292148402
 31
0.0
  0
LINE
  5
379
330
1F
100
AcDbEntity
  8
2016_BACA
370
     0
100
AcDbLine
 10
581634.7876818797
 20
4179493.949379477
 30
0.0
 11
581634.8706589438
 21
4179492.135259956
 31
0.0
  0
LINE
  5
37A
330
1F
100
AcDbEntity
  8
BACA
370
     0
100
AcDbLine
 10
581635.9509341341
 20
4179464.740545951
 30
0.0
 11
581644.721207675
 21
4179465.551857102
 31
0.0
  0
LINE
  5
37B
330
1F
100
AcDbEntity
  8
BACA
370
     0
100
AcDbLine
 10
581635.9857297995
 20
4179467.756573747
 30
0.0
 11
581644.758792325
 21
4179468.568142898
 31
0.0
  0
LINE
  5
37C
330
1F
100
AcDbEntity
  8
BACA
370
     0
100
AcDbLine
 10
581644.721207675
 20
4179465.551857102
 30
0.0
 11
581675.9146554169
 21
4179461.880283827
 31
0.0
  0
LINE
  5
37D
330
1F
100
AcDbEntity
  8
BACA
370
     0
100
AcDbLine
 10
581644.758792325
 20
4179468.568142898
 30
0.0
 11
581676.2653445831
 21
4179464.859716173
 31
0.0
  0
POINT
  5
37E
330
1F
100
AcDbEntity
  8
2016_BACA
  6
Continuous
100
AcDbPoint
 10
581633.5388962337
 20
4179441.268543415
 30
-49.88999938964844
  0
LINE
  5
37F
330
1F
100
AcDbEntity
  8
BACA
370
     0
100
AcDbLine
 10
581633.0275655331
 20
4179466.773349633
 30
0.0
 11
581631.9539502587
 21
4179439.108778272
 31
0.0
  0
LINE
  5
380
330
1F
100
AcDbEntity
  8
BACA
370
     0
100
AcDbLine
 10
581635.9509341341
 20
4179464.740545951
 30
0.0
 11
581635.0607979255
 21
4179441.803803846
 31
0.0
  0
LINE
  5
381
330
1F
100
AcDbEntity
  8
BACA
370
     0
100
AcDbLine
 10
581631.9539502587
 20
4179439.108778272
 30
0.0
 11
581650.9358696818
 21
4179437.147939731
 31
0.0
  0
POINT
  5
382
330
1F
100
AcDbEntity
  8
2016_BACA
  6
Continuous
100
AcDbPoint
 10
581600.49
 20
4179524.9
 30
-20.03000068664551
  0
POINT
  5
383
330
1F
100
AcDbEntity
  8
2016_BACA
  6
Continuous
100
AcDbPoint
 10
581600.53
 20
4179517.88
 30
-21.97999954223633
  0
POINT
  5
384
330
1F
100
AcDbEntity
  8
2016_BACA
  6
Continuous
100
AcDbPoint
 10
581600.41
 20
4179495.21
 30
-33.02999877929688
  0
POINT
  5
385
330
1F
100
AcDbEntity
  8
2016_BACA
  6
Continuous
100
AcDbPoint
 10
581615.41
 20
4179494.62
 30
-34.2400016784668
  0
LINE
  5
386
330
1F
100
AcDbEntity
  8
2016_BACA
370
     0
100
AcDbLine
 10
581598.9857359442
 20
4179525.644068315
 30
0.0
 11
581599.0299773791
 21
4179517.879696508
 31
0.0
  0
LINE
  5
387
330
1F
100
AcDbEntity
  8
2016_BACA
370
     0
100
AcDbLine
 10
581602.0047666632
 20
4179522.312724073
 30
0.0
 11
581602.0300226209
 21
4179517.880303491
 31
0.0
  0
LINE
  5
388
330
1F
100
AcDbEntity
  8
2016_BACA
370
     0
100
AcDbLine
 10
581599.0299773791
 20
4179517.879696508
 30
0.0
 11
581598.9100893424
 21
4179495.230848248
 31
0.0
  0
LINE
  5
389
330
1F
100
AcDbEntity
  8
2016_BACA
370
     0
100
AcDbLine
 10
581602.0300226209
 20
4179517.880303491
 30
0.0
 11
581601.9176532625
 21
4179496.651858856
 31
0.0
  0
LINE
  5
38A
330
1F
100
AcDbEntity
  8
2016_BACA
370
     0
100
AcDbLine
 10
581601.875294497
 20
4179493.6512052
 30
0.0
 11
581617.8076637186
 21
4179493.02453201
 31
0.0
  0
LINE
  5
38B
330
1F
100
AcDbEntity
  8
2016_BACA
370
     0
100
AcDbLine
 10
581601.9176532625
 20
4179496.651858856
 30
0.0
 11
581617.7801095574
 21
4179496.027935576
 31
0.0
  0
POINT
  5
38C
330
1F
100
AcDbEntity
  8
2016_BACA
  6
Continuous
100
AcDbPoint
 10
581599.99
 20
4179476.55
 30
-41.61000061035156
  0
POINT
  5
38D
330
1F
100
AcDbEntity
  8
2016_BACA
  6
Continuous
100
AcDbPoint
 10
581623.29
 20
4179476.7
 30
-43.2599983215332
  0
POINT
  5
38E
330
1F
100
AcDbEntity
  8
2016_BACA
  6
Continuous
100
AcDbPoint
 10
581635.69
 20
4179476.49
 30
-41.83000183105469
  0
POINT
  5
38F
330
1F
100
AcDbEntity
  8
2016_BACA
  6
Continuous
100
AcDbPoint
 10
581653.1
 20
4179477.34
 30
-41.72000122070312
  0
LINE
  5
390
330
1F
100
AcDbEntity
  8
BACA
370
     0
100
AcDbLine
 10
581598.9100893424
 20
4179495.230848248
 30
0.0
 11
581598.4556349999
 21
4179475.04009103
 31
0.0
  0
LINE
  5
391
330
1F
100
AcDbEntity
  8
BACA
370
     0
100
AcDbLine
 10
581601.8752944972
 20
4179493.651205198
 30
0.0
 11
581601.5243650001
 21
4179478.059908969
 31
0.0
  0
LINE
  5
392
330
1F
100
AcDbEntity
  8
2016_BACA
370
     0
100
AcDbLine
 10
581598.4556349999
 20
4179475.04009103
 30
0.0
 11
581632.6393824837
 21
4179475.260158075
 31
0.0
  0
LINE
  5
393
330
1F
100
AcDbEntity
  8
2016_BACA
370
     0
100
AcDbLine
 10
581601.5243650001
 20
4179478.059908969
 30
0.0
 11
581632.5022012963
 21
4179478.259337101
 31
0.0
  0
LINE
  5
394
330
1F
100
AcDbEntity
  8
2016_BACA
370
     0
100
AcDbLine
 10
581635.6548585413
 20
4179474.990380045
 30
0.0
 11
581635.7138993243
 21
4179474.989380161
 31
0.0
  0
LINE
  5
395
330
1F
100
AcDbEntity
  8
2016_BACA
370
     0
100
AcDbLine
 10
581635.517513736
 20
4179477.993136231
 30
0.0
 11
581635.6661006756
 21
4179477.99061984
 31
0.0
  0
LINE
  5
396
330
1F
100
AcDbEntity
  8
BACA
370
     0
100
AcDbLine
 10
581635.7138993243
 20
4179474.989380161
 30
0.0
 11
581653.0664623223
 21
4179475.836575942
 31
0.0
  0
LINE
  5
397
330
1F
100
AcDbEntity
  8
BACA
370
     0
100
AcDbLine
 10
581635.6661006756
 20
4179477.99061984
 30
0.0
 11
581653.1335376777
 21
4179478.843424058
 31
0.0
  0
LINE
  5
398
330
1F
100
AcDbEntity
  8
BACA
370
     0
100
AcDbLine
 10
581653.0664623223
 20
4179475.836575942
 30
0.0
 11
581671.1101163868
 21
4179474.146536718
 31
0.0
  0
LINE
  5
399
330
1F
100
AcDbEntity
  8
BACA
370
     0
100
AcDbLine
 10
581653.1335376777
 20
4179478.843424058
 30
0.0
 11
581671.3898836132
 21
4179477.133463282
 31
0.0
  0
LINE
  5
39A
330
1F
100
AcDbEntity
  8
BACA
370
     0
100
AcDbLine
 10
581602.0047666632
 20
4179522.312724073
 30
0.0
 11
581615.003917408
 21
4179507.968833596
 31
0.0
  0
LINE
  5
39B
330
1F
100
AcDbEntity
  8
BC
370
     0
100
AcDbLine
 10
581634.3841758412
 20
4179505.334014132
 30
0.0
 11
581644.120865269
 21
4179504.37780184
 31
0.0
  0
LINE
  5
39C
330
1F
100
AcDbEntity
  8
BACA
370
     0
100
AcDbLine
 10
581635.0607979255
 20
4179441.803803846
 30
0.0
 11
581651.2441303182
 21
4179440.132060269
 31
0.0
  0
LINE
  5
39D
330
1F
100
AcDbEntity
  8
2016_BACA
370
     0
100
AcDbLine
 10
581617.7801095574
 20
4179496.027935576
 30
-27.76157188415527
 11
581631.7379104509
 21
4179495.300496922
 31
-27.2834529876709
  0
LINE
  5
39E
330
1F
100
AcDbEntity
  8
BACA
370
     0
100
AcDbLine
 10
581643.1999583049
 20
4179494.70312942
 30
-26.89082527160645
 11
581688.9219501448
 21
4179486.311118259
 31
-28.61318778991699
  0
LINE
  5
39F
330
1F
100
AcDbEntity
  8
2016_BACA
370
     0
100
AcDbLine
 10
581617.8076637186
 20
4179493.02453201
 30
-27.76157188415527
 11
581631.8603464082
 21
4179492.292148402
 31
-27.28020286560059
  0
LINE
  5
3A0
330
1F
100
AcDbEntity
  8
BACA
370
     0
100
AcDbLine
 10
581643.227512466
 20
4179491.699725854
 30
-26.89082527160645
 11
581688.949504306
 21
4179483.307714693
 31
-28.61318778991699
  0
LINE
  5
3A1
330
1F
100
AcDbEntity
  8
2016_BACA
370
     0
100
AcDbLine
 10
581634.7453494681
 20
4179495.143758235
 30
-27.18043518066406
 11
581643.1999583049
 21
4179494.70312942
 31
-26.89082527160645
  0
LINE
  5
3A2
330
1F
100
AcDbEntity
  8
BACA
370
     0
100
AcDbLine
 10
581634.8706589438
 20
4179492.135259956
 30
-27.17708587646484
 11
581643.227512466
 21
4179491.699725854
 31
-26.89082527160645
  0
LINE
  5
3A3
330
1F
100
AcDbEntity
  8
BACA
370
     0
100
AcDbLine
 10
581631.8603464082
 20
4179492.292148402
 30
0.0
 11
581633.0275655331
 21
4179466.773349633
 31
0.0
  0
LINE
  5
3A4
330
1F
100
AcDbEntity
  8
BACA
370
     0
100
AcDbLine
 10
581634.8706589438
 20
4179492.135259956
 30
0.0
 11
581635.9857297995
 21
4179467.756573747
 31
0.0
  0
LINE
  5
3A5
330
1F
100
AcDbEntity
  8
TAS_BACA
370
     0
100
AcDbLine
 10
581645.4418186218
 20
4179538.109974313
 30
0.0
 11
581647.9572727942
 21
4179506.335816345
 31
0.0
  0
LINE
  5
3A6
330
1F
100
AcDbEntity
  8
TAS_BACA
370
     0
100
AcDbLine
 10
581648.1180151857
 20
4179542.318687497
 30
0.0
 11
581651.2964784649
 21
4179502.169677655
 31
0.0
  0
LINE
  5
3A7
330
1F
100
AcDbEntity
  8
TAS_BACA
370
     0
100
AcDbLine
 10
581643.8644457897
 20
4179504.386891323
 30
-25.27079772949219
 11
581651.523370214
 21
4179502.252436975
 31
-24.81092071533203
  0
LINE
  5
3A8
330
1F
100
AcDbEntity
  8
TAS_BACA
370
     0
100
AcDbLine
 10
581646.6860341642
 20
4179549.252548856
 30
-14.07696723937988
 11
581652.1100593308
 21
4179544.280525786
 31
-14.15602111816406
  0
LINE
  5
3A9
330
1F
100
AcDbEntity
  8
TAS_BACA
370
     0
100
AcDbLine
 10
581647.9575807018
 20
4179550.705744899
 30
-14.07696723937988
 11
581653.3816058685
 21
4179545.733721829
 31
-14.15602111816406
  0
LINE
  5
3AA
330
1F
100
AcDbEntity
  8
TAS_BACA
370
     0
100
AcDbLine
 10
581602.6911633674
 20
4179561.908607578
 30
-14.07696723937988
 11
581608.115188534
 21
4179556.936584509
 31
-14.15602111816406
  0
LINE
  5
3AB
330
1F
100
AcDbEntity
  8
TAS_BACA
370
     0
100
AcDbLine
 10
581603.9118480465
 20
4179563.303675783
 30
-14.07696723937988
 11
581609.3358732131
 21
4179558.331652714
 31
-14.15602111816406
  0
LINE
  5
3AC
330
1F
100
AcDbEntity
  8
TAS_BACA
370
     0
100
AcDbLine
 10
581560.4905698448
 20
4179559.025968914
 30
-14.07696723937988
 11
581565.5130654009
 21
4179564.403291743
 31
-14.15602111816406
  0
LINE
  5
3AD
330
1F
100
AcDbEntity
  8
TAS_BACA
370
     0
100
AcDbLine
 10
581559.106970331
 20
4179560.259637739
 30
-14.07696723937988
 11
581564.1294658872
 21
4179565.636960567
 31
-14.15602111816406
  0
LINE
  5
3AE
330
1F
100
AcDbEntity
  8
TAS_BACA
370
     0
100
AcDbLine
 10
581517.9703631108
 20
4179536.44785228
 30
-14.07696723937988
 11
581519.573852255
 21
4179529.266634767
 31
-14.15602111816406
  0
LINE
  5
3AF
330
1F
100
AcDbEntity
  8
TAS_BACA
370
     0
100
AcDbLine
 10
581519.7697118709
 20
4179536.89353201
 30
-14.07696723937988
 11
581521.3732010152
 21
4179529.712314497
 31
-14.15602111816406
  0
LINE
  5
3B0
330
1F
100
AcDbEntity
  8
TAS_BACA
370
     0
100
AcDbLine
 10
581477.7708451021
 20
4179567.4661539
 30
-14.07696723937988
 11
581479.4590688737
 21
4179560.304382966
 31
-14.15602111816406
  0
LINE
  5
3B1
330
1F
100
AcDbEntity
  8
TAS_BACA
370
     0
100
AcDbLine
 10
581479.5648025323
 20
4179567.933061944
 30
-14.07696723937988
 11
581481.2530263036
 21
4179560.77129101
 31
-14.15602111816406
  0
LINE
  5
3B2
330
1F
100
AcDbEntity
  8
TAS_BACA
370
     0
100
AcDbLine
 10
581397.5476711893
 20
4179568.448505128
 30
-14.07696723937988
 11
581399.2358949608
 21
4179561.286734194
 31
-14.15602111816406
  0
LINE
  5
3B3
330
1F
100
AcDbEntity
  8
TAS_BACA
370
     0
100
AcDbLine
 10
581399.3416286195
 20
4179568.915413172
 30
-14.07696723937988
 11
581401.0298523908
 21
4179561.753642238
 31
-14.15602111816406
  0
LINE
  5
3B4
330
1F
100
AcDbEntity
  8
TAS_BACA
370
     0
100
AcDbLine
 10
581374.9408699418
 20
4179615.0566178
 30
-14.07696723937988
 11
581376.6290937134
 21
4179607.894846866
 31
-14.15602111816406
  0
LINE
  5
3B5
330
1F
100
AcDbEntity
  8
TAS_BACA
370
     0
100
AcDbLine
 10
581376.734827372
 20
4179615.523525843
 30
-14.07696723937988
 11
581378.4230511433
 21
4179608.36175491
 31
-14.15602111816406
  0
LINE
  5
3B6
330
1F
100
AcDbEntity
  8
TAS_BACA
370
     0
100
AcDbLine
 10
581368.7179208053
 20
4179635.253861234
 30
-14.07696723937988
 11
581369.635192638
 21
4179627.953198607
 31
-14.15602111816406
  0
LINE
  5
3B7
330
1F
100
AcDbEntity
  8
TAS_BACA
370
     0
100
AcDbLine
 10
581370.5513495707
 20
4179635.527403451
 30
-14.07696723937988
 11
581371.4686214033
 21
4179628.226740824
 31
-14.15602111816406
  0
LINE
  5
3B8
330
1F
100
AcDbEntity
  8
TAS_BACA
370
     0
100
AcDbLine
 10
581325.1125179508
 20
4179657.167616033
 30
-14.07696723937988
 11
581326.3718502489
 21
4179649.918123321
 31
-14.15602111816406
  0
LINE
  5
3B9
330
1F
100
AcDbEntity
  8
TAS_BACA
370
     0
100
AcDbLine
 10
581326.931066916
 20
4179657.527012811
 30
-14.07696723937988
 11
581328.1903992137
 21
4179650.277520099
 31
-14.15602111816406
  0
LINE
  5
407
330
1F
100
AcDbEntity
  8
GEOFENCE
100
AcDbLine
 10
580339.5606584103
 20
4180112.218735267
 30
0.0
 11
580571.0451265674
 21
4179977.518150702
 31
0.0
  0
LINE
  5
408
330
1F
100
AcDbEntity
  8
GEOFENCE
100
AcDbLine
 10
580571.0451265674
 20
4179977.518150702
 30
0.0
 11
580823.654461754
 21
4179829.724844196
 31
0.0
  0
LINE
  5
409
330
1F
100
AcDbEntity
  8
GEOFENCE
100
AcDbLine
 10
580823.654461754
 20
4179829.724844196
 30
0.0
 11
581065.5233525187
 21
4179688.10357617
 31
0.0
  0
LINE
  5
40F
330
1F
100
AcDbEntity
  8
GEOFENCE
100
AcDbLine
 10
581065.5233525187
 20
4179688.10357617
 30
0.0
 11
581170.446374975
 21
4179626.371062023
 31
0.0
  0
LINE
  5
412
330
1F
100
AcDbEntity
  8
GEOFENCE
100
AcDbLine
 10
581124.2609407981
 20
4179651.299921204
 30
0.0
 11
581130.3700970449
 21
4179637.554319649
 31
0.0
  0
LINE
  5
414
330
1F
100
AcDbEntity
  8
GEOFENCE
100
AcDbLine
 10
581130.3700970449
 20
4179637.554319649
 30
0.0
 11
581167.7886790559
 21
4179611.251008031
 31
0.0
  0
LINE
  5
415
330
1F
100
AcDbEntity
  8
GEOFENCE
100
AcDbLine
 10
581167.7886790559
 20
4179611.251008031
 30
0.0
 11
581293.9923858157
 21
4179624.143154625
 31
0.0
  0
LINE
  5
416
330
1F
100
AcDbEntity
  8
GEOFENCE
100
AcDbLine
 10
581293.9923858157
 20
4179624.143154625
 30
0.0
 11
581360.6426440964
 21
4179540.369960184
 31
0.0
  0
LINE
  5
417
330
1F
100
AcDbEntity
  8
GEOFENCE
100
AcDbLine
 10
581360.6426440964
 20
4179540.369960184
 30
0.0
 11
581383.7633704036
 21
4179508.944073538
 31
0.0
  0
LINE
  5
418
330
1F
100
AcDbEntity
  8
GEOFENCE
100
AcDbLine
 10
581383.7633704036
 20
4179508.944073538
 30
0.0
 11
581475.2435528777
 21
4179526.442557351
 31
0.0
  0
LINE
  5
419
330
1F
100
AcDbEntity
  8
GEOFENCE
100
AcDbLine
 10
581475.2435528777
 20
4179526.442557351
 30
0.0
 11
581581.5594702326
 21
4179443.747385045
 31
0.0
  0
LINE
  5
41A
330
1F
100
AcDbEntity
  8
GEOFENCE
100
AcDbLine
 10
581581.5594702326
 20
4179443.747385045
 30
0.0
 11
581600.7867236905
 21
4179469.396272523
 31
0.0
  0
LINE
  5
41B
330
1F
100
AcDbEntity
  8
GEOFENCE
100
AcDbLine
 10
581600.7867236905
 20
4179469.396272523
 30
0.0
 11
581590.2079268377
 21
4179477.016768797
 31
0.0
  0
LINE
  5
41C
330
1F
100
AcDbEntity
  8
GEOFENCE
100
AcDbLine
 10
581590.2079268377
 20
4179477.016768797
 30
0.0
 11
581617.0
 21
4179508.5
 31
-23.94000053405762
  0
LINE
  5
41D
330
1F
100
AcDbEntity
  8
GEOFENCE
100
AcDbLine
 10
581617.0
 20
4179508.5
 30
-23.94000053405762
 11
581649.9457172502
 21
4179504.922673312
 31
0.0
  0
LINE
  5
41E
330
1F
100
AcDbEntity
  8
GEOFENCE
100
AcDbLine
 10
581633.4728586251
 20
4179506.711336656
 30
-11.97000026702881
 11
581634.6139411553
 21
4179466.490480461
 31
0.0
  0
LINE
  5
41F
330
1F
100
AcDbEntity
  8
GEOFENCE
100
AcDbLine
 10
581634.6139411553
 20
4179466.490480461
 30
0.0
 11
581633.6984162122
 21
4179440.668264897
 31
0.0
  0
LINE
  5
420
330
1F
100
AcDbEntity
  8
GEOFENCE
100
AcDbLine
 10
581633.6984162122
 20
4179440.668264897
 30
0.0
 11
581650.8942397827
 21
4179438.64278772
 31
0.0
  0
LINE
  5
423
330
1F
100
AcDbEntity
  8
GEOFENCE
100
AcDbLine
 10
581124.2609407981
 20
4179651.299921204
 30
0.0
 11
581125.2420620042
 21
4179652.967473608
 31
0.0
  0
POINT
  5
42C
330
1F
100
AcDbEntity
  8
INIT_COORD
100
AcDbPoint
 10
580310.9067642072
 20
4180128.640195061
 30
0.0
  0
LINE
  5
42F
330
1F
100
AcDbEntity
  8
GEOFENCE
100
AcDbLine
 10
580310.9067642072
 20
4180128.640195061
 30
0.0
 11
580339.5606584103
 21
4180112.218735267
 31
0.0
  0
LINE
  5
43A
330
1F
100
AcDbEntity
  8
GEOFENCE
100
AcDbLine
 10
580310.9067642072
 20
4180128.640195061
 30
0.0
 11
580293.7056593994
 21
4180138.844213553
 31
0.0
  0
LINE
  5
43D
330
1F
100
AcDbEntity
  8
0
100
AcDbLine
 10
580343.5787649107
 20
4180175.449753765
 30
0.0
 11
580339.0153208694
 21
4180177.493030173
 31
0.0
  0
LINE
  5
43E
330
1F
100
AcDbEntity
  8
0
100
AcDbLine
 10
580339.0153208694
 20
4180177.493030173
 30
0.0
 11
580343.2637340717
 21
4180186.545708521
 31
0.0
  0
LINE
  5
43F
330
1F
100
AcDbEntity
  8
0
100
AcDbLine
 10
580343.2637340717
 20
4180186.545708521
 30
0.0
 11
580352.3879507418
 21
4180182.453194604
 31
0.0
  0
LINE
  5
440
330
1F
100
AcDbEntity
  8
0
100
AcDbLine
 10
580343.5787649107
 20
4180175.449753765
 30
0.0
 11
580348.0631993811
 21
4180173.238453812
 31
0.0
  0
LINE
  5
441
330
1F
100
AcDbEntity
  8
0
100
AcDbLine
 10
580348.0631993811
 20
4180173.238453812
 30
0.0
 11
580352.3879507418
 21
4180182.453194604
 31
0.0
  0
LINE
  5
443
330
1F
100
AcDbEntity
  8
GEOFENCE
100
AcDbLine
 10
580341.1395274706
 20
4180182.019369347
 30
0.0
 11
580350.2267228535
 21
4180177.845296986
 31
0.0
  0
VIEWPORT
  5
3BB
330
1B
100
AcDbEntity
 67
     1
  8
0
100
AcDbViewport
 10
581795.7570308154
 20
4180114.876897798
 30
0.0
 40
1541.418617366115
 41
1114.166568254121
 68
     1
 69
     1
 12
581795.7570308154
 22
4180114.876897798
 13
0.0
 23
0.0
 14
0.5
 24
0.5
 15
0.5
 25
0.5
 16
0.0
 26
0.0
 36
1.0
 17
0.0
 27
0.0
 37
0.0
 42
50.0
 43
0.0
 44
0.0
 45
1114.166568254121
 50
0.0
 51
0.0
 72
  1000
 90
    32800
  1

281
     0
 71
     1
 74
     0
110
0.0
120
0.0
130
0.0
111
1.0
121
0.0
131
0.0
112
0.0
122
1.0
132
0.0
 79
     0
146
0.0
170
     0
 61
     5
348
2F
292
     1
282
     1
141
0.0
142
0.0
 63
   256
  0
ENDSEC
  0
SECTION
  2
OBJECTS
  0
DICTIONARY
  5
C
330
0
100
AcDbDictionary
281
     1
  3
ACAD_DETAILVIEWSTYLE
350
3FA
  3
ACAD_GROUP
350
D
  3
ACAD_IMAGE_VARS
350
3E9
  3
ACAD_LAYOUT
350
1A
  3
ACAD_MATERIAL
350
3B
  3
ACAD_MLEADERSTYLE
350
173
  3
ACAD_MLINESTYLE
350
17
  3
ACAD_PLOTSETTINGS
350
19
  3
ACAD_PLOTSTYLENAME
350
E
  3
ACAD_SCALELIST
350
3BC
  3
ACAD_SECTIONVIEWSTYLE
350
3FB
  3
ACAD_TABLESTYLE
350
182
  3
ACAD_VISUALSTYLE
350
2A
  3
ACDB_RECOMPOSE_DATA
350
446
  3
AcDbVariableDictionary
350
3F3
  3
APPDATA
350
3E8
  0
SUN
  5
3F
330
29
100
AcDbSun
 90
        1
290
     0
 63
     7
421
 16777215
 40
1.0
291
     1
 91
  2455826
 92
 54000000
292
     0
 70
     2
 71
   256
280
     1
  0
DICTIONARY
  5
3EA
330
2
100
AcDbDictionary
280
     1
281
     1
  3
ACAD_LAYERSTATES
360
3EB
  3
ACLYDICTIONARY
360
3FF
  0
DICTIONARY
  5
176
330
1F
100
AcDbDictionary
280
     1
281
     1
  3
ACAD_GEOGRAPHICDATA
360
177
  0
DICTIONARY
  5
3FA
102
{ACAD_REACTORS
330
C
102
}
330
C
100
AcDbDictionary
281
     1
  0
DICTIONARY
  5
D
102
{ACAD_REACTORS
330
C
102
}
330
C
100
AcDbDictionary
281
     1
  0
RASTERVARIABLES
  5
3E9
102
{ACAD_REACTORS
330
C
102
}
330
C
100
AcDbRasterVariables
 90
        0
 70
     1
 71
     1
 72
     1
  0
DICTIONARY
  5
1A
102
{ACAD_REACTORS
330
C
102
}
330
C
100
AcDbDictionary
281
     1
  3
Layout1
350
152
  3
Layout2
350
1E
  3
Model
350
22
  0
DICTIONARY
  5
3B
102
{ACAD_REACTORS
330
C
102
}
330
C
100
AcDbDictionary
281
     1
  3
ByBlock
350
3D
  3
ByLayer
350
3C
  3
Global
350
3E
  0
DICTIONARY
  5
173
102
{ACAD_REACTORS
330
C
102
}
330
C
100
AcDbDictionary
281
     1
  3
Standard
350
174
  0
DICTIONARY
  5
17
102
{ACAD_REACTORS
330
C
102
}
330
C
100
AcDbDictionary
281
     1
  3
Standard
350
18
  0
DICTIONARY
  5
19
102
{ACAD_REACTORS
330
C
102
}
330
C
100
AcDbDictionary
281
     1
  0
ACDBDICTIONARYWDFLT
  5
E
102
{ACAD_REACTORS
330
C
102
}
330
C
100
AcDbDictionary
281
     1
  3
Normal
350
F
100
AcDbDictionaryWithDefault
340
F
  0
DICTIONARY
  5
3BC
102
{ACAD_REACTORS
330
C
102
}
330
C
100
AcDbDictionary
281
     1
  3
A0
350
3BD
  3
A1
350
3BE
  3
A2
350
3BF
  3
A3
350
3C0
  3
A4
350
3C1
  3
A5
350
3C2
  3
A6
350
3C3
  3
A7
350
3C4
  3
A8
350
3C5
  3
A9
350
3C6
  3
B0
350
3C7
  3
B1
350
3C8
  3
B2
350
3C9
  3
B3
350
3CA
  3
B4
350
3CB
  3
B5
350
3CC
  3
B6
350
3CD
  3
B7
350
3CE
  3
B8
350
3CF
  3
B9
350
3D0
  3
C0
350
3D1
  3
C1
350
3D2
  3
C2
350
3D3
  3
C3
350
3D4
  3
C4
350
3D5
  3
C5
350
3D6
  3
C6
350
3D7
  3
C7
350
3D8
  3
C8
350
3D9
  3
C9
350
3DA
  3
D0
350
3DB
  3
D1
350
3DC
  3
D2
350
3DD
  0
DICTIONARY
  5
3FB
102
{ACAD_REACTORS
330
C
102
}
330
C
100
AcDbDictionary
281
     1
  0
DICTIONARY
  5
182
102
{ACAD_REACTORS
330
C
102
}
330
C
100
AcDbDictionary
281
     1
  3
Standard
350
183
  0
DICTIONARY
  5
2A
102
{ACAD_REACTORS
330
C
102
}
330
C
100
AcDbDictionary
281
     1
  3
2dWireframe
350
2F
  3
3D Hidden
350
31
  3
3dWireframe
350
30
  3
Basic
350
32
  3
Brighten
350
36
  3
ColorChange
350
3A
  3
Conceptual
350
34
  3
Dim
350
35
  3
EdgeColorOff
350
3E2
  3
Facepattern
350
39
  3
Flat
350
2B
  3
FlatWithEdges
350
2C
  3
Gouraud
350
2D
  3
GouraudWithEdges
350
2E
  3
Hidden
350
3DF
  3
JitterOff
350
3E0
  3
Linepattern
350
38
  3
OverhangOff
350
3E1
  3
Realistic
350
33
  3
Shaded
350
3E7
  3
Shaded with edges
350
3E6
  3
Shades of Gray
350
3E3
  3
Sketchy
350
3E4
  3
Thicken
350
37
  3
Wireframe
350
3DE
  3
X-Ray
350
3E5
  0
XRECORD
  5
446
102
{ACAD_REACTORS
330
C
102
}
330
C
100
AcDbXrecord
280
     1
 90
        1
330
183
  0
DICTIONARY
  5
3F3
102
{ACAD_REACTORS
330
C
102
}
330
C
100
AcDbDictionary
281
     1
  3
CANNOSCALE
350
3F4
  3
CMLEADERSTYLE
350
3F9
  3
CTABLESTYLE
350
3F8
  0
DICTIONARY
  5
3E8
102
{ACAD_REACTORS
330
C
102
}
330
C
100
AcDbDictionary
281
     1
  0
DICTIONARY
  5
3EB
102
{ACAD_REACTORS
330
3EA
102
}
330
3EA
100
AcDbDictionary
281
     1
  0
DICTIONARY
  5
3FF
102
{ACAD_REACTORS
330
3EA
102
}
330
3EA
100
AcDbDictionary
281
     1
1001
ACAD
1000
<All
  0
GEODATA
  5
177
102
{ACAD_REACTORS
330
176
102
}
330
176
100
AcDbGeoData
 90
        2
330
1F
 70
     1
 10
0.0
 20
0.0
 30
0.0
 11
-122.394
 21
37.795
 31
0.0
 40
1.0
 91
        6
 41
1.0
 92
        6
210
0.0
220
0.0
230
1.0
 12
0.0
 22
1.0
 95
        3
141
1.0
294
     0
142
0.0
143
0.0
301

302
<georss:point>37.7950 -122.3940</georss:point>
305

306

307

 93
        0
 96
        0
  0
LAYOUT
  5
152
102
{ACAD_REACTORS
330
1A
102
}
330
1A
100
AcDbPlotSettings
  1

  2
TCAD_Plot
  4
420.00 x 297.00 Inches
  6

 40
0.0
 41
0.0
 42
0.0
 43
0.0
 44
10668.0
 45
7543.799999999999
 46
0.0
 47
0.0
 48
0.0
 49
0.0
140
0.0
141
0.0
142
1.0
143
1.0
 70
   672
 72
     0
 73
     0
 74
     5
  7

 75
    16
 76
     0
 77
     2
 78
   300
147
1.0
148
0.0
149
0.0
100
AcDbLayout
  1
Layout1
 70
     1
 71
     1
 10
0.0
 20
0.0
 11
420.0
 21
297.0
 12
0.0
 22
0.0
 32
0.0
 14
0.0
 24
0.0
 34
0.0
 15
0.0
 25
0.0
 35
0.0
146
0.0
 13
0.0
 23
0.0
 33
0.0
 16
1.0
 26
0.0
 36
0.0
 17
0.0
 27
1.0
 37
0.0
 76
     0
330
151
331
3BA
  0
LAYOUT
  5
1E
102
{ACAD_REACTORS
330
1A
102
}
330
1A
100
AcDbPlotSettings
  1

  2
TCAD_Plot
  4
420.00 x 297.00 Inches
  6

 40
0.0
 41
0.0
 42
0.0
 43
0.0
 44
10668.0
 45
7543.799999999999
 46
0.0
 47
0.0
 48
0.0
 49
0.0
140
0.0
141
0.0
142
1.0
143
1.0
 70
   672
 72
     0
 73
     0
 74
     5
  7

 75
    16
 76
     0
 77
     2
 78
   300
147
1.0
148
0.0
149
0.0
100
AcDbLayout
  1
Layout2
 70
     1
 71
     2
 10
0.0
 20
0.0
 11
0.0
 21
0.0
 12
0.0
 22
0.0
 32
0.0
 14
0.0
 24
0.0
 34
0.0
 15
0.0
 25
0.0
 35
0.0
146
0.0
 13
0.0
 23
0.0
 33
0.0
 16
1.0
 26
0.0
 36
0.0
 17
0.0
 27
1.0
 37
0.0
 76
     0
330
1B
331
3BB
  0
LAYOUT
  5
22
102
{ACAD_REACTORS
330
1A
102
}
330
1A
100
AcDbPlotSettings
  1

  2
TCAD_Plot
  4
1541.42 x 1114.17 Inches
  6

 40
0.0
 41
0.0
 42
0.0
 43
0.0
 44
39152.03288109931
 45
28299.83083365466
 46
0.0
 47
0.0
 48
-770.7093086830573
 49
-557.0832841270603
140
770.7093086830573
141
557.0832841270603
142
1.0
143
1.0
 70
  1696
 72
     0
 73
     0
 74
     4
  7

 75
     0
 76
     0
 77
     2
 78
   300
147
0.6367881552578972
148
19576.01644054965
149
14149.91541682733
100
AcDbLayout
  1
Model
 70
     1
 71
     0
 10
581025.0477221323
 20
4179557.793613671
 11
582566.4663394984
 21
4180671.960181925
 12
0.0
 22
0.0
 32
0.0
 14
580293.7056593994
 24
4179099.98
 34
-49.88999938964844
 15
581850.7570308154
 25
4180186.545708521
 35
0.0
146
0.0
 13
0.0
 23
0.0
 33
0.0
 16
1.0
 26
0.0
 36
0.0
 17
0.0
 27
1.0
 37
0.0
 76
     0
330
1F
331
29
  0
MATERIAL
  5
3D
102
{ACAD_REACTORS
330
3B
102
}
330
3B
100
AcDbMaterial
  1
ByBlock
 72
     1
 94
      127
  0
MATERIAL
  5
3C
102
{ACAD_REACTORS
330
3B
102
}
330
3B
100
AcDbMaterial
  1
ByLayer
 72
     1
 94
      127
  0
MATERIAL
  5
3E
102
{ACAD_REACTORS
330
3B
102
}
330
3B
100
AcDbMaterial
  1
Global
 72
     1
 94
      127
  0
MLEADERSTYLE
  5
174
102
{ACAD_REACTORS
330
173
102
}
330
173
100
AcDbMLeaderStyle
179
     2
170
     2
171
     1
172
     0
 90
        2
 40
0.0
 41
0.0
173
     1
 91
-1056964608
340
14
 92
       -2
290
     1
 42
0.25
291
     1
 43
0.25
  3

341
0
 44
0.25
300

342
11
174
     1
178
     1
175
     1
176
     0
 93
-1056964608
 45
0.1463414634146341
292
     0
297
     0
 46
0.18
343
0
 94
-1056964608
 47
1.0
 49
1.0
140
1.0
293
     1
141
0.0
294
     1
177
     0
142
1.0
295
     0
296
     0
143
0.125
271
     0
272
     9
273
     9
  0
MLINESTYLE
  5
18
102
{ACAD_REACTORS
330
17
102
}
330
17
100
AcDbMlineStyle
  2
Standard
 70
     0
  3

 62
     0
 51
90.0
 52
90.0
 71
     2
 49
0.5
 62
   256
  6
BYLAYER
 49
-0.5
 62
   256
  6
BYLAYER
  0
ACDBPLACEHOLDER
  5
F
102
{ACAD_REACTORS
330
E
102
}
330
E
  0
SCALE
  5
3BD
102
{ACAD_REACTORS
330
3BC
102
}
330
3BC
100
AcDbScale
 70
     0
300
1:1
140
1.0
141
1.0
290
     1
  0
SCALE
  5
3BE
102
{ACAD_REACTORS
330
3BC
102
}
330
3BC
100
AcDbScale
 70
     0
300
1:2
140
1.0
141
2.0
290
     0
  0
SCALE
  5
3BF
102
{ACAD_REACTORS
330
3BC
102
}
330
3BC
100
AcDbScale
 70
     0
300
1:4
140
1.0
141
4.0
290
     0
  0
SCALE
  5
3C0
102
{ACAD_REACTORS
330
3BC
102
}
330
3BC
100
AcDbScale
 70
     0
300
1:5
140
1.0
141
5.0
290
     0
  0
SCALE
  5
3C1
102
{ACAD_REACTORS
330
3BC
102
}
330
3BC
100
AcDbScale
 70
     0
300
1:8
140
1.0
141
8.0
290
     0
  0
SCALE
  5
3C2
102
{ACAD_REACTORS
330
3BC
102
}
330
3BC
100
AcDbScale
 70
     0
300
1:10
140
1.0
141
10.0
290
     0
  0
SCALE
  5
3C3
102
{ACAD_REACTORS
330
3BC
102
}
330
3BC
100
AcDbScale
 70
     0
300
1:16
140
1.0
141
16.0
290
     0
  0
SCALE
  5
3C4
102
{ACAD_REACTORS
330
3BC
102
}
330
3BC
100
AcDbScale
 70
     0
300
1:20
140
1.0
141
20.0
290
     0
  0
SCALE
  5
3C5
102
{ACAD_REACTORS
330
3BC
102
}
330
3BC
100
AcDbScale
 70
     0
300
1:30
140
1.0
141
30.0
290
     0
  0
SCALE
  5
3C6
102
{ACAD_REACTORS
330
3BC
102
}
330
3BC
100
AcDbScale
 70
     0
300
1:40
140
1.0
141
40.0
290
     0
  0
SCALE
  5
3C7
102
{ACAD_REACTORS
330
3BC
102
}
330
3BC
100
AcDbScale
 70
     0
300
1:50
140
1.0
141
50.0
290
     0
  0
SCALE
  5
3C8
102
{ACAD_REACTORS
330
3BC
102
}
330
3BC
100
AcDbScale
 70
     0
300
1:100
140
1.0
141
100.0
290
     0
  0
SCALE
  5
3C9
102
{ACAD_REACTORS
330
3BC
102
}
330
3BC
100
AcDbScale
 70
     0
300
2:1
140
2.0
141
1.0
290
     0
  0
SCALE
  5
3CA
102
{ACAD_REACTORS
330
3BC
102
}
330
3BC
100
AcDbScale
 70
     0
300
4:1
140
4.0
141
1.0
290
     0
  0
SCALE
  5
3CB
102
{ACAD_REACTORS
330
3BC
102
}
330
3BC
100
AcDbScale
 70
     0
300
8:1
140
8.0
141
1.0
290
     0
  0
SCALE
  5
3CC
102
{ACAD_REACTORS
330
3BC
102
}
330
3BC
100
AcDbScale
 70
     0
300
10:1
140
10.0
141
1.0
290
     0
  0
SCALE
  5
3CD
102
{ACAD_REACTORS
330
3BC
102
}
330
3BC
100
AcDbScale
 70
     0
300
100:1
140
100.0
141
1.0
290
     0
  0
SCALE
  5
3CE
102
{ACAD_REACTORS
330
3BC
102
}
330
3BC
100
AcDbScale
 70
     0
300
1/128" = 1'-0"
140
0.0078125
141
12.0
290
     0
  0
SCALE
  5
3CF
102
{ACAD_REACTORS
330
3BC
102
}
330
3BC
100
AcDbScale
 70
     0
300
1/64" = 1'-0"
140
0.015625
141
12.0
290
     0
  0
SCALE
  5
3D0
102
{ACAD_REACTORS
330
3BC
102
}
330
3BC
100
AcDbScale
 70
     0
300
1/32" = 1'-0"
140
0.03125
141
12.0
290
     0
  0
SCALE
  5
3D1
102
{ACAD_REACTORS
330
3BC
102
}
330
3BC
100
AcDbScale
 70
     0
300
1/16" = 1'-0"
140
0.0625
141
12.0
290
     0
  0
SCALE
  5
3D2
102
{ACAD_REACTORS
330
3BC
102
}
330
3BC
100
AcDbScale
 70
     0
300
3/32" = 1'-0"
140
0.09375
141
12.0
290
     0
  0
SCALE
  5
3D3
102
{ACAD_REACTORS
330
3BC
102
}
330
3BC
100
AcDbScale
 70
     0
300
1/8" = 1'-0"
140
0.125
141
12.0
290
     0
  0
SCALE
  5
3D4
102
{ACAD_REACTORS
330
3BC
102
}
330
3BC
100
AcDbScale
 70
     0
300
3/16" = 1'-0"
140
0.1875
141
12.0
290
     0
  0
SCALE
  5
3D5
102
{ACAD_REACTORS
330
3BC
102
}
330
3BC
100
AcDbScale
 70
     0
300
1/4" = 1'-0"
140
0.25
141
12.0
290
     0
  0
SCALE
  5
3D6
102
{ACAD_REACTORS
330
3BC
102
}
330
3BC
100
AcDbScale
 70
     0
300
3/8" = 1'-0"
140
0.375
141
12.0
290
     0
  0
SCALE
  5
3D7
102
{ACAD_REACTORS
330
3BC
102
}
330
3BC
100
AcDbScale
 70
     0
300
1/2" = 1'-0"
140
0.5
141
12.0
290
     0
  0
SCALE
  5
3D8
102
{ACAD_REACTORS
330
3BC
102
}
330
3BC
100
AcDbScale
 70
     0
300
3/4" = 1'-0"
140
0.75
141
12.0
290
     0
  0
SCALE
  5
3D9
102
{ACAD_REACTORS
330
3BC
102
}
330
3BC
100
AcDbScale
 70
     0
300
1" = 1'-0"
140
1.0
141
12.0
290
     0
  0
SCALE
  5
3DA
102
{ACAD_REACTORS
330
3BC
102
}
330
3BC
100
AcDbScale
 70
     0
300
1-1/2" = 1'-0"
140
1.5
141
12.0
290
     0
  0
SCALE
  5
3DB
102
{ACAD_REACTORS
330
3BC
102
}
330
3BC
100
AcDbScale
 70
     0
300
3" = 1'-0"
140
3.0
141
12.0
290
     0
  0
SCALE
  5
3DC
102
{ACAD_REACTORS
330
3BC
102
}
330
3BC
100
AcDbScale
 70
     0
300
6" = 1'-0"
140
6.0
141
12.0
290
     0
  0
SCALE
  5
3DD
102
{ACAD_REACTORS
330
3BC
102
}
330
3BC
100
AcDbScale
 70
     0
300
1'-0" = 1'-0"
140
12.0
141
12.0
290
     0
  0
TABLESTYLE
  5
183
102
{ACAD_REACTORS
330
182
102
}
102
{ACAD_XDICTIONARY
360
444
102
}
330
182
100
AcDbTableStyle
  3

 70
     0
 71
     0
 40
0.06
 41
0.06
280
     0
281
     0
  7
Standard
140
2.5
170
     5
 62
     0
 63
   257
283
     0
 90
        4
 91
        0
  1

274
    -2
284
     1
 64
     0
275
    -2
285
     1
 65
     0
276
    -2
286
     1
 66
     0
277
    -2
287
     1
 67
     0
278
    -2
288
     1
 68
     0
279
    -2
289
     1
 69
     0
  7
Standard
140
2.5
170
     5
 62
     0
 63
   257
283
     0
 90
        4
 91
        0
  1

274
    -2
284
     1
 64
     0
275
    -2
285
     1
 65
     0
276
    -2
286
     1
 66
     0
277
    -2
287
     1
 67
     0
278
    -2
288
     1
 68
     0
279
    -2
289
     1
 69
     0
  7
Standard
140
2.5
170
     5
 62
     0
 63
   257
283
     0
 90
        4
 91
        0
  1

274
    -2
284
     1
 64
     0
275
    -2
285
     1
 65
     0
276
    -2
286
     1
 66
     0
277
    -2
287
     1
 67
     0
278
    -2
288
     1
 68
     0
279
    -2
289
     1
 69
     0
  0
VISUALSTYLE
  5
2F
102
{ACAD_REACTORS
330
2A
102
}
330
2A
100
AcDbVisualStyle
  2
2dWireframe
 70
     4
177
     2
291
     0
 71
     0
176
     1
 72
     2
176
     1
 73
     0
176
     1
 90
        0
176
     1
 40
-0.6
176
     1
 41
-30.0
176
     1
 62
     5
 63
     7
421
 16777215
176
     1
 74
     1
176
     1
 91
        4
176
     1
 64
     7
176
     1
 65
   257
176
     1
 75
     1
176
     1
175
     1
176
     1
 42
1.0
176
     1
 92
        0
176
     1
 66
   257
176
     1
 43
1.0
176
     1
 76
     1
176
     1
 77
     6
176
     1
 78
     2
176
     1
 67
     7
176
     1
 79
     5
176
     1
170
     0
176
     1
171
     0
176
     1
290
     0
176
     1
 93
        1
176
     1
 44
0.0
176
     1
173
     0
176
     1
  0
VISUALSTYLE
  5
31
102
{ACAD_REACTORS
330
2A
102
}
330
2A
100
AcDbVisualStyle
  2
3D Hidden
 70
     6
177
     2
291
     0
 71
     1
176
     1
 72
     2
176
     1
 73
     2
176
     1
 90
        0
176
     1
 40
-0.6
176
     1
 41
-30.0
176
     1
 62
     5
 63
     7
421
 16777215
176
     1
 74
     2
176
     1
 91
        2
176
     1
 64
     7
176
     1
 65
   257
176
     1
 75
     2
176
     1
175
     1
176
     1
 42
40.0
176
     1
 92
        0
176
     1
 66
   257
176
     1
 43
1.0
176
     1
 76
     1
176
     1
 77
     6
176
     1
 78
     2
176
     1
 67
     7
176
     1
 79
     3
176
     1
170
     0
176
     1
171
     0
176
     1
290
     0
176
     1
 93
        1
176
     1
 44
0.0
176
     1
173
     0
176
     1
  0
VISUALSTYLE
  5
30
102
{ACAD_REACTORS
330
2A
102
}
330
2A
100
AcDbVisualStyle
  2
3dWireframe
 70
     5
177
     2
291
     0
 71
     0
176
     1
 72
     2
176
     1
 73
     0
176
     1
 90
        0
176
     1
 40
-0.6
176
     1
 41
-30.0
176
     1
 62
     5
 63
     7
421
 16777215
176
     1
 74
     1
176
     1
 91
        4
176
     1
 64
     7
176
     1
 65
   257
176
     1
 75
     1
176
     1
175
     1
176
     1
 42
1.0
176
     1
 92
        0
176
     1
 66
   257
176
     1
 43
1.0
176
     1
 76
     1
176
     1
 77
     6
176
     1
 78
     2
176
     1
 67
     7
176
     1
 79
     5
176
     1
170
     0
176
     1
171
     0
176
     1
290
     0
176
     1
 93
        1
176
     1
 44
0.0
176
     1
173
     0
176
     1
  0
VISUALSTYLE
  5
32
102
{ACAD_REACTORS
330
2A
102
}
330
2A
100
AcDbVisualStyle
  2
Basic
 70
     7
177
     2
291
     1
 71
     1
176
     1
 72
     0
176
     1
 73
     1
176
     1
 90
        0
176
     1
 40
-0.6
176
     1
 41
-30.0
176
     1
 62
     5
 63
     7
421
 16777215
176
     1
 74
     0
176
     1
 91
        4
176
     1
 64
     7
176
     1
 65
   257
176
     1
 75
     1
176
     1
175
     1
176
     1
 42
1.0
176
     1
 92
        8
176
     1
 66
     7
176
     1
 43
1.0
176
     1
 76
     1
176
     1
 77
     6
176
     1
 78
     2
176
     1
 67
     7
176
     1
 79
     5
176
     1
170
     0
176
     1
171
     0
176
     1
290
     0
176
     1
 93
        1
176
     1
 44
0.0
176
     1
173
     0
176
     1
  0
VISUALSTYLE
  5
36
102
{ACAD_REACTORS
330
2A
102
}
330
2A
100
AcDbVisualStyle
  2
Brighten
 70
    12
177
     2
291
     1
 71
     2
176
     1
 72
     2
176
     1
 73
     0
176
     1
 90
        0
176
     1
 40
-0.6
176
     1
 41
-30.0
176
     1
 62
     5
 63
     7
421
 16777215
176
     1
 74
     1
176
     1
 91
        4
176
     1
 64
     7
176
     1
 65
   257
176
     1
 75
     1
176
     1
175
     1
176
     1
 42
1.0
176
     1
 92
        8
176
     1
 66
     7
176
     1
 43
1.0
176
     1
 76
     1
176
     1
 77
     6
176
     1
 78
     2
176
     1
 67
     7
176
     1
 79
     5
176
     1
170
     0
176
     1
171
     0
176
     1
290
     0
176
     1
 93
        1
176
     1
 44
50.0
176
     1
173
     0
176
     1
  0
VISUALSTYLE
  5
3A
102
{ACAD_REACTORS
330
2A
102
}
330
2A
100
AcDbVisualStyle
  2
ColorChange
 70
    16
177
     2
291
     1
 71
     2
176
     1
 72
     2
176
     1
 73
     3
176
     1
 90
        0
176
     1
 40
-0.6
176
     1
 41
-30.0
176
     1
 62
     5
 63
     8
421
  8421504
176
     1
 74
     1
176
     1
 91
        4
176
     1
 64
     7
176
     1
 65
   257
176
     1
 75
     1
176
     1
175
     1
176
     1
 42
1.0
176
     1
 92
        8
176
     1
 66
     8
424
  8421504
176
     1
 43
1.0
176
     1
 76
     1
176
     1
 77
     6
176
     1
 78
     2
176
     1
 67
     7
176
     1
 79
     5
176
     1
170
     0
176
     1
171
     0
176
     1
290
     0
176
     1
 93
        1
176
     1
 44
0.0
176
     1
173
     0
176
     1
  0
VISUALSTYLE
  5
34
102
{ACAD_REACTORS
330
2A
102
}
330
2A
100
AcDbVisualStyle
  2
Conceptual
 70
     9
177
     2
291
     0
 71
     3
176
     1
 72
     2
176
     1
 73
     0
176
     1
 90
        0
176
     1
 40
-0.6
176
     1
 41
-30.0
176
     1
 62
     5
 63
     7
421
 16777215
176
     1
 74
     2
176
     1
 91
        2
176
     1
 64
     7
176
     1
 65
   257
176
     1
 75
     1
176
     1
175
     1
176
     1
 42
40.0
176
     1
 92
        8
176
     1
 66
     7
176
     1
 43
1.0
176
     1
 76
     1
176
     1
 77
     6
176
     1
 78
     2
176
     1
 67
     7
176
     1
 79
     3
176
     1
170
     0
176
     1
171
     0
176
     1
290
     0
176
     1
 93
        1
176
     1
 44
0.0
176
     1
173
     0
176
     1
  0
VISUALSTYLE
  5
35
102
{ACAD_REACTORS
330
2A
102
}
330
2A
100
AcDbVisualStyle
  2
Dim
 70
    11
177
     2
291
     1
 71
     2
176
     1
 72
     2
176
     1
 73
     0
176
     1
 90
        0
176
     1
 40
-0.6
176
     1
 41
-30.0
176
     1
 62
     5
 63
     7
421
 16777215
176
     1
 74
     1
176
     1
 91
        4
176
     1
 64
     7
176
     1
 65
   257
176
     1
 75
     1
176
     1
175
     1
176
     1
 42
1.0
176
     1
 92
        8
176
     1
 66
     7
176
     1
 43
1.0
176
     1
 76
     1
176
     1
 77
     6
176
     1
 78
     2
176
     1
 67
     7
176
     1
 79
     5
176
     1
170
     0
176
     1
171
     0
176
     1
290
     0
176
     1
 93
        1
176
     1
 44
-50.0
176
     1
173
     0
176
     1
  0
VISUALSTYLE
  5
3E2
102
{ACAD_REACTORS
330
2A
102
}
330
2A
100
AcDbVisualStyle
  2
EdgeColorOff
 70
    22
177
     2
291
     1
 71
     2
176
     0
 72
     2
176
     0
 73
     0
176
     0
 90
        0
176
     0
 40
0.6
176
     0
 41
30.0
176
     0
 62
     5
 63
     7
421
 16777215
176
     0
 74
     1
176
     0
 91
        4
176
     0
 64
     7
176
     0
 65
   257
176
     0
 75
     1
176
     0
175
     1
176
     0
 42
1.0
176
     0
 92
        8
176
     2
 66
     7
176
     0
 43
1.0
176
     0
 76
     1
176
     0
 77
     6
176
     0
 78
     2
176
     0
 67
     7
176
     0
 79
     5
176
     0
170
     0
176
     0
171
     0
176
     0
290
     0
176
     0
 93
        1
176
     0
 44
0.0
176
     0
173
     0
176
     0
  0
VISUALSTYLE
  5
39
102
{ACAD_REACTORS
330
2A
102
}
330
2A
100
AcDbVisualStyle
  2
Facepattern
 70
    15
177
     2
291
     1
 71
     2
176
     1
 72
     2
176
     1
 73
     0
176
     1
 90
        0
176
     1
 40
-0.6
176
     1
 41
-30.0
176
     1
 62
     5
 63
     7
421
 16777215
176
     1
 74
     1
176
     1
 91
        4
176
     1
 64
     7
176
     1
 65
   257
176
     1
 75
     1
176
     1
175
     1
176
     1
 42
1.0
176
     1
 92
        8
176
     1
 66
     7
176
     1
 43
1.0
176
     1
 76
     1
176
     1
 77
     6
176
     1
 78
     2
176
     1
 67
     7
176
     1
 79
     5
176
     1
170
     0
176
     1
171
     0
176
     1
290
     0
176
     1
 93
        1
176
     1
 44
0.0
176
     1
173
     0
176
     1
  0
VISUALSTYLE
  5
2B
102
{ACAD_REACTORS
330
2A
102
}
330
2A
100
AcDbVisualStyle
  2
Flat
 70
     0
177
     2
291
     1
 71
     2
176
     1
 72
     1
176
     1
 73
     1
176
     1
 90
        2
176
     1
 40
-0.6
176
     1
 41
30.0
176
     1
 62
     5
 63
     7
421
 16777215
176
     1
 74
     0
176
     1
 91
        4
176
     1
 64
     7
176
     1
 65
   257
176
     1
 75
     1
176
     1
175
     1
176
     1
 42
1.0
176
     1
 92
        8
176
     1
 66
     7
176
     1
 43
1.0
176
     1
 76
     1
176
     1
 77
     6
176
     1
 78
     2
176
     1
 67
     7
176
     1
 79
     5
176
     1
170
     0
176
     1
171
     0
176
     1
290
     0
176
     1
 93
       13
176
     1
 44
0.0
176
     1
173
     0
176
     1
  0
VISUALSTYLE
  5
2C
102
{ACAD_REACTORS
330
2A
102
}
330
2A
100
AcDbVisualStyle
  2
FlatWithEdges
 70
     1
177
     2
291
     1
 71
     2
176
     1
 72
     1
176
     1
 73
     1
176
     1
 90
        2
176
     1
 40
-0.6
176
     1
 41
30.0
176
     1
 62
     5
 63
     7
421
 16777215
176
     1
 74
     1
176
     1
 91
        4
176
     1
 64
     7
176
     1
 65
   257
176
     1
 75
     1
176
     1
175
     1
176
     1
 42
1.0
176
     1
 92
        0
176
     1
 66
   257
176
     1
 43
1.0
176
     1
 76
     1
176
     1
 77
     6
176
     1
 78
     2
176
     1
 67
     7
176
     1
 79
     5
176
     1
170
     0
176
     1
171
     0
176
     1
290
     0
176
     1
 93
       13
176
     1
 44
0.0
176
     1
173
     0
176
     1
  0
VISUALSTYLE
  5
2D
102
{ACAD_REACTORS
330
2A
102
}
330
2A
100
AcDbVisualStyle
  2
Gouraud
 70
     2
177
     2
291
     1
 71
     2
176
     1
 72
     2
176
     1
 73
     1
176
     1
 90
        2
176
     1
 40
-0.6
176
     1
 41
30.0
176
     1
 62
     5
 63
     7
421
 16777215
176
     1
 74
     0
176
     1
 91
        4
176
     1
 64
     7
176
     1
 65
   257
176
     1
 75
     1
176
     1
175
     1
176
     1
 42
1.0
176
     1
 92
        0
176
     1
 66
     7
176
     1
 43
1.0
176
     1
 76
     1
176
     1
 77
     6
176
     1
 78
     2
176
     1
 67
     7
176
     1
 79
     5
176
     1
170
     0
176
     1
171
     0
176
     1
290
     0
176
     1
 93
       13
176
     1
 44
0.0
176
     1
173
     0
176
     1
  0
VISUALSTYLE
  5
2E
102
{ACAD_REACTORS
330
2A
102
}
330
2A
100
AcDbVisualStyle
  2
GouraudWithEdges
 70
     3
177
     2
291
     1
 71
     2
176
     1
 72
     2
176
     1
 73
     1
176
     1
 90
        2
176
     1
 40
-0.6
176
     1
 41
30.0
176
     1
 62
     5
 63
     7
421
 16777215
176
     1
 74
     1
176
     1
 91
        4
176
     1
 64
     7
176
     1
 65
   257
176
     1
 75
     1
176
     1
175
     1
176
     1
 42
1.0
176
     1
 92
        0
176
     1
 66
   257
176
     1
 43
1.0
176
     1
 76
     1
176
     1
 77
     6
176
     1
 78
     2
176
     1
 67
     7
176
     1
 79
     5
176
     1
170
     0
176
     1
171
     0
176
     1
290
     0
176
     1
 93
       13
176
     1
 44
0.0
176
     1
173
     0
176
     1
  0
VISUALSTYLE
  5
3DF
102
{ACAD_REACTORS
330
2A
102
}
330
2A
100
AcDbVisualStyle
  2
Hidden
 70
     6
177
     2
291
     0
 71
     1
176
     1
 72
     2
176
     1
 73
     2
176
     1
 90
        0
176
     1
 40
0.6
176
     1
 41
30.0
176
     1
 62
     5
 63
     7
421
 16777215
176
     1
 74
     2
176
     1
 91
        2
176
     1
 64
     7
176
     1
 65
   257
176
     1
 75
     2
176
     1
175
     1
176
     1
 42
40.0
176
     1
 92
        0
176
     1
 66
   257
176
     1
 43
1.0
176
     1
 76
     1
176
     1
 77
     6
176
     1
 78
     2
176
     1
 67
     7
176
     1
 79
     3
176
     1
170
     0
176
     1
171
     0
176
     1
290
     0
176
     1
 93
        1
176
     1
 44
0.0
176
     1
173
     0
176
     1
  0
VISUALSTYLE
  5
3E0
102
{ACAD_REACTORS
330
2A
102
}
330
2A
100
AcDbVisualStyle
  2
JitterOff
 70
    20
177
     2
291
     1
 71
     2
176
     0
 72
     2
176
     0
 73
     0
176
     0
 90
        0
176
     0
 40
0.6
176
     0
 41
30.0
176
     0
 62
     5
 63
     7
421
 16777215
176
     0
 74
     1
176
     0
 91
        4
176
     0
 64
     7
176
     0
 65
   257
176
     0
 75
     1
176
     0
175
     1
176
     0
 42
1.0
176
     0
 92
       10
176
     2
 66
     7
176
     0
 43
1.0
176
     0
 76
     1
176
     0
 77
     6
176
     0
 78
     2
176
     0
 67
     7
176
     0
 79
     5
176
     0
170
     0
176
     0
171
     0
176
     0
290
     0
176
     0
 93
        1
176
     0
 44
0.0
176
     0
173
     0
176
     0
  0
VISUALSTYLE
  5
38
102
{ACAD_REACTORS
330
2A
102
}
330
2A
100
AcDbVisualStyle
  2
Linepattern
 70
    14
177
     2
291
     1
 71
     2
176
     1
 72
     2
176
     1
 73
     0
176
     1
 90
        0
176
     1
 40
-0.6
176
     1
 41
-30.0
176
     1
 62
     5
 63
     7
421
 16777215
176
     1
 74
     1
176
     1
 91
        4
176
     1
 64
     7
176
     1
 65
   257
176
     1
 75
     7
176
     1
175
     7
176
     1
 42
1.0
176
     1
 92
        8
176
     1
 66
     7
176
     1
 43
1.0
176
     1
 76
     1
176
     1
 77
     6
176
     1
 78
     2
176
     1
 67
     7
176
     1
 79
     5
176
     1
170
     0
176
     1
171
     0
176
     1
290
     0
176
     1
 93
        1
176
     1
 44
0.0
176
     1
173
     0
176
     1
  0
VISUALSTYLE
  5
3E1
102
{ACAD_REACTORS
330
2A
102
}
330
2A
100
AcDbVisualStyle
  2
OverhangOff
 70
    21
177
     2
291
     1
 71
     2
176
     0
 72
     2
176
     0
 73
     0
176
     0
 90
        0
176
     0
 40
0.6
176
     0
 41
30.0
176
     0
 62
     5
 63
     7
421
 16777215
176
     0
 74
     1
176
     0
 91
        4
176
     0
 64
     7
176
     0
 65
   257
176
     0
 75
     1
176
     0
175
     1
176
     0
 42
1.0
176
     0
 92
        9
176
     2
 66
     7
176
     0
 43
1.0
176
     0
 76
     1
176
     0
 77
     6
176
     0
 78
     2
176
     0
 67
     7
176
     0
 79
     5
176
     0
170
     0
176
     0
171
     0
176
     0
290
     0
176
     0
 93
        1
176
     0
 44
0.0
176
     0
173
     0
176
     0
  0
VISUALSTYLE
  5
33
102
{ACAD_REACTORS
330
2A
102
}
330
2A
100
AcDbVisualStyle
  2
Realistic
 70
     8
177
     2
291
     0
 71
     2
176
     1
 72
     2
176
     1
 73
     0
176
     1
 90
        0
176
     1
 40
-0.6
176
     1
 41
-30.0
176
     1
 62
     5
 63
     7
421
 16777215
176
     1
 74
     1
176
     1
 91
        0
176
     1
 64
     7
176
     1
 65
   257
176
     1
 75
     1
176
     1
175
     1
176
     1
 42
1.0
176
     1
 92
        8
176
     1
 66
     8
424
  7895160
176
     1
 43
1.0
176
     1
 76
     1
176
     1
 77
     6
176
     1
 78
     2
176
     1
 67
     7
176
     1
 79
     5
176
     1
170
     0
176
     1
171
     0
176
     1
290
     0
176
     1
 93
       13
176
     1
 44
0.0
176
     1
173
     0
176
     1
  0
VISUALSTYLE
  5
3E7
102
{ACAD_REACTORS
330
2A
102
}
330
2A
100
AcDbVisualStyle
  2
Shaded
 70
    27
177
     2
291
     0
 71
     2
176
     1
 72
     2
176
     1
 73
     1
176
     1
 90
        2
176
     1
 40
0.6
176
     1
 41
30.0
176
     1
 62
     5
 63
     7
421
 16777215
176
     1
 74
     0
176
     1
 91
        4
176
     1
 64
     7
176
     1
 65
   257
176
     1
 75
     1
176
     1
175
     1
176
     1
 42
1.0
176
     1
 92
        8
176
     1
 66
   257
176
     1
 43
1.0
176
     1
 76
     1
176
     1
 77
     6
176
     1
 78
     2
176
     1
 67
     8
425
  7895160
176
     1
 79
     3
176
     1
170
     0
176
     1
171
     0
176
     1
290
     0
176
     1
 93
        5
176
     1
 44
0.0
176
     1
173
     0
176
     1
  0
VISUALSTYLE
  5
3E6
102
{ACAD_REACTORS
330
2A
102
}
330
2A
100
AcDbVisualStyle
  2
Shaded with edges
 70
    26
177
     2
291
     0
 71
     2
176
     1
 72
     2
176
     1
 73
     1
176
     1
 90
        2
176
     1
 40
0.6
176
     1
 41
30.0
176
     1
 62
     5
 63
     7
421
 16777215
176
     1
 74
     1
176
     1
 91
       10
176
     1
 64
     7
176
     1
 65
   257
176
     1
 75
     2
176
     1
175
     1
176
     1
 42
1.0
176
     1
 92
        8
176
     1
 66
   257
176
     1
 43
1.0
176
     1
 76
     1
176
     1
 77
     6
176
     1
 78
     2
176
     1
 67
     7
176
     1
 79
     3
176
     1
170
     0
176
     1
171
     0
176
     1
290
     0
176
     1
 93
        5
176
     1
 44
0.0
176
     1
173
     0
176
     1
  0
VISUALSTYLE
  5
3E3
102
{ACAD_REACTORS
330
2A
102
}
330
2A
100
AcDbVisualStyle
  2
Shades of Gray
 70
    23
177
     2
291
     0
 71
     2
176
     1
 72
     2
176
     1
 73
     3
176
     1
 90
        0
176
     1
 40
0.6
176
     1
 41
30.0
176
     1
 62
     5
 63
     7
421
 16777215
176
     1
 74
     2
176
     1
 91
        2
176
     1
 64
     7
176
     1
 65
     7
176
     1
 75
     1
176
     1
175
     1
176
     1
 42
40.0
176
     1
 92
        8
176
     1
 66
     7
176
     1
 43
1.0
176
     1
 76
     1
176
     1
 77
     6
176
     1
 78
     2
176
     1
 67
     7
176
     1
 79
     3
176
     1
170
     0
176
     1
171
     0
176
     1
290
     0
176
     1
 93
        1
176
     1
 44
0.0
176
     1
173
     0
176
     1
  0
VISUALSTYLE
  5
3E4
102
{ACAD_REACTORS
330
2A
102
}
330
2A
100
AcDbVisualStyle
  2
Sketchy
 70
    24
177
     2
291
     0
 71
     1
176
     1
 72
     2
176
     1
 73
     2
176
     1
 90
        0
176
     1
 40
0.6
176
     1
 41
30.0
176
     1
 62
     5
 63
     7
421
 16777215
176
     1
 74
     2
176
     1
 91
        2
176
     1
 64
     7
176
     1
 65
     7
176
     1
 75
     1
176
     1
175
     1
176
     1
 42
40.0
176
     1
 92
       11
176
     1
 66
     7
176
     1
 43
1.0
176
     1
 76
     1
176
     1
 77
     6
176
     1
 78
     2
176
     1
 67
     7
176
     1
 79
     6
176
     1
170
     0
176
     1
171
     0
176
     1
290
     0
176
     1
 93
        1
176
     1
 44
0.0
176
     1
173
     0
176
     1
  0
VISUALSTYLE
  5
37
102
{ACAD_REACTORS
330
2A
102
}
330
2A
100
AcDbVisualStyle
  2
Thicken
 70
    13
177
     2
291
     1
 71
     2
176
     1
 72
     2
176
     1
 73
     0
176
     1
 90
        0
176
     1
 40
-0.6
176
     1
 41
-30.0
176
     1
 62
     5
 63
     7
421
 16777215
176
     1
 74
     1
176
     1
 91
        4
176
     1
 64
     7
176
     1
 65
   257
176
     1
 75
     1
176
     1
175
     1
176
     1
 42
1.0
176
     1
 92
       12
176
     1
 66
     7
176
     1
 43
1.0
176
     1
 76
     1
176
     1
 77
     6
176
     1
 78
     2
176
     1
 67
     7
176
     1
 79
     5
176
     1
170
     0
176
     1
171
     0
176
     1
290
     0
176
     1
 93
        1
176
     1
 44
0.0
176
     1
173
     0
176
     1
  0
VISUALSTYLE
  5
3DE
102
{ACAD_REACTORS
330
2A
102
}
330
2A
100
AcDbVisualStyle
  2
Wireframe
 70
     5
177
     2
291
     0
 71
     0
176
     1
 72
     2
176
     1
 73
     0
176
     1
 90
        0
176
     1
 40
0.6
176
     1
 41
30.0
176
     1
 62
     5
 63
     7
421
 16777215
176
     1
 74
     1
176
     1
 91
        4
176
     1
 64
     7
176
     1
 65
   257
176
     1
 75
     1
176
     1
175
     1
176
     1
 42
1.0
176
     1
 92
        0
176
     1
 66
   257
176
     1
 43
1.0
176
     1
 76
     1
176
     1
 77
     6
176
     1
 78
     2
176
     1
 67
     7
176
     1
 79
     3
176
     1
170
     0
176
     1
171
     0
176
     1
290
     0
176
     1
 93
        1
176
     1
 44
0.0
176
     1
173
     0
176
     1
  0
VISUALSTYLE
  5
3E5
102
{ACAD_REACTORS
330
2A
102
}
330
2A
100
AcDbVisualStyle
  2
X-Ray
 70
    25
177
     2
291
     0
 71
     2
176
     1
 72
     2
176
     1
 73
     1
176
     1
 90
        1
176
     1
 40
0.5
176
     1
 41
30.0
176
     1
 62
     5
 63
     7
421
 16777215
176
     1
 74
     1
176
     1
 91
        0
176
     1
 64
     7
176
     1
 65
   257
176
     1
 75
     1
176
     1
175
     1
176
     1
 42
1.0
176
     1
 92
        8
176
     1
 66
     7
176
     1
 43
1.0
176
     1
 76
     1
176
     1
 77
     6
176
     1
 78
     2
176
     1
 67
     7
176
     1
 79
     3
176
     1
170
     0
176
     1
171
     0
176
     1
290
     0
176
     1
 93
       13
176
     1
 44
0.0
176
     1
173
     0
176
     1
  0
DICTIONARYVAR
  5
3F4
102
{ACAD_REACTORS
330
3F3
102
}
330
3F3
100
DictionaryVariables
280
     0
  1
1:1
  0
DICTIONARYVAR
  5
3F9
102
{ACAD_REACTORS
330
3F3
102
}
330
3F3
100
DictionaryVariables
280
     0
  1
Standard
  0
DICTIONARYVAR
  5
3F8
102
{ACAD_REACTORS
330
3F3
102
}
330
3F3
100
DictionaryVariables
280
     0
  1
Standard
  0
DICTIONARY
  5
444
330
183
100
AcDbDictionary
280
     1
281
     1
  3
ACAD_ROUNDTRIP_2008_TABLESTYLE_CELLSTYLEMAP
360
445
  0
CELLSTYLEMAP
  5
445
102
{ACAD_REACTORS
330
444
102
}
330
444
100
AcDbCellStyleMap
 90
        3
300
CELLSTYLE
  1
TABLEFORMAT_BEGIN
 90
        5
170
     1
 91
        0
 92
        0
 62
   257
 93
        1
300
CONTENTFORMAT
  1
CONTENTFORMAT_BEGIN
 90
        0
 91
        0
 92
        4
 93
        0
300

 40
0.0
140
1.0
 94
        5
 62
     0
340
11
144
2.5
309
CONTENTFORMAT_END
171
     0
 94
        6
 95
        1
302
GRIDFORMAT
  1
GRIDFORMAT_BEGIN
 90
        0
 91
        1
 62
     0
 92
       -2
340
0
 93
        0
 40
0.045
309
GRIDFORMAT_END
 95
        2
302
GRIDFORMAT
  1
GRIDFORMAT_BEGIN
 90
        0
 91
        1
 62
     0
 92
       -2
340
0
 93
        0
 40
0.045
309
GRIDFORMAT_END
 95
        4
302
GRIDFORMAT
  1
GRIDFORMAT_BEGIN
 90
        0
 91
        1
 62
     0
 92
       -2
340
0
 93
        0
 40
0.045
309
GRIDFORMAT_END
 95
        8
302
GRIDFORMAT
  1
GRIDFORMAT_BEGIN
 90
        0
 91
        1
 62
     0
 92
       -2
340
0
 93
        0
 40
0.045
309
GRIDFORMAT_END
 95
       16
302
GRIDFORMAT
  1
GRIDFORMAT_BEGIN
 90
        0
 91
        1
 62
     0
 92
       -2
340
0
 93
        0
 40
0.045
309
GRIDFORMAT_END
 95
       32
302
GRIDFORMAT
  1
GRIDFORMAT_BEGIN
 90
        0
 91
        1
 62
     0
 92
       -2
340
0
 93
        0
 40
0.045
309
GRIDFORMAT_END
309
TABLEFORMAT_END
  1
CELLSTYLE_BEGIN
 90
        1
 91
        1
300
_TITLE
309
CELLSTYLE_END
300
CELLSTYLE
  1
TABLEFORMAT_BEGIN
 90
        5
170
     1
 91
        0
 92
        0
 62
   257
 93
        1
300
CONTENTFORMAT
  1
CONTENTFORMAT_BEGIN
 90
        0
 91
        0
 92
        4
 93
        0
300

 40
0.0
140
1.0
 94
        5
 62
     0
340
11
144
2.5
309
CONTENTFORMAT_END
171
     0
 94
        6
 95
        1
302
GRIDFORMAT
  1
GRIDFORMAT_BEGIN
 90
        0
 91
        1
 62
     0
 92
       -2
340
0
 93
        0
 40
0.045
309
GRIDFORMAT_END
 95
        2
302
GRIDFORMAT
  1
GRIDFORMAT_BEGIN
 90
        0
 91
        1
 62
     0
 92
       -2
340
0
 93
        0
 40
0.045
309
GRIDFORMAT_END
 95
        4
302
GRIDFORMAT
  1
GRIDFORMAT_BEGIN
 90
        0
 91
        1
 62
     0
 92
       -2
340
0
 93
        0
 40
0.045
309
GRIDFORMAT_END
 95
        8
302
GRIDFORMAT
  1
GRIDFORMAT_BEGIN
 90
        0
 91
        1
 62
     0
 92
       -2
340
0
 93
        0
 40
0.045
309
GRIDFORMAT_END
 95
       16
302
GRIDFORMAT
  1
GRIDFORMAT_BEGIN
 90
        0
 91
        1
 62
     0
 92
       -2
340
0
 93
        0
 40
0.045
309
GRIDFORMAT_END
 95
       32
302
GRIDFORMAT
  1
GRIDFORMAT_BEGIN
 90
        0
 91
        1
 62
     0
 92
       -2
340
0
 93
        0
 40
0.045
309
GRIDFORMAT_END
309
TABLEFORMAT_END
  1
CELLSTYLE_BEGIN
 90
        2
 91
        1
300
_HEADER
309
CELLSTYLE_END
300
CELLSTYLE
  1
TABLEFORMAT_BEGIN
 90
        5
170
     1
 91
        0
 92
        0
 62
   257
 93
        1
300
CONTENTFORMAT
  1
CONTENTFORMAT_BEGIN
 90
        0
 91
        0
 92
        4
 93
        0
300

 40
0.0
140
1.0
 94
        5
 62
     0
340
11
144
2.5
309
CONTENTFORMAT_END
171
     0
 94
        6
 95
        1
302
GRIDFORMAT
  1
GRIDFORMAT_BEGIN
 90
        0
 91
        1
 62
     0
 92
       -2
340
0
 93
        0
 40
0.045
309
GRIDFORMAT_END
 95
        2
302
GRIDFORMAT
  1
GRIDFORMAT_BEGIN
 90
        0
 91
        1
 62
     0
 92
       -2
340
0
 93
        0
 40
0.045
309
GRIDFORMAT_END
 95
        4
302
GRIDFORMAT
  1
GRIDFORMAT_BEGIN
 90
        0
 91
        1
 62
     0
 92
       -2
340
0
 93
        0
 40
0.045
309
GRIDFORMAT_END
 95
        8
302
GRIDFORMAT
  1
GRIDFORMAT_BEGIN
 90
        0
 91
        1
 62
     0
 92
       -2
340
0
 93
        0
 40
0.045
309
GRIDFORMAT_END
 95
       16
302
GRIDFORMAT
  1
GRIDFORMAT_BEGIN
 90
        0
 91
        1
 62
     0
 92
       -2
340
0
 93
        0
 40
0.045
309
GRIDFORMAT_END
 95
       32
302
GRIDFORMAT
  1
GRIDFORMAT_BEGIN
 90
        0
 91
        1
 62
     0
 92
       -2
340
0
 93
        0
 40
0.045
309
GRIDFORMAT_END
309
TABLEFORMAT_END
  1
CELLSTYLE_BEGIN
 90
        3
 91
        2
300
_DATA
309
CELLSTYLE_END
  0
ENDSEC
  0
EOF
